SplineFontDB: 3.0
FontName: FantasqueSansMono-Italic
FullName: Fantasque Sans Mono Italic
FamilyName: Fantasque Sans Mono
Weight: Book
Copyright: Created by Jany Belluz with FontForge 2.0 (http://fontforge.sf.net)
UComments: "2013-9-13: Created."
Version: 1.7.1
ItalicAngle: -11
UnderlinePosition: -192
UnderlineWidth: 96
Ascent: 1650
Descent: 398
InvalidEm: 0
LayerCount: 2
Layer: 0 0 "Back" 1
Layer: 1 0 "Fore" 0
XUID: [1021 607 50037791 3178130]
FSType: 8
OS2Version: 3
OS2_WeightWidthSlopeOnly: 0
OS2_UseTypoMetrics: 1
CreationTime: 1379052706
ModificationTime: 1459705655
PfmFamily: 49
TTFWeight: 400
TTFWidth: 5
LineGap: 50
VLineGap: 0
Panose: 2 11 6 9 2 2 4 3 2 4
OS2TypoAscent: 1650
OS2TypoAOffset: 0
OS2TypoDescent: -398
OS2TypoDOffset: 0
OS2TypoLinegap: 100
OS2WinAscent: 1750
OS2WinAOffset: 0
OS2WinDescent: 398
OS2WinDOffset: 0
HheadAscent: 1700
HheadAOffset: 0
HheadDescent: -398
HheadDOffset: 0
OS2FamilyClass: 2057
OS2Vendor: 'PfEd'
Lookup: 1 0 0 "'locl' Formes localis+AOkA-es g+AOkA-ographiquement lookups0" { "'locl' Macedonian/Serbian italic forms"  } ['locl' ('cyrl' <' SRB' 'MKD ' > ) ]
MarkAttachClasses: 1
DEI: 91125

StartChar: a
Encoding: 97 97 0
Width: 1060
VWidth: 6
Flags: W
HStem: -8 152<263.542 494.389> 890 144<420.442 744.614>
VStem: 66 152<187.28 570.631> 716 150<78.0819 215.544>
LayerCount: 2
Fore
SplineSet
243 514 m 0
 226 451 218 395 218 346 c 0
 218 218 272 144 350 144 c 0
 576 144 708 442 766 608 c 1
 811 804 l 1
 761 839 688 890 584 890 c 0
 393 890 314 774 243 514 c 0
1006 1002 m 1
 886 356 l 2
 873 290 866 246 866 214 c 0
 866 162 884 142 919 109 c 1
 813 -10 l 1
 772 27 716 54 716 191 c 0
 716 199 716 207 717 216 c 1
 659 132 533 -8 321 -8 c 0
 166 -8 66 140 66 343 c 0
 66 394 72 448 85 504 c 0
 169 862 303 1034 604 1034 c 0
 730 1034 793 994 841 961 c 1
 846 984 849 1006 851 1026 c 1
 1006 1002 l 1
EndSplineSet
Validated: 1
EndChar

StartChar: b
Encoding: 98 98 1
Width: 1060
VWidth: -2
Flags: W
HStem: -7 154<324.703 621.789> 873 155<509.263 725.769> 1392 20G<294 452.5>
VStem: 294 161<1128.44 1403> 784 154<372.721 810.409>
LayerCount: 2
Fore
SplineSet
767 478 m 4
 779 539 784 593 784 639 c 4
 784 805 713 873 615 873 c 4
 512 873 388 736 283 449 c 5
 254 307 l 5
 303 193 341 147 478 147 c 4
 648 147 727 274 767 478 c 4
920 459 m 4
 868 191 723 -7 448 -7 c 4
 336 -7 262 28 210 84 c 5
 201 42 192 20 181 -12 c 5
 19 7 l 5
 42 73 68 160 84 243 c 5
 261 1157 l 4
 279 1251 288 1335 294 1403 c 5
 455 1412 l 5
 450 1339 439 1242 418 1152 c 6
 343 833 l 5
 416 935 509 1028 631 1028 c 4
 826 1028 938 874 938 635 c 4
 938 580 932 521 920 459 c 4
EndSplineSet
Validated: 1
EndChar

StartChar: c
Encoding: 99 99 2
Width: 1060
VWidth: 4
Flags: W
HStem: -7 157<331.522 688.736> 865 153<448.642 789.57>
VStem: 77 165<234.888 633.618>
LayerCount: 2
Fore
SplineSet
242 389 m 0
 242 240 320 150 501 150 c 2
 514 150 l 2
 670 150 758 230 827 317 c 1
 943 206 l 1
 902 164 767 -7 488 -7 c 0
 247 -7 77 142 77 342 c 0
 77 415 88 487 99 547 c 0
 162 878 380 1018 685 1018 c 0
 862 1018 954 923 985 789 c 1
 829 736 l 1
 816 802 786 865 646 865 c 0
 432 865 300 754 259 539 c 0
 251 495 242 441 242 389 c 0
EndSplineSet
Validated: 1
EndChar

StartChar: d
Encoding: 100 100 3
Width: 1060
VWidth: -2
Flags: W
HStem: -8 152<226.542 457.273> 890 144<383.442 707.614> 1392 20G<888 1018.17>
VStem: 29 152<187.28 570.631> 678 152<79.1014 230>
LayerCount: 2
Back
SplineSet
749 478 m 4xd8
 749 761 637 865 474 865 c 4
 383 865 321 795 269 744 c 5
 269 307 l 5
 340 193 387 147 524 147 c 4
 694 147 749 274 749 478 c 4xd8
906 459 m 4
 906 191 799 -7 524 -7 c 4
 412 -7 332 28 269 84 c 5xd8
 268 42 263 20 258 -12 c 5
 93 7 l 5xe8
 103 73 112 160 112 243 c 4
 112 251 112 259 112 267 c 4
 112 516 111 877 111 1157 c 4
 111 1251 103 1335 96 1403 c 5
 255 1412 l 5
 264 1339 269 1243 269 1152 c 6
 269 949 l 5
 317 985 360 1020 460 1020 c 4
 783 1020 906 795 906 459 c 4
EndSplineSet
Fore
SplineSet
206 514 m 0
 189 451 181 395 181 346 c 0
 181 218 235 144 313 144 c 0
 539 144 671 442 729 608 c 1
 774 804 l 1
 724 839 651 890 547 890 c 0
 356 890 277 774 206 514 c 0
1044 1388 m 1
 849 356 l 2
 836 290 830 246 830 214 c 0
 830 162 847 142 882 109 c 1
 776 -10 l 1
 735 27 678 70 678 173 c 0
 678 181 678 189 679 198 c 1
 621 114 496 -8 284 -8 c 0
 129 -8 29 140 29 343 c 0
 29 394 35 448 48 504 c 0
 132 862 266 1034 567 1034 c 0
 693 1034 756 994 804 961 c 1
 809 984 887 1392 889 1412 c 1
 1044 1388 l 1
EndSplineSet
Validated: 1
EndChar

StartChar: e
Encoding: 101 101 4
Width: 1060
VWidth: 32
Flags: W
HStem: -10 153<318.479 683.696> 869 152<447.657 761.392>
VStem: 86 160<212.786 344.433> 811 146<635.961 821.03>
LayerCount: 2
Fore
SplineSet
262 492 m 1
 377 500 586 513 700 581 c 0
 775 626 811 683 811 735 c 0
 811 808 740 869 604 869 c 0
 434 869 311 743 262 492 c 1
632 1021 m 0
 847 1021 957 885 957 740 c 0
 957 639 903 534 794 467 c 0
 641 374 390 352 246 341 c 1
 246 338 246 334 246 330 c 0
 246 258 285 143 479 143 c 0
 658 143 757 224 806 278 c 1
 908 169 l 1
 858 124 738 -10 445 -10 c 0
 201 -10 86 132 86 356 c 0
 86 405 92 459 103 516 c 0
 159 802 349 1021 632 1021 c 0
EndSplineSet
Validated: 1
EndChar

StartChar: f
Encoding: 102 102 5
Width: 1060
VWidth: -2
Flags: W
HStem: 0 21G<183 340.5> 867 153<224 349 535 916.055> 1266 152<613.901 1057.69>
LayerCount: 2
Fore
SplineSet
1111 1194 m 1
 1003 1262 871 1266 739 1266 c 0
 592 1266 564 1168 543 1060 c 2
 535 1021 l 1
 603 1021 727 1020 800 1020 c 1
 903 1017 929 1009 957 1000 c 1
 917 853 l 1
 897 860 867 867 811 867 c 2
 506 867 l 1
 477 713 341 4 340 0 c 1
 183 0 l 1
 188 25 322 720 349 867 c 1
 218 867 l 1
 224 1020 l 1
 379 1020 l 1
 382 1036 383 1045 387 1064 c 0
 415 1207 484 1418 761 1418 c 0
 893 1418 1065 1410 1196 1333 c 1
 1111 1194 l 1
EndSplineSet
Validated: 1
EndChar

StartChar: g
Encoding: 103 103 6
Width: 1060
VWidth: 14
Flags: W
HStem: -402 155<167.969 489.164> -8 152<263.542 493.461> 890 144<420.442 744.614>
VStem: 66 152<187.28 570.631>
LayerCount: 2
Back
SplineSet
-392.676 1025.76 m 9
 -342.676 887.765 l 17
 -450.695 847.285 -511.676 784.764 -547.676 730.764 c 1
 -571.676 685.764 -553.676 643.764 -469.676 604.764 c 0
 -385.676 565.764 -262.062 489.674 -271.676 337.764 c 0
 -281.676 179.764 -430.5 42.8818 -753.5 31.8818 c 0
 -1062.19 21.3691 -1167.5 111.882 -1213.5 206.882 c 0
 -1229.24 239.396 -1265.04 345.627 -1183.5 458.882 c 0
 -1093.5 583.882 -931.676 601.764 -760.676 577.764 c 9
 -772.376 518.92 -790.676 426.882 -790.676 426.882 c 0
 -1003.68 477.882 -1114.3 356.076 -1051.5 261.882 c 0
 -979.5 153.882 -668.5 184.882 -629.5 193.882 c 0
 -590.5 202.882 -442.5 236.72 -442.5 347.882 c 0
 -442.5 426.882 -541.5 449.882 -631.5 503.882 c 0
 -721.5 557.882 -773.074 681.354 -688.676 804.882 c 0
 -637.34 880.019 -482.983 962.277 -392.676 1025.76 c 9
-364.272 1153.88 m 0
 -346.39 1245.88 -411.532 1306.88 -562.532 1306.88 c 0
 -730.532 1306.88 -767.224 1229.88 -786.272 1131.88 c 0
 -805.516 1032.88 -718.5 958.882 -589.5 958.882 c 0
 -383.5 958.882 -368.938 1129.88 -364.272 1153.88 c 0
-946.8 1118.88 m 0
 -946.76 1121.94 -944.259 1147.76 -943.676 1150.76 c 0
 -905.188 1348.76 -786.986 1458.88 -532.986 1458.88 c 0
 -432.986 1458.88 -341.514 1445.88 -274.649 1398.88 c 1
 -215.768 1457.76 -126.338 1463.88 -10.3379 1463.88 c 1
 -42.0225 1300.88 l 1
 -53.6338 1302.88 -64.4395 1303.88 -74.4395 1303.88 c 0
 -146.676 1303.88 -193.837 1289.88 -211.753 1274.88 c 1
 -202.272 1253.88 -200.272 1201.88 -207.301 1158.88 c 0
 -232.114 1007.07 -248.083 838.764 -583.676 838.764 c 2
 -586.676 838.764 l 2
 -827.424 838.764 -949.676 901.764 -946.8 1118.88 c 0
EndSplineSet
Fore
SplineSet
243 514 m 0
 226 451 218 395 218 346 c 0
 218 218 272 144 350 144 c 0
 576 144 708 442 766 608 c 1
 811 804 l 1
 761 839 688 890 584 890 c 0
 393 890 314 774 243 514 c 0
1006 1002 m 1
 886 356 l 2
 838 99 750 -402 354 -402 c 0
 239 -402 98 -360 -75 -257 c 1
 1 -107 l 1
 146 -208 259 -247 348 -247 c 0
 602 -247 671 84 709 207 c 1
 651 123 533 -8 321 -8 c 0
 166 -8 66 140 66 343 c 0
 66 394 72 448 85 504 c 0
 169 862 303 1034 604 1034 c 0
 730 1034 793 994 841 961 c 1
 846 984 849 1006 851 1026 c 1
 1006 1002 l 1
EndSplineSet
Validated: 1
EndChar

StartChar: p
Encoding: 112 112 7
Width: 1060
VWidth: -2
Flags: W
HStem: -7 155<322.002 597.493> 858 155<575.777 781.422> 1016 20G<228 395.5>
VStem: -24 162<-394 -103.672> 228 168<774.076 1016> 809 157<427.616 833.798>
LayerCount: 2
Fore
SplineSet
790 527 m 0
 802 590 809 645 809 692 c 0
 809 797 775 858 696 858 c 0
 559 858 402 667 291 430 c 1
 259 262 l 1
 301 211 346 148 437 148 c 0
 600 148 735 244 790 527 c 0
196 757 m 2
 198 765 199 773 201 781 c 0
 217 864 225 950 228 1016 c 1
 396 1036 l 1
 395 1004 361 814 354 772 c 1
 486 982 583 1013 725 1013 c 0
 883 1013 966 885 966 696 c 0
 966 649 961 599 951 546 c 0
 886 210 716 -7 393 -7 c 0
 293 -7 256 39 214 70 c 1
 169 -151 l 2
 155 -246 144 -332 138 -400 c 1
 -24 -394 l 1
 -19 -321 -8 -237 11 -146 c 2
 196 757 l 2
EndSplineSet
Validated: 1
EndChar

StartChar: h
Encoding: 104 104 8
Width: 1060
VWidth: -2
Flags: W
HStem: 0 21G<7 170> 867 153<535.899 757.441> 1382 20G<284.127 447>
VStem: 7 156<7.26482 179.604> 678 161<119.295 413.046> 781 161<503.063 845.5>
LayerCount: 2
Fore
SplineSet
755 576 m 2xf8
 767 638 781 706 781 747 c 0
 781 813 748 867 663 867 c 0
 585 867 400 787 263 484 c 1
 211 198 l 2
 197 119 177 46 163 0 c 1
 7 8 l 1
 29 80 41 127 56 204 c 0
 154 708 288 1402 288 1402 c 1
 447 1402 l 1
 336 832 l 1
 418 955 535 1020 637 1020 c 0
 819 1020 942 956 942 775 c 0xf4
 942 735 934 692 925 642 c 0
 895 489 873 380 852 275 c 0
 850 266 839 212 839 197 c 0
 839 127 875 123 919 101 c 1
 853 -35 l 1
 761 -13 678 58 678 156 c 0
 678 193 689 241 693 260 c 2
 755 576 l 2xf8
EndSplineSet
Validated: 1
EndChar

StartChar: i
Encoding: 105 105 9
Width: 1060
VWidth: 0
Flags: W
HStem: -18 142<526.508 832.381> 1000 20<462 661> 1181 225<511 703>
VStem: 350 159<140.796 459.859>
LayerCount: 2
Fore
SplineSet
511 1406 m 1
 746 1406 l 1
 703 1181 l 1
 468 1181 l 1
 511 1406 l 1
EndSplineSet
Refer: 177 305 N 1 0 0 1 0 0 2
Validated: 1
EndChar

StartChar: j
Encoding: 106 106 10
Width: 1060
VWidth: 0
Flags: W
HStem: -387 156<210.666 477.366> 892 149<504.147 703.795> 1179 225<758 948>
VStem: 710 156<571.234 890.178>
LayerCount: 2
Fore
SplineSet
758 1404 m 1
 991 1401 l 1
 948 1176 l 1
 714 1179 l 1
 758 1404 l 1
EndSplineSet
Refer: 330 567 N 1 0 0 1 0 0 2
Validated: 1
EndChar

StartChar: k
Encoding: 107 107 11
Width: 1060
VWidth: -2
Flags: W
HStem: 0 21G<61 221> 872 144<603.881 801.355> 1407 20G<305 469>
VStem: 311 161<1173.33 1410.36> 820 152<595.534 854.097>
LayerCount: 2
Fore
SplineSet
472 538 m 1
 472 538 590 504 629 504 c 0
 733 504 789 599 809 672 c 1
 816 698 820 724 820 747 c 0
 820 819 787 872 724 872 c 0
 562 872 358 587 300 420 c 1
 290 370 224 33 218 0 c 1
 61 0 l 1
 300 1228 l 2
 307 1264 311 1300 311 1336 c 0
 311 1361 309 1385 305 1410 c 1
 468 1427 l 1
 470 1416 472 1390 472 1358 c 0
 472 1321 469 1276 462 1240 c 2
 369 761 l 1
 523 986 637 1016 743 1016 c 0
 873 1016 972 905 972 791 c 0
 972 786 971 781 971 776 c 1
 960 600 889 404 691 388 c 1
 815 292 862 170 922 34 c 1
 781 -29 l 1
 726 144 609 323 420 398 c 1
 472 538 l 1
EndSplineSet
Validated: 1
EndChar

StartChar: l
Encoding: 108 108 12
Width: 1060
VWidth: -2
Flags: W
HStem: -18 142<481.209 835.381>
VStem: 280 161<166.217 556.789>
LayerCount: 2
Back
SplineSet
552.328 1446.4 m 4
 744.828 1446.4 777.393 1282.82 753.41 1153.6 c 6
 592.217 283.5 l 6
 573.022 179.894 607.104 124 699.104 124 c 4
 792.104 124 890.331 148 969.438 200 c 5
 1045.13 83 l 5
 945.333 12 796.501 -18 672.501 -18 c 4
 438.631 -18 412.279 155.212 435.438 279.5 c 6
 600.924 1167.6 l 6
 608.682 1208.93 611.328 1295.6 550.328 1297.6 c 4
 501.328 1297.6 435.328 1298.6 313.328 1186.6 c 5
 216.328 1319.6 l 5
 351.328 1408.6 417.328 1446.4 552.328 1446.4 c 4
EndSplineSet
Fore
SplineSet
648 1431 m 25
 450 376 l 2
 444 344 441 316 441 291 c 0
 441 158 517 124 624 124 c 0
 717 124 815 148 894 200 c 1
 970 83 l 1
 870 12 722 -18 598 -18 c 0
 385 -18 280 106 280 281 c 0
 280 310 283 340 289 372 c 2
 486 1444 l 25
 648 1431 l 25
EndSplineSet
Validated: 1
EndChar

StartChar: m
Encoding: 109 109 13
Width: 1060
VWidth: 4
Flags: W
HStem: 0 0G<-15 129.878 353 497.873 857.5 900.083> 873 153<417.445 580.5 764.355 939> 1027 20G<227 307.5>
VStem: 153 158<877 1007.35> 875 140<672.648 870.776>
LayerCount: 2
Fore
SplineSet
889 1026 m 3
 989 1026 1015 934 1015 846 c 0
 1015 807 1010 768 1004 739 c 2
 902 216 l 2
 901 211 901 206 901 201 c 0
 901 158 940 126 974 112 c 1
 887 -21 l 1
 828 -9 752 37 752 142 c 0
 752 157 754 173 757 191 c 2
 758 193 l 1
 868 760 l 2
 869 764 869 768 870 773 c 0
 872 785 875 801 875 816 c 0
 875 845 865 873 826 873 c 0
 778 873 716 827 628 692 c 1
 494 0 l 1
 353 0 l 1
 510 806 l 1
 512 815 513 825 513 835 c 0
 513 855 506 873 475 873 c 0
 427 873 348 827 260 691 c 1
 126 0 l 1
 -15 0 l 1
 140 815 l 2
 150 866 153 905 153 937 c 0
 153 963 151 985 148 1007 c 1
 306 1047 l 1
 309 1035 311 1013 311 989 c 0
 311 951 307 905 303 877 c 1
 365 957 465 1026 538 1026 c 1
 623 1026 666 966 666 904 c 0
 666 895 665 886 663 877 c 1
 721 956 797 1026 889 1026 c 3
EndSplineSet
Validated: 1
EndChar

StartChar: o
Encoding: 111 111 14
Width: 1060
VWidth: 6
Flags: W
HStem: 1 155<282.579 590.831> 878 154<453.6 737.526>
VStem: 73 162<201.274 586.445> 787 161<423.036 831.077>
LayerCount: 2
Fore
SplineSet
621 215 m 1
 698 276 742 382 771 530 c 0
 772 536 774 542 775 548 c 0
 782 588 787 627 787 662 c 0
 787 789 762 878 596 878 c 0
 422 878 293 713 246 469 c 0
 239 433 235 399 235 368 c 0
 235 234 263 156 431 156 c 1
 507 157 563 173 621 215 c 1
407 1 m 1
 405 1 l 0
 201 1 73 128 73 329 c 0
 73 371 78 416 87 464 c 0
 144 756 300 1032 592 1032 c 0
 789 1032 886 963 930 831 c 0
 943 792 948 745 948 695 c 0
 948 644 943 592 933 543 c 0
 878 258 748 1 409 1 c 2
 407 1 l 1
EndSplineSet
Validated: 1
EndChar

StartChar: n
Encoding: 110 110 15
Width: 1060
VWidth: 6
Flags: W
HStem: -1 3G<56.881 211 778 831.929> 877 153<572.479 784.11>
VStem: 212 162<856.796 1014.7> 672 162<83.2496 404.281> 790 164<724.927 870.897>
LayerCount: 2
Fore
SplineSet
374 856 m 1xe8
 492 974 604 1030 732 1030 c 0
 840 1030 954 961 954 838 c 0xe8
 954 825 953 811 950 796 c 2
 836 211 l 2
 834 203 834 197 834 190 c 0
 834 140 875 120 919 93 c 1
 813 -19 l 1
 743 19 672 62 672 159 c 0xf0
 672 173 674 188 677 204 c 2
 786 765 l 2
 789 778 790 791 790 802 c 0
 790 851 764 877 704 877 c 1
 588 877 405 740 309 486 c 1
 211 0 l 1
 53 -1 l 1
 190 705 l 2
 207 793 212 846 212 889 c 0
 212 933 207 966 204 1014 c 1
 374 1032 l 1
 376 1014 377 984 377 948 c 0
 377 920 376 888 374 856 c 1xe8
EndSplineSet
Validated: 1
EndChar

StartChar: q
Encoding: 113 113 16
Width: 1060
VWidth: -2
Flags: W
HStem: -8 152<286.542 475.008> 890 144<443.442 767.614>
VStem: 89 152<187.28 570.631> 622 165<-368.954 93.3045> 864 165<961 1004.22>
LayerCount: 2
Fore
SplineSet
266 514 m 0
 249 451 241 395 241 346 c 0
 241 218 295 144 373 144 c 0
 522 144 704 456 796 664 c 1
 834 804 l 1
 784 839 711 890 607 890 c 0
 416 890 337 774 266 514 c 0
1029 1002 m 1
 925 504 l 2
 906 407 818 101 796 -52 c 0
 790 -94 787 -134 787 -171 c 0
 787 -243 799 -307 823 -372 c 1
 667 -424 l 1
 637 -344 622 -251 622 -165 c 0
 622 -126 625 -89 631 -55 c 0
 659 105 705 198 716 262 c 1
 658 178 556 -8 344 -8 c 0
 189 -8 89 140 89 343 c 0
 89 394 95 448 108 504 c 0
 192 862 326 1034 627 1034 c 0
 753 1034 816 994 864 961 c 1
 869 984 872 1006 874 1026 c 1
 1029 1002 l 1
EndSplineSet
Validated: 1
EndChar

StartChar: r
Encoding: 114 114 17
Width: 1060
VWidth: 4
Flags: W
HStem: 0 21G<135 295.036> 865 160<687.601 853.668>
VStem: 287 151<640.623 890.408> 856 159<723.094 859.029>
LayerCount: 2
Fore
SplineSet
421 731 m 1
 569 955 687 1025 842 1025 c 0
 951 1025 1015 962 1015 854 c 0
 1015 817 1010 775 1001 729 c 0
 1001 727 1000 725 1000 723 c 1
 844 723 l 1
 849 756 856 785 856 809 c 0
 856 843 841 865 787 865 c 0
 686 865 524 669 381 446 c 1
 291 0 l 1
 135 1 l 1
 284 764 l 2
 286 773 287 782 287 791 c 0
 287 838 261 884 199 931 c 1
 319 1067 l 1
 364 1024 438 951 438 840 c 0
 438 824 424 748 421 731 c 1
EndSplineSet
Validated: 1
EndChar

StartChar: s
Encoding: 115 115 18
Width: 1060
VWidth: 6
Flags: W
HStem: -20 143<301.504 628.389> 882 148<474.926 893.742>
VStem: 71 160<188.4 328.704> 267 168<694.631 841.832> 715 172<207.19 372.533>
LayerCount: 2
Fore
SplineSet
367 574 m 0
 301 622 267 685 267 756 c 0
 267 773 269 790 273 808 c 0
 305 955 432 1030 640 1030 c 0
 776 1030 885 1013 984 972 c 1
 926 823 l 1
 857 860 751 882 626 882 c 0
 496 882 435 821 435 766 c 0
 435 744 444 724 463 708 c 0
 642 558 887 499 887 306 c 0
 887 290 885 273 882 256 c 0
 839 35 646 -20 423 -20 c 0
 229 -20 71 89 71 267 c 0
 71 287 73 308 77 330 c 1
 234 329 l 1
 232 317 231 306 231 295 c 0
 231 183 345 123 448 123 c 0
 571 123 693 172 714 282 c 0
 715 286 715 291 715 295 c 0
 715 391 508 471 367 574 c 0
EndSplineSet
Validated: 1
EndChar

StartChar: t
Encoding: 116 116 19
Width: 1060
VWidth: 0
Flags: W
HStem: -6 155<419.13 735.479> 865 147<141.015 142 143.267 305 587 903>
VStem: 198 162<206.068 583.06>
LayerCount: 2
Fore
SplineSet
377 474 m 1
 370 434 l 2
 363 400 360 369 360 342 c 0
 360 202 444 149 568 149 c 0
 719 149 790 225 829 294 c 1
 950 201 l 1
 904 118 785 -6 540 -6 c 0
 347 -6 198 99 198 318 c 0
 198 353 202 390 210 431 c 2
 218 474 l 1
 242 578 261 672 305 865 c 1
 226 865 l 2
 198 865 169 861 142 854 c 1
 123 1000 l 1
 149 1009 222 1012 255 1012 c 2
 335 1012 l 1
 349 1082 367 1176 381 1246 c 1
 539 1245 l 1
 526 1179 507 1085 493 1017 c 1
 615 1017 l 1
 760 1018 914 1019 914 1019 c 1
 932 1019 l 1
 903 872 l 1
 587 872 l 2
 541 872 513 869 467 869 c 1
 418 665 400 574 377 474 c 1
EndSplineSet
Validated: 1
EndChar

StartChar: u
Encoding: 117 117 20
Width: 1060
VWidth: 6
Flags: W
HStem: 0 155<257.953 450.212> 1001 20G<269.778 392 835.905 983.636>
VStem: 79 167<164.519 462.848> 228 164<762.633 996.196> 700 145<86.8454 291.394>
LayerCount: 2
Fore
SplineSet
808 -10 m 1xe8
 769 23 700 54 700 182 c 0
 700 214 705 252 715 298 c 1
 619 121 476 1 325 0 c 1
 195 0 79 88 79 225 c 0xe8
 79 241 81 258 84 275 c 1
 130 527 228 869 228 977 c 0
 228 984 228 989 227 994 c 1
 392 1021 l 1
 392 1018 392 1014 392 1011 c 0xd8
 392 912 319 666 251 306 c 1
 248 288 246 270 246 254 c 0
 246 199 267 155 334 155 c 1
 499 155 676 457 771 691 c 1
 840 1028 l 1
 998 1006 l 1
 847 239 l 1
 846 231 845 224 845 217 c 0
 845 160 883 136 913 107 c 1
 808 -10 l 1xe8
EndSplineSet
Validated: 1
EndChar

StartChar: v
Encoding: 118 118 21
Width: 1060
VWidth: 6
Flags: W
HStem: -3 21G<292.5 344> 1028 20G<244.833 301.5>
VStem: 296 153<192 491.041> 872 157<787.016 1011>
LayerCount: 2
Fore
SplineSet
274 1048 m 1
 329 973 340 946 351 871 c 0
 371 751 449 339 449 210 c 0
 449 203 448 197 448 192 c 1
 649 381 854 686 872 1011 c 1
 1029 1015 l 1
 1029 660 770 288 553 71 c 0
 482 0 397 -3 291 -3 c 1
 294 14 296 38 296 66 c 0
 296 266 220 704 192 839 c 0
 188 860 155 927 134 952 c 1
 274 1048 l 1
EndSplineSet
Validated: 1
EndChar

StartChar: w
Encoding: 119 119 22
Width: 1060
Flags: W
HStem: -21 33G<201 297 656.5 737> 1022 20G<192.222 289 945.769 1030>
VStem: 158 156<286.016 1013.68> 527 136<150.852 331 348.108 792.011> 909 154<509.392 968.864>
LayerCount: 2
Fore
SplineSet
122 1006 m 1
 280 1042 l 1
 298 990 314 915 314 795 c 0
 313 553 295 362 253 193 c 1
 354 286 441 391 521 544 c 1
 525 573 527 609 527 647 c 0
 527 697 524 750 519 795 c 1
 647 797 l 1
 658 672 663 542 663 420 c 0
 663 322 659 229 653 147 c 1
 748 262 909 444 909 777 c 0
 909 852 880 943 851 996 c 1
 1005 1048 l 1
 1055 949 1063 847 1063 778 c 0
 1063 394 812 128 662 -9 c 1
 651 -9 516 6 505 6 c 1
 521 107 534 167 535 331 c 1
 475 243 381 148 213 -21 c 1
 189 -13 115 17 87 19 c 1
 113 161 158 512 158 737 c 0
 158 823 143 949 122 1006 c 1
EndSplineSet
Validated: 1
EndChar

StartChar: x
Encoding: 120 120 23
Width: 1060
VWidth: 4
Flags: W
HStem: -18 21G<88.5128 117> 3 153<790.04 877> 1041 20G<301.267 386.5 857 1023>
LayerCount: 2
Fore
SplineSet
953 863 m 0xa0
 886 778 733 595 632 488 c 1
 690 385 784 178 801 165 c 0
 804 162 819 156 853 156 c 0
 871 156 889 159 906 162 c 1
 877 8 l 1
 856 5 834 3 814 3 c 0x60
 774 3 736 15 701 43 c 1
 638 90 571 261 510 379 c 1
 322 184 126 0 108 -18 c 1
 -6 99 l 1
 4 110 241 333 434 521 c 1
 373 639 290 812 192 986 c 1
 341 1061 l 1
 432 891 493 749 552 633 c 1
 641 720 712 807 806 930 c 0
 833 965 850 1002 857 1019 c 1
 1031 1020 l 1
 1015 971 995 914 953 863 c 0xa0
EndSplineSet
Validated: 1
EndChar

StartChar: y
Encoding: 121 121 24
Width: 1060
VWidth: 14
Flags: W
HStem: -376 153<69.9609 274.766> 863 166<127.485 232.137> 1022 20G<863.5 971.381>
LayerCount: 2
Fore
SplineSet
-2 -110 m 1xa0
 22 -141 103 -223 177 -223 c 0
 274 -223 359 -86 411 0 c 1
 383 302 300 845 179 862 c 1
 175 862 172 863 168 863 c 3
 147 863 129 856 128 855 c 1
 115 1023 l 1
 147 1027 171 1029 192 1029 c 0xc0
 218 1029 238 1026 263 1020 c 0
 422 979 515 478 548 183 c 1
 664 406 828 815 899 1042 c 1
 1051 1000 l 1
 964 747 799 293 598 -27 c 0
 442 -275 319 -376 160 -376 c 1
 35 -376 -67 -278 -107 -228 c 1
 -2 -110 l 1xa0
EndSplineSet
Validated: 1
EndChar

StartChar: z
Encoding: 122 122 25
Width: 1060
VWidth: 6
Flags: W
HStem: -5 155<454.22 742.608> 61 154<313 503.186> 863 157<309.315 858>
VStem: 793 152<199.478 274.641>
LayerCount: 2
Fore
SplineSet
289 801 m 1x70
 195 925 l 1
 299 1014 391 1020 493 1020 c 0
 552 1020 722 1020 792 1020 c 0
 842 1020 947 1021 1009 1030 c 1
 1075 886 l 1
 892 680 760 577 578 432 c 0
 501 371 415 302 313 215 c 1x70
 459 215 544 150 629 150 c 0
 729 150 783 218 793 300 c 1
 945 272 l 1
 929 144 837 -5 641 -5 c 1xb0
 498 -4 429 61 287 61 c 0
 182 61 137 21 60 -34 c 1
 -33 94 l 1
 223 339 390 470 541 592 c 0
 647 677 744 757 858 867 c 1
 832 865 805 864 777 864 c 0
 680 864 576 863 481 863 c 0
 420 863 350 859 289 801 c 1x70
EndSplineSet
Validated: 1
EndChar

StartChar: A
Encoding: 65 65 26
Width: 1060
VWidth: 0
Flags: W
HStem: 0 21G<-33 131.5 796.988 969> 332 160<359.395 739> 1281 20G<601.807 785.859>
VStem: -33 162<0 114.376>
LayerCount: 2
Fore
SplineSet
739 495 m 1
 659 1082 l 1
 355 475 l 1
 418 488 474 488 558 492 c 1
 739 495 l 1
800 0 m 2
 750 332 l 1
 608 329 386 327 270 300 c 1
 177 121 l 2
 161 92 134 28 129 0 c 1
 -33 0 l 1
 -27 28 9 116 30 159 c 1
 612 1301 l 1
 783 1301 l 1
 969 0 l 2
 800 0 l 2
EndSplineSet
Validated: 1
EndChar

StartChar: B
Encoding: 66 66 27
Width: 1060
VWidth: 0
Flags: W
HStem: -5 151<206 639.411> 647 156<338 605.732> 1150 149<397.876 685.781>
VStem: 712 162<896.843 1115.17> 794 157<304.544 573.359>
LayerCount: 2
Fore
SplineSet
182 823 m 0xe8
 216 996 244 1158 260 1285 c 1
 342 1291 392 1299 505 1299 c 0
 511 1299 517 1299 523 1299 c 0
 690 1299 874 1236 874 1062 c 0xf0
 874 1043 872 1023 868 1002 c 0
 849 906 822 825 736 767 c 1
 860 722 951 619 951 471 c 0
 951 446 948 420 943 393 c 0
 899 168 774 48 552 3 c 0
 512 -5 470 -5 431 -5 c 0
 346 -5 258 3 150 3 c 2
 14 3 l 1
 52 197 101 407 182 823 c 0xe8
709 992 m 2
 711 1004 712 1015 712 1025 c 0
 712 1134 629 1150 506 1150 c 2
 489 1150 l 2
 450 1150 434 1148 403 1145 c 1
 399 1108 391 1064 382 1017 c 0
 369 950 352 877 338 803 c 1
 529 807 676 825 707 984 c 1
 709 992 l 2
745 578 m 0
 684 639 625 649 530 649 c 0
 481 649 423 647 350 647 c 2
 306 647 l 1
 258 410 222 229 206 153 c 1
 314 153 352 146 427 146 c 0
 467 146 503 148 539 153 c 0
 648 166 760 265 788 409 c 0
 792 429 794 447 794 464 c 0xe8
 794 512 778 546 745 578 c 0
EndSplineSet
Validated: 1
EndChar

StartChar: C
Encoding: 67 67 28
Width: 1060
VWidth: 0
Flags: W
HStem: -3 154<341.487 672.446> 1152 154<565.376 855.378>
VStem: 82 160<261.362 714.952>
LayerCount: 2
Fore
SplineSet
718 1152 m 0
 443 1152 288 766 261 625 c 0
 249 565 242 507 242 453 c 0
 242 361 263 281 313 224 c 0
 364 166 408 151 490 151 c 2
 504 151 l 1
 652 156 752 230 825 342 c 1
 950 266 l 1
 846 111 689 -3 499 -3 c 2
 496 -3 l 2
 385 -3 258 22 182 114 c 1
 116 198 82 303 82 433 c 0
 82 491 89 554 102 623 c 0
 151 877 263 1033 330 1109 c 0
 423 1215 576 1306 751 1306 c 0
 891 1306 1018 1228 1075 1069 c 1
 940 988 l 1
 902 1108 804 1152 718 1152 c 0
EndSplineSet
Validated: 1
EndChar

StartChar: D
Encoding: 68 68 29
Width: 1060
VWidth: 0
Flags: W
HStem: -10 151<183 598.492> 1152 152<375.491 684.326>
VStem: 859 164<461.499 960.578>
LayerCount: 2
Fore
SplineSet
458 1152 m 2
 428 1152 l 2
 412 1152 401 1153 383 1150 c 1
 379 1125 373 1094 367 1064 c 0
 355 1002 340 934 327 866 c 0
 269 566 203 240 183 144 c 1
 270 141 315 141 375 141 c 0
 489 141 675 167 775 346 c 0
 800 391 829 479 839 533 c 0
 852 600 859 669 859 733 c 0
 859 820 846 899 819 954 c 0
 755 1082 679 1152 458 1152 c 2
19 125 m 1
 29 179 112 568 173 883 c 2
 187 957 l 2
 211 1083 231 1205 239 1291 c 1
 322 1299 367 1304 466 1304 c 0
 737 1304 878 1224 966 1045 c 1
 1004 966 1023 867 1023 760 c 0
 1023 698 1016 633 1004 568 c 0
 943 250 816 36 483 -3 c 0
 427 -9 376 -10 321 -10 c 0
 237 -10 105 -3 -9 -3 c 1
 -3 30 -3 29 19 125 c 1
EndSplineSet
Validated: 1
EndChar

StartChar: E
Encoding: 69 69 30
Width: 1060
VWidth: 0
Flags: W
HStem: -3 151<211 834.964> 666 150<344 782> 1144 153<407 1066>
LayerCount: 2
Fore
SplineSet
278 1293 m 1
 335 1297 405 1297 483 1297 c 0
 514 1297 547 1297 581 1297 c 2
 691 1297 l 2
 840 1297 976 1294 1050 1294 c 2
 1066 1294 l 1
 1066 1144 l 1
 407 1144 l 1
 344 816 l 1
 782 816 l 1
 782 666 l 1
 314 666 l 1
 309 636 l 2
 270 433 226 225 211 148 c 1
 730 148 l 2
 786 148 835 168 835 168 c 1
 885 27 l 1
 840 9 796 -3 720 -3 c 2
 26 -3 l 1
 278 1293 l 1
EndSplineSet
Validated: 1
EndChar

StartChar: F
Encoding: 70 70 31
Width: 1060
VWidth: 0
Flags: W
HStem: -1 21G<42 211> 668 150<355 777.348> 1145 153<419 1060.92>
LayerCount: 2
Fore
SplineSet
202 -1 m 1
 42 3 l 1
 293 1298 l 1
 978 1298 l 1
 1054 1295 1100 1280 1131 1263 c 1
 1062 1117 l 1
 1039 1131 1020 1144 922 1145 c 1
 852 1145 l 2
 748 1145 602 1144 419 1143 c 1
 355 815 l 1
 475 815 543 818 665 818 c 0
 753 818 809 804 810 804 c 2
 827 799 l 1
 779 654 l 1
 744 663 694 668 649 668 c 0
 543 668 435 668 326 665 c 1
 302 544 220 92 202 -1 c 1
EndSplineSet
Validated: 1
EndChar

StartChar: G
Encoding: 71 71 32
Width: 1060
VWidth: 0
Flags: W
HStem: -8 155<322.48 676.892> 587 148<495.252 865> 1150 152<497.689 856.617>
VStem: 47 161<260.64 724.391> 933 166<1022.03 1077.08>
LayerCount: 2
Fore
SplineSet
1050 733 m 1
 1035 605 l 2
 984 165 804 49 617 3 c 1
 570 -7 505 -8 463 -8 c 0
 169 -8 47 180 47 436 c 0
 47 497 54 561 67 628 c 0
 113 865 204 1059 360 1186 c 1
 477 1274 596 1302 711 1302 c 2
 731 1302 l 1
 944 1297 1056 1189 1099 1026 c 1
 933 980 l 1
 903 1094 846 1150 691 1150 c 0
 607 1150 544 1144 453 1077 c 0
 324 982 260 789 227 617 c 0
 215 556 208 498 208 445 c 0
 208 271 282 147 504 147 c 0
 715 147 805 275 865 587 c 1
 860 587 855 587 851 587 c 0
 807 587 768 588 729 588 c 0
 654 588 582 583 491 552 c 1
 454 693 l 1
 557 729 662 735 763 735 c 0
 866 735 955 735 1050 733 c 1
EndSplineSet
Validated: 1
EndChar

StartChar: H
Encoding: 72 72 33
Width: 1060
VWidth: 0
Flags: W
HStem: 0 21G<-15 163.5 679 840.888> 625 152<295.082 800> 1276 20G<237 393.088>
LayerCount: 2
Fore
SplineSet
397 1296 m 1
 290 749 l 1
 386 770 482 777 602 777 c 2
 830 777 l 1
 883 1051 898 1129 929 1291 c 1
 1088 1291 l 1
 837 0 l 1
 679 0 l 1
 800 625 l 1
 757 625 714 625 671 625 c 0
 525 625 383 622 260 597 c 1
 193 254 181 181 146 0 c 1
 -15 0 l 1
 237 1294 l 1
 397 1296 l 1
EndSplineSet
Validated: 1
EndChar

StartChar: K
Encoding: 75 75 34
Width: 1060
VWidth: 0
Flags: W
HStem: -5 9G<40 202.255 777.5 852.4> 1288 20G<291.116 453 1029.5 1055.85>
VStem: 790 156<28.4051 86.5903>
LayerCount: 2
Fore
SplineSet
554 705 m 1
 651 588 921 168 946 33 c 1
 790 -17 l 1
 765 92 541 461 435 587 c 1
 435 587 332 489 288 418 c 1
 198 -5 l 1
 40 -5 l 1
 295 1308 l 1
 453 1308 l 1
 336 703 l 1
 438 814 524 893 643 996 c 1
 872 1191 1017 1289 1042 1310 c 1
 1132 1180 l 1
 924 1048 628 778 554 705 c 1
EndSplineSet
Validated: 1
EndChar

StartChar: L
Encoding: 76 76 35
Width: 1060
VWidth: 0
Flags: W
HStem: -3 154<256 877.834> 1278 20G<314.111 479>
LayerCount: 2
Fore
SplineSet
65 -3 m 1
 318 1298 l 1
 479 1298 l 1
 256 151 l 1
 777 151 l 1
 837 154 833 155 880 170 c 1
 934 28 l 1
 876 0 824 -3 749 -3 c 2
 65 -3 l 1
EndSplineSet
Validated: 1
EndChar

StartChar: M
Encoding: 77 77 36
Width: 1060
VWidth: 31
Flags: W
HStem: -5 21G<-14 147.851 655 815.873>
VStem: 235 155<1217.33 1291>
LayerCount: 2
Fore
SplineSet
235 1292 m 1
 390 1291 l 1
 409 1142 439 1062 477 938 c 0
 500 861 526 797 538 759 c 1
 651 914 826 1146 906 1291 c 1
 1063 1291 l 1
 812 -5 l 1
 655 -5 l 1
 833 910 l 1
 732 769 585 575 567 539 c 1
 445 542 l 1
 440 558 394 677 339 846 c 1
 327 890 330 881 320 909 c 1
 144 -5 l 1
 -14 -5 l 1
 235 1292 l 1
EndSplineSet
Validated: 1
EndChar

StartChar: N
Encoding: 78 78 37
Width: 1060
VWidth: 0
Flags: W
HStem: -3 18G<-1 173 629 835> 1278 19G<248.111 411 918 1093>
VStem: 676 159<-5 157.392>
LayerCount: 2
Fore
SplineSet
676 -6 m 1
 582 351 486 648 353 1001 c 1
 313 797 l 2
 256 504 188 149 158 -3 c 1
 -1 -3 l 1
 252 1298 l 1
 411 1294 l 1
 501 1110 678 605 747 357 c 1
 770 487 796 623 822 757 c 0
 858 943 897 1126 939 1297 c 1
 1093 1297 l 1
 1065 1184 1035 1035 1003 872 c 0
 959 646 913 392 868 162 c 0
 857 105 845 48 835 -5 c 1
 676 -6 l 1
EndSplineSet
Validated: 1
EndChar

StartChar: O
Encoding: 79 79 38
Width: 1060
VWidth: 0
Flags: W
HStem: -13 153<291.462 584.667> 1173 153<510.265 784.235>
VStem: 43 162<227.749 691.372> 869 158<555.722 1070.95>
LayerCount: 2
Fore
SplineSet
687 1326 m 1
 792 1326 1027 1273 1027 882 c 0
 1027 811 1020 730 1002 635 c 1
 1000 624 l 2
 968 460 895 307 829 214 c 0
 726 70 579 -13 414 -13 c 0
 292 -13 174 30 112 130 c 0
 66 203 43 295 43 402 c 0
 43 455 48 512 60 572 c 0
 127 917 233 1066 321 1161 c 0
 404 1251 530 1323 687 1326 c 1
239 245 m 0
 275 180 336 140 444 140 c 0
 532 140 646 207 707 290 c 1
 759 354 821 520 843 627 c 1
 847 646 l 2
 859 711 869 789 869 862 c 0
 869 918 863 972 849 1017 c 0
 813 1131 751 1173 663 1173 c 0
 595 1173 506 1145 433 1069 c 0
 347 980 270 838 219 576 c 0
 210 532 205 478 205 426 c 0
 205 355 215 287 239 245 c 0
EndSplineSet
Validated: 1
EndChar

StartChar: P
Encoding: 80 80 39
Width: 1060
VWidth: 0
Flags: W
HStem: -10 21G<27 200> 460 152<307 690.213> 1151 151<412 831.874>
VStem: 892 165<796.778 1094.68>
LayerCount: 2
Fore
SplineSet
884 900 m 0
 889 927 892 951 892 973 c 0
 892 1134 777 1146 564 1151 c 1
 503 1151 457 1147 412 1146 c 1
 387 1020 l 2
 351 837 307 613 307 613 c 1
 343 612 377 612 410 612 c 0
 656 612 840 672 884 900 c 0
185 -10 m 1
 27 -9 l 1
 281 1294 l 1
 399 1294 438 1302 571 1302 c 0
 796 1302 933 1289 1021 1151 c 0
 1047 1110 1057 1060 1057 1006 c 0
 1057 974 1053 940 1047 906 c 0
 1029 815 1002 715 925 628 c 0
 800 488 669 460 430 460 c 0
 382 460 332 461 278 463 c 1
 227 200 215 146 185 -10 c 1
EndSplineSet
Validated: 1
EndChar

StartChar: Q
Encoding: 81 81 40
Width: 1060
VWidth: 0
Flags: W
HStem: -131 151<703.438 893> -3 147<344.742 550.078> 281 149<371.712 547.087> 1152 153<508.261 775.315>
VStem: 73 164<291.11 722.492> 864 160<577.513 1057.02>
LayerCount: 2
Fore
SplineSet
789 -131 m 0xbc
 674 -131 552 -112 551 15 c 1
 508 4 465 -3 425 -3 c 0x7c
 309 -3 210 40 147 121 c 0
 97 186 73 283 73 401 c 0
 73 470 81 547 97 629 c 0
 137 836 204 1028 323 1150 c 0
 439 1270 545 1305 668 1305 c 0
 835 1305 938 1240 990 1099 c 0
 1015 1030 1024 960 1024 894 c 0
 1024 577 901 230 698 97 c 1
 698 94 698 91 698 88 c 0
 698 24 730 21 807 20 c 1
 818 20 l 2
 855 20 879 24 904 30 c 1
 893 -126 l 1
 870 -131 834 -131 789 -131 c 0xbc
489 430 m 0
 608 430 680 380 695 286 c 1
 787 457 864 639 864 874 c 0
 864 923 857 974 838 1023 c 0
 807 1100 737 1152 636 1152 c 0
 455 1152 308 897 268 691 c 0
 255 622 237 530 237 432 c 0
 237 384 241 335 252 288 c 1
 307 401 441 430 489 430 c 0
553 166 m 1
 553 174 554 181 554 188 c 0
 554 255 534 281 468 281 c 0
 410 281 354 239 343 183 c 0
 343 182 342 181 342 180 c 0
 363 153 405 144 443 144 c 0
 474 144 514 151 553 166 c 1
EndSplineSet
Validated: 1
EndChar

StartChar: R
Encoding: 82 82 41
Width: 1060
VWidth: 0
Flags: W
HStem: 0 5G<15 176.845 863 902.515> 567 152<312 498.259> 1150 153<393 776.317>
VStem: 876 159<790.734 1062>
LayerCount: 2
Fore
SplineSet
682 540 m 1
 736 418 845 241 888 176 c 1
 903 160 927 127 967 116 c 1
 891 -16 l 1
 835 -7 788 30 762 72 c 1
 686 179 540 440 502 534 c 1
 422 542 355 554 282 567 c 1
 173 0 l 1
 15 0 l 1
 231 1113 l 2
 244 1180 252 1227 260 1288 c 1
 303 1292 420 1303 481 1303 c 0
 731 1303 897 1289 990 1139 c 0
 1018 1095 1035 1035 1035 972 c 0
 1035 951 1033 930 1029 909 c 0
 986 689 888 566 682 540 c 1
871 895 m 0
 874 912 876 929 876 945 c 0
 876 981 867 1015 844 1048 c 0
 792 1126 681 1150 457 1150 c 0
 431 1150 422 1150 393 1149 c 1
 312 719 l 1
 408 701 482 684 564 684 c 0
 735 684 839 726 871 895 c 0
EndSplineSet
Validated: 1
EndChar

StartChar: S
Encoding: 83 83 42
Width: 1060
VWidth: 0
Flags: W
HStem: -9 151<278.089 640.798> 1051 21G<938.5 979.941> 1148 154<449.685 881.998>
VStem: 4 162<240.514 319> 182 171<864.58 1065.2> 793 164<281.674 547.404>
LayerCount: 2
Fore
SplineSet
166 358 m 0
 166 238 272 142 461 142 c 0
 674 142 793 277 793 429 c 0
 793 508 750 561 690 589 c 0
 584 639 431 649 310 709 c 1
 240 745 182 815 182 923 c 0
 182 1187 425 1302 648 1302 c 0
 856 1302 997 1257 1066 1204 c 1
 967 1051 l 1
 910 1102 808 1148 623 1148 c 0
 479 1148 353 1072 353 959 c 0
 353 900 380 869 423 847 c 0
 529 791 686 792 806 732 c 1
 888 688 957 599 957 468 c 0
 957 130 694 -9 444 -9 c 2
 425 -9 l 1
 134 -2 4 147 4 319 c 0
 166 358 l 0
EndSplineSet
Validated: 1
EndChar

StartChar: T
Encoding: 84 84 43
Width: 1060
VWidth: 0
Flags: W
HStem: -9 21G<326 489.886> 1144 155<216 550 710 1054.96>
LayerCount: 2
Fore
SplineSet
326 -9 m 1
 550 1144 l 1
 352 1144 262 1143 186 1143 c 1
 216 1298 l 1
 338 1298 793 1299 981 1299 c 0
 1054 1299 1101 1287 1118 1284 c 1
 1055 1132 l 1
 1055 1132 995 1144 945 1144 c 2
 710 1144 l 1
 486 -9 l 1
 326 -9 l 1
EndSplineSet
Validated: 1
EndChar

StartChar: U
Encoding: 85 85 44
Width: 1060
VWidth: 0
Flags: W
HStem: -10 151<294.595 604.685> 1293 9G<229.5 406 946 1111>
VStem: 70 162<205.789 657.284> 957 154<1148.03 1301.21>
LayerCount: 2
Fore
SplineSet
957 1313 m 1
 1111 1300 l 1
 1090 1240 1082 1197 1072 1143 c 0
 1044 998 1022 871 1000 760 c 2
 988 702 l 2
 943 470 896 248 759 119 c 0
 659 24 545 -5 415 -10 c 1
 159 -10 70 106 70 312 c 0
 70 354 73 398 80 447 c 0
 90 522 111 644 137 779 c 0
 170 951 211 1144 248 1302 c 1
 406 1302 l 1
 370 1137 323 913 287 728 c 0
 263 605 244 499 237 439 c 0
 234 412 232 386 232 363 c 0
 232 208 299 141 431 141 c 1
 538 146 595 169 660 225 c 1
 741 299 792 505 830 702 c 0
 854 825 878 971 911 1141 c 0
 925 1212 935 1251 957 1313 c 1
EndSplineSet
Validated: 1
EndChar

StartChar: V
Encoding: 86 86 45
Width: 1060
VWidth: 0
Flags: W
HStem: -5 21G<337.5 498>
VStem: 183 162<1102.2 1290.69>
LayerCount: 2
Fore
SplineSet
337 -5 m 1
 338 5 338 17 338 31 c 0
 338 277 231 1075 183 1286 c 1
 345 1339 l 1
 397 1087 450 723 476 355 c 1
 611 669 865 1093 1014 1341 c 1
 1160 1258 l 1
 1017 1027 555 196 498 -4 c 1
 337 -5 l 1
EndSplineSet
Validated: 1
EndChar

StartChar: W
Encoding: 87 87 46
Width: 1060
VWidth: 0
Flags: W
HStem: 0 21G<125.5 263 622.017 794> 1298 20G<241 338.5 918.5 1143.38>
VStem: 181 160<825.827 1286> 565 147<310.009 613> 624 136<0 111.641>
LayerCount: 2
Back
SplineSet
521 613 m 5
 568 388 702 22 710 0 c 5
 841 0 l 5
 884 170 990 1035 1036 1286 c 5
 882 1318 l 5
 761.5 675.2 796 608 752 298 c 5
 682 528 613 886 607 957 c 1029
EndSplineSet
Fore
SplineSet
257 0 m 1xf0
 126 0 l 1
 125 13 125 29 125 49 c 0
 125 295 178 1054 181 1286 c 1
 341 1318 l 1
 336 675 289 608 273 298 c 1
 388 528 526 886 546 957 c 1
 591 957 679 957 715 969 c 1
 715 880 712 769 712 657 c 0xf0
 712 528 715 399 727 300 c 1
 815 585 788 624 1049 1315 c 1
 1200 1283 l 1
 1099 1032 828 178 760 0 c 1
 624 0 l 1xe8
 624 0 565 403 565 595 c 0
 565 601 565 607 565 613 c 1
 474 388 269 22 257 0 c 1xf0
EndSplineSet
Validated: 1
EndChar

StartChar: X
Encoding: 88 88 47
Width: 1060
VWidth: 0
Flags: W
LayerCount: 2
Fore
SplineSet
979 1340 m 1
 1110 1249 l 1
 623 633 l 1
 742 366 808 200 923 63 c 1
 788 -30 l 1
 665 117 616 255 511 497 c 1
 88 -42 l 1
 -37 54 l 1
 432 654 l 1
 352 858 283 1092 173 1248 c 1
 329 1331 l 1
 431 1185 485 971 555 799 c 1
 979 1340 l 1
EndSplineSet
Validated: 1
EndChar

StartChar: Y
Encoding: 89 89 48
Width: 1060
VWidth: 0
Flags: W
HStem: 1294 20G<301.965 374>
LayerCount: 2
Fore
SplineSet
296 42 m 1
 566 524 l 1
 509 635 232 1151 202 1257 c 1
 356 1314 l 1
 392 1224 590 839 666 693 c 1
 713 805 953 1235 985 1339 c 1
 1135 1280 l 1
 910 815 674 386 445 -32 c 1
 296 42 l 1
EndSplineSet
Validated: 1
EndChar

StartChar: Z
Encoding: 90 90 49
Width: 1060
VWidth: 0
Flags: W
HStem: -3 154<217 873.938> 1150 152<237 904>
LayerCount: 2
Fore
SplineSet
47 -5 m 1
 -31 83 l 1
 904 1150 l 1
 690 1150 351 1145 237 1145 c 1
 236 1298 l 1
 356 1298 808 1302 996 1302 c 0
 1071 1302 1115 1289 1133 1286 c 1
 1124 1253 1096 1172 1088 1149 c 1
 217 151 l 1
 704 150 l 2
 789 150 832 154 876 177 c 1
 926 44 l 1
 881 11 808 -3 733 -3 c 2
 490 -3 l 2
 278 -3 102 -5 54 -5 c 2
 47 -5 l 1
EndSplineSet
Validated: 1
EndChar

StartChar: I
Encoding: 73 73 50
Width: 1060
VWidth: 0
Flags: W
HStem: 4 147<108 376 537 774> 1144 154<329 571 731 997>
LayerCount: 2
Fore
SplineSet
329 1298 m 1
 486 1302 567 1302 663 1302 c 0
 768 1302 864 1301 1027 1299 c 1
 997 1147 l 1
 874 1147 827 1152 731 1152 c 1
 537 152 l 1
 583 152 609 153 660 153 c 0
 705 153 752 152 803 149 c 1
 774 -1 l 1
 690 4 628 5 565 5 c 0
 518 5 469 4 410 4 c 0
 336 4 234 -3 79 -3 c 1
 108 146 l 1
 194 150 244 151 301 151 c 2
 376 151 l 1
 571 1151 l 1
 505 1150 412 1150 305 1144 c 1
 329 1298 l 1
EndSplineSet
Validated: 1
EndChar

StartChar: J
Encoding: 74 74 51
Width: 1060
VWidth: 0
Flags: W
HStem: -8 150<249.484 492.528> 1145 157<376.969 752>
VStem: 36 165<190.346 423.836>
LayerCount: 2
Fore
SplineSet
337 -8 m 0
 114 -8 36 136 36 305 c 0
 36 344 40 385 48 426 c 1
 208 425 l 1
 203 395 201 366 201 338 c 0
 201 227 243 142 365 142 c 0
 551 142 621 327 686 659 c 0
 704 754 737 1007 752 1144 c 1
 703 1144 558 1145 521 1145 c 1
 459 1144 417 1136 375 1127 c 1
 349 1280 l 1
 380 1287 430 1299 549 1302 c 1
 694 1302 779 1302 935 1302 c 1
 917 1145 l 1
 898 967 865 765 841 642 c 0
 772 288 667 -8 337 -8 c 0
EndSplineSet
Validated: 1
EndChar

StartChar: zero
Encoding: 48 48 52
Width: 1060
VWidth: 0
Flags: W
HStem: -16 153<341.993 562.782> 1155 153<525.635 734.285>
VStem: 131 162<455 688.563>
LayerCount: 2
Fore
SplineSet
293 455 m 1
 779 953 l 1
 767 1053 751 1155 641 1155 c 0
 442 1155 350 811 309 598 c 0
 299 548 294 479 293 455 c 1
790 818 m 1
 301 317 l 1
 309 222 334 137 445 137 c 0
 652 137 726 460 769 679 c 0
 779 728 786 777 790 818 c 1
669 1308 m 0
 883 1308 949 1134 949 927 c 0
 949 840 937 748 920 660 c 0
 861 358 733 -16 415 -16 c 0
 200 -16 131 153 131 361 c 0
 131 443 141 530 158 616 c 0
 217 920 366 1308 669 1308 c 0
EndSplineSet
Validated: 1
EndChar

StartChar: period
Encoding: 46 46 53
Width: 1060
VWidth: 26
Flags: W
HStem: 0 269<374 573>
VStem: 322 303
LayerCount: 2
Fore
SplineSet
374 269 m 1
 625 269 l 1
 573 0 l 1
 322 0 l 1
 374 269 l 1
EndSplineSet
Validated: 1
EndChar

StartChar: comma
Encoding: 44 44 54
Width: 1060
VWidth: 26
Flags: W
HStem: -393 667
VStem: 223 408
LayerCount: 2
Fore
SplineSet
379 274 m 1
 631 274 l 1
 586 11 l 1
 586 8 l 2
 548 -189 439 -317 257 -393 c 1
 223 -254 l 1
 325 -203 388 -133 415 5 c 1
 327 5 l 1
 379 274 l 1
EndSplineSet
Validated: 1
EndChar

StartChar: ae
Encoding: 230 230 65
Width: 1060
VWidth: 6
Flags: W
HStem: -8 152<194.367 355.276 629.321 812.113> 543 144<293.093 430.485> 889 145<309.062 504.618 788.056 946.206>
VStem: 33 152<147.529 404.387> 963 146<654.073 874.486>
LayerCount: 2
Fore
SplineSet
145 894 m 1
 263 986 368 1034 450 1034 c 0
 581 1034 617 964 641 868 c 1
 718 964 813 1033 904 1033 c 0
 1084 1033 1109 886 1109 776 c 0
 1109 664 1040 571 976 504 c 0
 886 411 741 356 597 345 c 1
 597 342 597 338 597 334 c 0
 597 262 617 145 695 145 c 0
 783 145 824 196 873 250 c 1
 975 141 l 1
 925 96 831 -8 661 -8 c 0
 564 -8 512 41 486 120 c 1
 438 54 371 -8 215 -8 c 0
 109 -8 33 71 33 241 c 0
 33 434 165 687 397 687 c 0
 448 687 502 634 506 618 c 1
 506 618 528 696 528 738 c 0
 528 832 504 889 424 889 c 0
 370 889 301 846 225 784 c 1
 145 894 l 1
185 244 m 0
 185 171 217 144 244 144 c 0
 416 144 449 379 464 430 c 1
 455 464 413 543 377 543 c 0
 273 543 185 344 185 244 c 0
613 496 m 1
 728 504 813 542 880 610 c 0
 924 655 963 706 963 774 c 0
 963 814 955 886 875 886 c 0
 793 886 662 747 613 496 c 1
EndSplineSet
Validated: 1
EndChar

StartChar: exclam
Encoding: 33 33 68
Width: 1060
VWidth: 0
Flags: W
HStem: 0 270<365 563> 1299 20G<592.441 794>
VStem: 313 481
LayerCount: 2
Fore
SplineSet
794 1319 m 5
 604 433 l 5
 438 431 l 5
 596 1319 l 5
 794 1319 l 5
365 270 m 5
 615 270 l 5
 563 0 l 5
 313 0 l 5
 365 270 l 5
EndSplineSet
Validated: 1
EndChar

StartChar: quotesingle
Encoding: 39 39 70
Width: 1060
VWidth: -25
Flags: W
HStem: 788 676
VStem: 473 150<820.559 915.86>
LayerCount: 2
Fore
SplineSet
584 1464 m 1
 795 1433 l 1
 740 1150 696 989 623 788 c 1
 473 824 l 1
 508 921 546 1072 546 1197 c 0
 546 1218 545 1238 544 1258 c 1
 584 1464 l 1
EndSplineSet
Validated: 1
EndChar

StartChar: Aring
Encoding: 197 197 76
Width: 1060
VWidth: -8
Flags: W
HStem: 0 21G<-33 131.5 796.988 969> 332 160<359.395 739> 1521 124<666.277 825.181>
VStem: -33 162<0 114.376> 521 132<1385.55 1505.47> 827 133<1396.76 1515.69>
LayerCount: 2
Fore
SplineSet
739 495 m 1
 659 1082 l 1
 355 475 l 1
 418 488 474 488 558 492 c 1
 739 495 l 1
654 1452 m 0
 653 1449 653 1445 653 1442 c 0
 653 1410 681 1380 727 1380 c 0
 778 1380 819 1417 826 1452 c 0
 827 1456 827 1459 827 1463 c 0
 827 1494 801 1521 754 1521 c 0
 702 1521 661 1487 654 1452 c 0
524 1450 m 0
 546 1561 664 1645 779 1645 c 0
 882 1645 960 1578 960 1485 c 0
 960 1474 959 1462 957 1450 c 0
 940 1367 871 1298 788 1269 c 1
 969 0 l 1
 800 0 l 1
 750 332 l 1
 608 329 386 327 270 300 c 1
 177 121 l 2
 161 92 134 28 129 0 c 1
 -33 0 l 1
 -27 28 9 116 30 159 c 2
 601 1280 l 1
 552 1308 521 1357 521 1416 c 0
 521 1427 522 1438 524 1450 c 0
EndSplineSet
Validated: 1
EndChar

StartChar: ccedilla
Encoding: 231 231 81
Width: 1060
VWidth: 12
Flags: W
HStem: -407 125<236.312 452.869> -7 157<474.653 698.022> 865 153<437.259 784.084>
VStem: 77 165<226.52 621.773> 460 138<-270.877 -173.195>
LayerCount: 2
Fore
SplineSet
257 527 m 0
 247 474 242 428 242 389 c 0
 242 155 407 150 501 150 c 2
 514 150 l 2
 670 150 758 215 827 302 c 1
 935 211 l 1
 894 169 767 -7 488 -7 c 0
 487 -7 485 -7 484 -7 c 1
 479 -28 472 -66 471 -68 c 1
 552 -72 598 -117 598 -194 c 0
 598 -208 596 -223 593 -239 c 0
 573 -340 460 -407 376 -407 c 0
 310 -407 243 -382 194 -346 c 1
 253 -240 l 1
 283 -258 318 -282 369 -282 c 0
 405 -282 450 -262 460 -224 c 1
 460 -222 l 2
 460 -220 461 -217 461 -215 c 0
 461 -189 429 -168 385 -168 c 0
 337 -168 334 -175 304 -185 c 1
 340 3 l 1
 340 3 261 9 180 73 c 0
 102 134 77 230 77 342 c 0
 77 398 85 460 98 527 c 0
 169 894 372 1018 687 1018 c 0
 782 1018 851 994 902 948 c 0
 954 901 973 841 985 789 c 1
 820 729 l 1
 817 770 806 865 646 865 c 0
 425 865 303 766 257 527 c 0
EndSplineSet
Validated: 1
EndChar

StartChar: AE
Encoding: 198 198 82
Width: 1060
VWidth: 0
Flags: W
HStem: 0 147<596 961.952> 347 143<299.606 478> 666 150<665 935> 1144 151<702 1107>
LayerCount: 2
Fore
SplineSet
478 347 m 1
 316 342 235 322 235 322 c 1
 145 121 l 2
 132 91 102 28 97 0 c 1
 -65 0 l 1
 -59 28 -22 116 -2 159 c 2
 531 1293 l 1
 593 1295 704 1295 801 1295 c 0
 958 1295 1040 1294 1137 1294 c 1
 1107 1144 l 1
 702 1144 l 1
 665 816 l 1
 965 816 l 1
 935 666 l 1
 654 666 l 1
 596 147 l 1
 840 149 l 2
 896 149 962 175 962 175 c 1
 977 27 l 1
 927 14 890 -3 818 -3 c 0
 816 -3 814 -3 812 -3 c 2
 434 0 l 1
 478 347 l 1
495 490 m 1
 562 1094 l 1
 298 475 l 1
 298 475 370 488 495 490 c 1
EndSplineSet
Validated: 1
EndChar

StartChar: Ccedilla
Encoding: 199 199 83
Width: 1060
VWidth: 6
Flags: W
HStem: -387 125<244.312 460.869> -3 154<482.422 672.446> 1152 154<565.376 855.378>
VStem: 82 160<261.362 714.952> 468 138<-250.877 -153.195>
LayerCount: 2
Fore
SplineSet
718 1152 m 0
 443 1152 288 766 261 625 c 0
 249 565 242 507 242 453 c 0
 242 361 263 281 313 224 c 0
 364 166 408 151 490 151 c 2
 504 151 l 1
 652 156 752 230 825 342 c 1
 950 266 l 1
 846 111 689 -3 499 -3 c 2
 496 -3 l 2
 493 -3 491 -3 488 -3 c 1
 484 -23 480 -46 479 -48 c 1
 560 -52 606 -97 606 -174 c 0
 606 -188 604 -203 601 -219 c 0
 581 -320 468 -387 384 -387 c 0
 318 -387 251 -362 202 -326 c 1
 261 -220 l 1
 291 -238 326 -262 377 -262 c 0
 413 -262 458 -242 468 -204 c 1
 468 -202 l 2
 468 -200 469 -197 469 -195 c 0
 469 -169 437 -148 393 -148 c 0
 345 -148 342 -155 312 -165 c 1
 346 15 l 1
 283 32 225 62 182 114 c 1
 116 198 82 303 82 433 c 0
 82 491 89 554 102 623 c 0
 151 877 263 1033 330 1109 c 0
 423 1215 576 1306 751 1306 c 0
 891 1306 1018 1228 1075 1069 c 1
 940 988 l 1
 902 1108 804 1152 718 1152 c 0
EndSplineSet
Validated: 1
EndChar

StartChar: quotedbl
Encoding: 34 34 92
Width: 1060
VWidth: -25
Flags: W
HStem: 798 666
VStem: 333 667
LayerCount: 2
Fore
SplineSet
815 1464 m 1
 1000 1426 l 1
 945 1143 901 999 828 798 c 1
 704 834 l 1
 740 932 777 1072 777 1197 c 0
 777 1218 776 1238 775 1258 c 1
 815 1464 l 1
444 1464 m 1
 629 1426 l 1
 574 1143 530 999 457 798 c 1
 333 834 l 1
 369 932 406 1072 406 1197 c 0
 406 1218 405 1238 404 1258 c 1
 444 1464 l 1
EndSplineSet
Validated: 1
EndChar

StartChar: numbersign
Encoding: 35 35 93
Width: 1060
VWidth: 6
Flags: W
HStem: -19 21G<94 267.464 430 610.5> 385 158<79.4172 206 421 550 753 900> 795 160<166.791 334 546 679 881 985> 1306 20G<827 1010>
VStem: 485 162<1157.32 1331>
LayerCount: 2
Fore
SplineSet
497 795 m 1
 475 715 446 623 421 541 c 1
 462 543 494 543 528 543 c 2
 602 543 l 1
 629 627 655 720 679 798 c 1
 608 798 565 796 497 795 c 1
262 -19 m 1
 94 -18 l 1
 123 95 155 208 206 375 c 1
 153 374 108 365 78 356 c 1
 57 503 l 1
 117 523 190 529 257 534 c 1
 289 614 310 711 334 790 c 1
 320 790 l 1
 254 786 203 781 165 768 c 1
 141 915 l 1
 211 940 302 944 387 949 c 1
 445 1133 450 1191 485 1331 c 1
 514 1331 559 1332 597 1332 c 0
 616 1332 633 1332 647 1331 c 1
 616 1210 589 1099 546 955 c 1
 728 955 l 1
 779 1118 806 1207 848 1326 c 1
 1010 1324 l 1
 961 1203 931 1114 881 956 c 1
 1016 956 l 1
 985 795 l 1
 957 796 924 799 832 799 c 1
 809 720 780 629 753 544 c 1
 932 544 l 1
 900 383 l 1
 873 384 824 386 710 386 c 1
 650 189 627 99 594 -22 c 1
 430 -21 l 1
 463 91 496 209 550 385 c 1
 526 385 l 2
 472 385 422 383 371 380 c 1
 327 230 262 -19 262 -19 c 1
EndSplineSet
Validated: 1
EndChar

StartChar: dollar
Encoding: 36 36 94
Width: 1060
VWidth: 0
Flags: W
HStem: 65 152<271.375 326 526 707.151> 1121 154<408.356 611 812 852.66>
VStem: 61 161<266.746 439> 182 163<870.66 1058.42> 795 165<307.048 549.74>
LayerCount: 2
Fore
SplineSet
310 709 m 1xe8
 240 745 182 815 182 923 c 0xd8
 182 943 185 966 189 989 c 0
 228 1188 432 1275 643 1275 c 0
 646 1275 649 1275 652 1275 c 1
 707 1510 l 1
 879 1496 l 1
 812 1264 l 1
 937 1244 1055 1163 1086 1046 c 1
 932 969 l 1
 917 1057 839 1093 769 1108 c 1
 680 775 l 1
 724 765 767 752 806 732 c 1
 889 688 960 611 960 483 c 0
 960 459 957 433 952 406 c 0
 902 148 687 61 485 54 c 1
 429 -176 l 1
 253 -162 l 1
 326 65 l 1
 150 100 61 194 61 347 c 0
 61 376 64 406 70 439 c 1
 228 439 l 1
 224 417 222 398 222 380 c 0
 222 285 278 239 367 217 c 1
 484 651 l 1
 425 666 364 682 310 709 c 1xe8
611 1121 m 1
 480 1120 368 1090 349 994 c 0
 347 981 345 970 345 959 c 0
 345 900 380 869 423 847 c 0
 454 831 489 819 526 810 c 1
 611 1121 l 1
526 207 m 1
 671 216 765 269 790 398 c 0
 793 415 795 431 795 445 c 0
 795 521 751 560 690 589 c 0
 673 597 655 604 636 611 c 1
 526 207 l 1
EndSplineSet
Validated: 1
EndChar

StartChar: oe
Encoding: 339 339 95
Width: 1060
VWidth: 6
Flags: W
HStem: 0 154<201.656 365.052 569.176 756.871> 863 154<340.549 498.571 688.68 862.148>
VStem: 20 157<182.145 574.478> 876 149<619.735 850.383>
LayerCount: 2
Fore
SplineSet
931 187 m 1
 931 187 864 0 633 0 c 0
 541 0 482 35 440 90 c 1
 410 58 360 0 261 0 c 0
 205 0 137 5 74 91 c 0
 32 148 20 224 20 294 c 0
 20 360 31 421 38 459 c 0
 47 505 63 585 83 635 c 1
 128 757 219 1017 446 1017 c 0
 447 1017 449 1017 450 1017 c 0
 529 1016 562 990 596 954 c 0
 605 945 611 937 615 931 c 1
 645 968 699 1016 814 1018 c 0
 815 1018 816 1018 817 1018 c 0
 944 1018 1025 917 1025 774 c 0
 1025 537 812 366 572 306 c 1
 553 215 l 1
 584 176 628 154 667 154 c 0
 734 154 783 221 806 256 c 1
 931 187 l 1
640 652 m 2
 607 480 l 1
 764 504 876 639 876 744 c 0
 876 826 846 862 784 862 c 0
 744 862 702 851 680 805 c 1
 662 770 650 703 640 652 c 2
285 154 m 0
 337 154 403 227 414 286 c 2
 507 754 l 2
 508 758 509 765 509 773 c 0
 509 806 496 863 421 863 c 0
 327 863 237 687 193 474 c 0
 192 468 191 462 190 456 c 0
 183 422 177 376 177 330 c 0
 177 281 184 231 203 191 c 0
 216 164 252 154 285 154 c 0
EndSplineSet
Validated: 1
EndChar

StartChar: bracketleft
Encoding: 91 91 96
Width: 1060
VWidth: 66
Flags: W
HStem: -259 162<417 762.081> 1316 154<693 1057>
LayerCount: 2
Fore
SplineSet
1057 1483 m 1
 1059 1329 l 1
 956 1320 861 1320 693 1316 c 1
 417 -101 l 1
 514 -98 619 -97 638 -97 c 2
 651 -97 l 2
 714 -97 779 -103 792 -106 c 1
 761 -268 l 1
 737 -265 698 -259 627 -259 c 0
 568 -259 321 -264 228 -264 c 1
 263 -86 280 -3 315 177 c 0
 332 267 355 388 389 567 c 0
 423 742 456 918 481 1049 c 2
 563 1470 l 1
 656 1470 901 1477 952 1477 c 1
 1025 1480 1034 1481 1057 1483 c 1
EndSplineSet
Validated: 1
EndChar

StartChar: bracketright
Encoding: 93 93 97
Width: 1060
VWidth: 66
Flags: W
HStem: -259 162<59 436> 1329 154<406.228 712>
LayerCount: 2
Fore
SplineSet
412 1483 m 1
 435 1481 444 1480 515 1477 c 1
 566 1477 809 1470 902 1470 c 1
 820 1049 l 2
 795 918 758 742 724 567 c 0
 688 388 663 267 646 177 c 0
 611 -3 598 -86 563 -264 c 1
 470 -264 225 -259 166 -259 c 0
 95 -259 54 -265 28 -268 c 1
 59 -106 l 1
 74 -103 141 -97 204 -97 c 2
 217 -97 l 2
 236 -97 341 -98 436 -101 c 1
 712 1316 l 1
 546 1320 449 1320 350 1329 c 1
 412 1483 l 1
EndSplineSet
Validated: 1
EndChar

StartChar: parenleft
Encoding: 40 40 98
Width: 1060
VWidth: 66
Flags: W
HStem: -262 166<622.627 766> 1326 158<869.214 1076>
VStem: 265 166<130.412 739.709>
LayerCount: 2
Fore
SplineSet
1076 1326 m 1
 1073 1326 1070 1326 1067 1326 c 0
 690 1326 431 899 431 404 c 0
 431 88 558 -95 798 -96 c 1
 766 -262 l 1
 469 -260 265 0 265 347 c 0
 265 1060 623 1470 1106 1484 c 1
 1076 1326 l 1
EndSplineSet
Validated: 1
EndChar

StartChar: parenright
Encoding: 41 41 99
Width: 1060
VWidth: 66
Flags: W
HStem: -262 166<53 218.937> 1326 158<359 519.718>
VStem: 701 165<552.704 1128.45>
LayerCount: 2
Fore
SplineSet
329 1326 m 1
 359 1484 l 1
 701 1474 866 1222 866 907 c 0
 866 193 448 -258 21 -262 c 1
 53 -96 l 1
 413 -95 701 406 701 865 c 0
 701 1153 599 1326 338 1326 c 0
 335 1326 332 1326 329 1326 c 1
EndSplineSet
Validated: 1
EndChar

StartChar: hyphen
Encoding: 45 45 100
Width: 1060
VWidth: 6
Flags: W
HStem: 443 160<145 954>
LayerCount: 2
Fore
SplineSet
145 603 m 5
 983 602 l 5
 954 443 l 5
 121 443 l 5
 145 603 l 5
EndSplineSet
Validated: 1
EndChar

StartChar: plus
Encoding: 43 43 101
Width: 1060
VWidth: 6
Flags: W
HStem: 443 155<100 447 635 983> 1004 20G<559.123 717>
LayerCount: 2
Fore
SplineSet
100 589 m 1
 160 600 228 601 321 601 c 0
 367 601 420 601 481 601 c 1
 563 1024 l 1
 717 1023 l 1
 710 982 698 922 686 859 c 0
 662 734 635 600 635 600 c 1
 761 598 867 598 930 598 c 0
 957 598 986 598 1013 598 c 1
 983 443 l 1
 968 443 l 2
 962 443 817 443 608 446 c 1
 526 20 l 1
 365 22 l 1
 447 445 l 1
 248 445 140 444 70 434 c 1
 100 589 l 1
EndSplineSet
Validated: 1
EndChar

StartChar: less
Encoding: 60 60 102
Width: 1060
VWidth: 4
Flags: W
LayerCount: 2
Fore
SplineSet
807 87 m 1
 694 -30 l 1
 677 6 641 42 600 80 c 1
 520 159 167 435 144 453 c 1
 167 573 l 1
 349 702 693 945 841 1023 c 0
 874 1040 898 1054 935 1065 c 1
 995 923 l 1
 817 838 524 628 341 505 c 1
 464 404 741 219 807 87 c 1
EndSplineSet
Validated: 1
EndChar

StartChar: greater
Encoding: 62 62 103
Width: 1060
VWidth: 6
Flags: W
HStem: 1042 20G<268.128 337>
LayerCount: 2
Fore
SplineSet
821 577 m 1
 811 453 l 1
 702 384 212 22 21 -43 c 1
 -45 83 l 1
 148 177 461 399 624 512 c 1
 515 602 311 788 218 894 c 0
 196 919 178 938 165 968 c 1
 296 1062 l 1
 378 936 747 644 821 577 c 1
EndSplineSet
Validated: 1
EndChar

StartChar: slash
Encoding: 47 47 104
Width: 1060
VWidth: 60
Flags: W
LayerCount: 2
Fore
SplineSet
6 -57 m 1
 15 -44 54 13 80 55 c 1
 220 280 777 1175 941 1461 c 1
 1080 1380 l 1
 874 1028 321 141 146 -141 c 1
 6 -57 l 1
EndSplineSet
Validated: 1
EndChar

StartChar: one
Encoding: 49 49 105
Width: 1060
VWidth: 0
Flags: W
HStem: -9 21G<453 620.895> 1282 20G<667.5 870>
VStem: 214 656
LayerCount: 2
Fore
SplineSet
674 1302 m 1
 870 1290 l 1
 617 -9 l 1
 453 -9 l 1
 658 1055 l 1
 573 970 426 871 286 781 c 1
 214 932 l 1
 554 1112 661 1288 674 1302 c 1
EndSplineSet
Validated: 1
EndChar

StartChar: two
Encoding: 50 50 106
Width: 1060
VWidth: 0
Flags: W
HStem: 2 153<250 805> 1150 156<499.043 770.041>
VStem: 236 157<853.713 873.063 874.938 1036.69> 813 166<841.19 1107.61>
LayerCount: 2
Fore
SplineSet
393 857 m 1
 236 821 l 1
 234 835 233 854 233 874 c 0
 233 894 235 915 237 933 c 0
 239 942 239 950 241 958 c 0
 284 1180 474 1306 672 1306 c 0
 872 1306 979 1224 979 1045 c 0
 979 1010 974 971 966 928 c 0
 941 801 841 688 744 603 c 1
 642 518 507 432 386 332 c 0
 301 262 259 191 250 155 c 1
 836 157 l 1
 805 2 l 1
 46 2 l 1
 52 32 57 64 63 97 c 0
 68 123 75 150 85 178 c 0
 122 275 184 360 312 461 c 0
 437 559 549 625 642 701 c 1
 733 774 795 865 807 926 c 0
 811 947 813 968 813 988 c 0
 813 1078 768 1150 650 1150 c 0
 520 1150 423 1080 392 920 c 0
 388 899 391 868 393 857 c 1
EndSplineSet
Validated: 1
EndChar

StartChar: three
Encoding: 51 51 107
Width: 1060
VWidth: 0
Flags: W
HStem: -22 155<276.536 586.139> 666 158<425 622.431> 1150 153<473.574 743.242>
VStem: 60 162<184.615 335> 726 164<275.442 575.29> 770 163<928.605 1118.94>
LayerCount: 2
Fore
SplineSet
68 335 m 1xf8
 226 336 l 1
 223 321 222 308 222 294 c 0
 222 200 288 133 417 133 c 0
 575 133 689 226 718 374 c 0
 723 402 726 426 726 450 c 0xf8
 726 521 700 575 635 615 c 0
 554 666 474 666 394 666 c 1
 425 824 l 1
 441 824 l 2
 479 824 529 826 606 850 c 1
 696 880 748 927 768 1028 c 0
 769 1035 770 1041 770 1047 c 0
 770 1113 698 1150 606 1150 c 0
 479 1150 400 1046 375 1010 c 1
 249 1089 l 1
 257 1104 382 1303 625 1303 c 2
 636 1303 l 2
 796 1303 933 1240 933 1089 c 0xf4
 933 1072 931 1053 927 1033 c 0
 902 905 830 798 731 757 c 1
 844 697 890 604 890 487 c 0
 890 452 886 415 878 376 c 0
 861 291 811 180 729 101 c 0
 648 24 546 -22 387 -22 c 0
 177 -22 60 94 60 259 c 0
 60 283 63 309 68 335 c 1xf8
EndSplineSet
Validated: 1
EndChar

StartChar: four
Encoding: 52 52 108
Width: 1060
VWidth: 0
Flags: W
HStem: -2 21G<530 689.876> 413 157<323 610 797 895> 1286 20G<750 940>
LayerCount: 2
Fore
SplineSet
641 570 m 1
 722 990 l 1
 624 861 434 667 323 570 c 1
 641 570 l 1
109 543 m 1
 152 589 723 1143 777 1306 c 1
 940 1306 l 1
 797 570 l 1
 925 570 l 1
 895 416 l 1
 767 416 l 1
 686 -2 l 1
 530 -2 l 1
 610 413 l 1
 143 413 l 1
 109 543 l 1
EndSplineSet
Validated: 1
EndChar

StartChar: five
Encoding: 53 53 109
Width: 1060
VWidth: 0
Flags: W
HStem: -2 156<304.604 589.474> 731 158<400.518 694.415> 1132 156<462 920>
VStem: 756 158<344.527 668.924>
LayerCount: 2
Fore
SplineSet
552 731 m 0
 421 731 322 640 302 623 c 1
 187 677 l 1
 351 1288 l 1
 950 1286 l 1
 920 1132 l 1
 462 1132 l 1
 381 835 l 1
 433 863 502 889 580 889 c 0
 637 889 702 879 764 846 c 1
 846 798 914 697 914 551 c 0
 914 519 911 486 904 450 c 0
 846 150 637 0 397 -2 c 1
 395 -2 l 2
 220 -2 123 114 76 231 c 1
 226 319 l 1
 261 233 316 154 428 154 c 0
 595 154 709 259 746 448 c 0
 753 482 756 513 756 540 c 0
 756 628 721 677 667 705 c 0
 629 725 588 731 552 731 c 0
EndSplineSet
Validated: 1
EndChar

StartChar: six
Encoding: 54 54 110
Width: 1060
VWidth: 0
Flags: W
HStem: -3 153<316.296 610.11> 591 155<398.832 686.918> 1154 147<751.408 959.975>
VStem: 98 160<207.797 468.785> 740 163<279.42 536.297>
LayerCount: 2
Fore
SplineSet
969 1154 m 1
 668 1133 502 995 405 838 c 0
 368 776 345 714 324 654 c 1
 387 700 443 746 593 746 c 0
 785 746 903 636 903 458 c 0
 903 430 900 400 894 368 c 0
 845 115 647 -3 411 -3 c 0
 197 -3 98 138 98 339 c 0
 98 384 102 431 112 481 c 0
 135 600 184 752 271 900 c 0
 384 1092 584 1268 959 1301 c 1
 969 1154 l 1
260 403 m 1
 259 388 258 374 258 360 c 0
 258 223 321 150 441 150 c 0
 585 150 709 232 735 368 c 0
 739 387 740 405 740 422 c 0
 740 526 673 591 554 591 c 0
 421 591 293 488 260 403 c 1
EndSplineSet
Validated: 1
EndChar

StartChar: seven
Encoding: 55 55 111
Width: 1060
VWidth: 0
Flags: W
HStem: 0 21G<238 447> 1023 21G<289.672 340.5> 1131 155<362.031 932>
VStem: 238 165<0 160.057>
LayerCount: 2
Fore
SplineSet
327 1292 m 1
 411 1292 518 1286 595 1286 c 0
 746 1286 944 1286 1087 1286 c 2
 1128 1286 l 1
 1158 1204 l 1
 765 667 491 454 403 0 c 1
 238 0 l 1
 317 407 578 714 932 1133 c 1
 880 1131 805 1131 734 1131 c 0
 687 1131 641 1131 605 1131 c 0
 542 1131 456 1136 394 1139 c 1
 368 1102 351 1066 330 1023 c 1
 207 1084 l 1
 237 1143 286 1217 327 1292 c 1
EndSplineSet
Validated: 1
EndChar

StartChar: eight
Encoding: 56 56 112
Width: 1060
VWidth: 0
Flags: W
HStem: -9 156<293.85 638.037> 1136 157<504.132 777.896>
VStem: 72 161<207.269 461.14> 274 160<880.397 1070.29> 769 161<278.524 533.258> 809 160<917.417 1103.11>
LayerCount: 2
Fore
SplineSet
458 147 m 0xf8
 624 147 738 234 764 368 c 0
 767 384 769 400 769 415 c 0
 769 537 664 603 557 657 c 1
 413 597 268 520 238 368 c 0
 235 351 233 335 233 320 c 0
 233 213 313 147 458 147 c 0xf8
589 821 m 1
 702 848 793 923 806 989 c 0
 808 998 809 1006 809 1015 c 0xf4
 809 1082 756 1136 650 1136 c 0
 530 1136 451 1068 436 989 c 0
 435 983 434 978 434 972 c 0
 434 911 495 846 589 821 c 1
680 1293 m 0
 870 1293 969 1191 969 1051 c 0xf4
 969 1030 966 1008 962 985 c 0
 942 882 838 777 742 738 c 1
 831 691 930 590 930 444 c 0xf8
 930 423 928 401 924 378 c 0
 881 156 686 -9 427 -9 c 0
 201 -9 72 117 72 297 c 0
 72 323 75 350 80 378 c 0
 115 560 280 684 402 738 c 1
 332 772 274 856 274 946 c 0
 274 959 275 972 278 985 c 0
 312 1158 461 1293 680 1293 c 0
EndSplineSet
Validated: 1
EndChar

StartChar: nine
Encoding: 57 57 113
Width: 1060
VWidth: 0
Flags: W
HStem: -2 156<247.508 588.381> 616 152<413.426 721.149> 1152 150<478.159 766.206>
VStem: 199 162<818.324 1041.9> 835 156<867.074 1080.48>
LayerCount: 2
Fore
SplineSet
653 1152 m 0
 523 1152 393 1094 365 952 c 0
 363 939 361 928 361 917 c 0
 361 813 463 768 571 768 c 0
 699 768 801 859 834 928 c 1
 834 934 835 939 835 945 c 0
 835 1050 764 1152 653 1152 c 0
207 955 m 0
 249 1170 435 1302 657 1302 c 0
 918 1302 991 1143 991 940 c 0
 991 847 976 744 956 644 c 0
 893 320 759 -2 412 -2 c 0
 167 -2 94 100 -2 229 c 1
 120 328 l 1
 230 196 259 154 442 154 c 0
 663 154 748 375 792 603 c 0
 799 639 804 675 810 710 c 1
 735 646 657 616 528 616 c 0
 339 616 199 704 199 880 c 0
 199 903 202 929 207 955 c 0
EndSplineSet
Validated: 1
EndChar

StartChar: equal
Encoding: 61 61 114
Width: 1060
VWidth: 6
Flags: W
HStem: 189 160<43 857> 652 162<126.397 940.011> 667 158<130.007 441.492 455.173 949>
LayerCount: 2
Fore
SplineSet
43 349 m 1x80
 185 357 296 357 410 357 c 0
 589 357 722 349 890 349 c 1
 857 188 l 1
 683 188 540 193 357 193 c 0
 307 193 257 194 205 194 c 0
 145 194 82 193 12 189 c 1
 43 349 l 1x80
133 825 m 1xa0
 274 816 385 814 479 814 c 0
 671 814 782 823 980 823 c 1
 949 664 l 1
 756 664 643 652 446 652 c 0xc0
 350 652 243 658 100 667 c 1
 110 720 120 774 133 825 c 1xa0
EndSplineSet
Validated: 1
EndChar

StartChar: backslash
Encoding: 92 92 115
Width: 1060
VWidth: 60
Flags: W
VStem: 298 506
LayerCount: 2
Fore
SplineSet
804 -108 m 1
 641 -147 l 1
 576 135 368 1059 298 1411 c 1
 466 1449 l 1
 531 1092 738 178 804 -108 c 1
EndSplineSet
Validated: 1
EndChar

StartChar: asciicircum
Encoding: 94 94 116
Width: 1060
VWidth: -10
Flags: W
HStem: 458 643
LayerCount: 2
Fore
SplineSet
653 1101 m 1
 1018 583 l 1
 896 468 l 1
 629 839 l 1
 187 458 l 1
 89 576 l 1
 653 1101 l 1
EndSplineSet
Validated: 1
EndChar

StartChar: underscore
Encoding: 95 95 117
Width: 1060
VWidth: 41
Flags: W
HStem: -334 156<-68 852>
LayerCount: 2
Fore
SplineSet
852 -334 m 1
 -98 -334 l 1
 -68 -178 l 1
 882 -178 l 1
 852 -334 l 1
EndSplineSet
Validated: 1
EndChar

StartChar: grave
Encoding: 96 96 118
Width: 1060
VWidth: -25
Flags: W
HStem: 925 558
VStem: 401 591
LayerCount: 2
Fore
SplineSet
549 1483 m 1
 601 1369 905 1113 992 1077 c 1
 884 925 l 1
 712 1048 535 1163 401 1348 c 1
 549 1483 l 1
EndSplineSet
Validated: 1
EndChar

StartChar: question
Encoding: 63 63 119
Width: 1060
VWidth: 0
Flags: W
HStem: 0 270<310 508> 1020 21G<214.302 305> 1181 155<379.957 747.159>
VStem: 376 175<431 557.719> 810 166<912.709 1122.18>
LayerCount: 2
Fore
SplineSet
147 1146 m 1
 281 1307 479 1336 623 1336 c 0
 817 1336 976 1231 976 1088 c 0
 976 858 819 752 706 670 c 0
 645 626 576 559 560 477 c 2
 551 431 l 1
 376 431 l 1
 384 475 l 2
 407 595 475 673 573 747 c 0
 703 846 810 909 810 1043 c 0
 810 1127 695 1181 585 1181 c 0
 493 1181 383 1181 227 1020 c 1
 147 1146 l 1
310 270 m 1
 560 270 l 1
 508 0 l 1
 258 0 l 1
 310 270 l 1
EndSplineSet
Validated: 1
EndChar

StartChar: asciitilde
Encoding: 126 126 120
Width: 1060
VWidth: -12
Flags: W
HStem: 417 153<654.338 827.231> 612 154<292.519 485.816>
LayerCount: 2
Fore
SplineSet
446 766 m 0
 626 766 622 570 729 570 c 0
 816 570 911 694 938 759 c 1
 1070 698 l 1
 1030 610 924 417 695 417 c 0
 534 417 518 612 406 612 c 0
 323 612 213 515 148 428 c 1
 36 519 l 1
 132 654 239 766 446 766 c 0
EndSplineSet
Validated: 1
EndChar

StartChar: Oslash
Encoding: 216 216 127
Width: 1060
VWidth: 0
Flags: W
HStem: -13 153<334.476 584.667> 1173 153<510.265 754.695>
VStem: 43 162<287.023 691.372> 869 158<555.722 1001.34>
LayerCount: 2
Fore
SplineSet
6 -57 m 1
 15 -44 54 13 80 55 c 0
 91 72 105 94 120 119 c 1
 117 123 114 126 112 130 c 0
 66 203 43 295 43 402 c 0
 43 455 48 512 60 572 c 0
 127 917 233 1066 321 1161 c 0
 404 1251 530 1323 687 1326 c 0
 726 1326 784 1318 840 1289 c 1
 881 1358 916 1417 941 1461 c 1
 1080 1380 l 1
 1047 1324 1006 1255 959 1177 c 1
 1000 1111 1027 1016 1027 882 c 0
 1027 811 1020 730 1002 635 c 2
 1000 624 l 1
 968 460 895 307 829 214 c 0
 726 70 579 -13 414 -13 c 0
 355 -13 296 -3 245 19 c 1
 205 -45 172 -100 146 -141 c 1
 6 -57 l 1
223 284 m 1
 373 526 591 880 756 1151 c 1
 729 1166 698 1173 663 1173 c 0
 595 1173 506 1145 433 1069 c 0
 347 980 270 838 219 576 c 0
 210 532 205 478 205 426 c 0
 205 374 211 324 223 284 c 1
853 1003 m 1
 688 732 487 407 333 159 c 1
 363 146 399 140 444 140 c 0
 532 140 646 207 707 290 c 1
 759 354 821 520 843 627 c 2
 847 646 l 1
 859 711 869 789 869 862 c 0
 869 912 864 961 853 1003 c 1
EndSplineSet
Validated: 1
EndChar

StartChar: multiply
Encoding: 215 215 128
Width: 1060
VWidth: 6
Flags: W
LayerCount: 2
Fore
SplineSet
418 529 m 1
 321 649 253 755 164 855 c 1
 276 971 l 1
 365 870 455 753 545 636 c 1
 756 806 924 945 944 963 c 1
 1026 832 l 1
 1003 813 839 674 636 507 c 1
 778 316 811 261 892 161 c 1
 764 70 l 1
 704 174 642 238 511 406 c 1
 330 257 185 124 129 74 c 1
 29 180 l 1
 103 252 247 387 418 529 c 1
EndSplineSet
Validated: 1
EndChar

StartChar: oslash
Encoding: 248 248 140
Width: 1060
VWidth: 6
Flags: W
HStem: 1 155<300.305 596.059> 878 154<440.388 727.604>
VStem: 73 162<356 585.515> 787 161<426.922 667>
LayerCount: 2
Fore
SplineSet
235 356 m 1
 740 821 l 1
 710 857 663 878 596 878 c 0
 388 878 293 713 246 469 c 0
 239 432 235 397 235 366 c 0
 235 362 235 359 235 356 c 1
936 804 m 1
 944 769 948 730 948 690 c 0
 948 641 942 590 933 543 c 0
 878 258 731 1 409 1 c 2
 407 1 l 1
 293 2 210 33 155 91 c 1
 44 -9 l 1
 -47 95 l 1
 86 218 l 1
 77 252 73 288 73 328 c 0
 73 370 78 416 87 464 c 0
 144 756 300 1032 592 1032 c 0
 724 1032 812 1001 868 940 c 1
 1005 1067 l 1
 1104 956 l 1
 936 804 l 1
621 215 m 1
 698 276 742 382 771 530 c 0
 772 536 774 542 775 548 c 0
 782 586 787 623 787 657 c 0
 787 660 787 664 787 667 c 1
 286 212 l 1
 320 176 371 156 439 156 c 0
 515 157 563 173 621 215 c 1
EndSplineSet
Validated: 1
EndChar

StartChar: plusminus
Encoding: 177 177 145
Width: 1060
VWidth: -6
Flags: W
HStem: 186 150<79 422.928 576 908.417> 669 150<167 479 668 1000>
LayerCount: 2
Fore
SplineSet
167 822 m 1
 338 812 408 811 509 811 c 1
 581 1172 l 1
 741 1171 l 1
 668 810 l 1
 824 813 823 819 1012 819 c 2
 1029 819 l 1
 1000 669 l 1
 983 669 l 2
 797 669 798 663 639 658 c 1
 637 647 l 2
 616 541 593 433 576 343 c 1
 739 340 753 338 918 335 c 1
 935 334 l 1
 906 184 l 1
 889 185 l 1
 681 188 609 192 388 192 c 0
 256 192 229 191 68 186 c 1
 50 186 l 1
 79 336 l 1
 96 336 l 1
 258 340 295 344 416 344 c 1
 434 437 456 543 477 649 c 2
 479 659 l 1
 372 659 314 662 138 672 c 1
 167 822 l 1
EndSplineSet
Validated: 1
EndChar

StartChar: divide
Encoding: 247 247 146
Width: 1060
VWidth: 6
Flags: W
HStem: -12 270<330 528> 437 157<136 897> 757 269<477 676>
LayerCount: 2
Fore
SplineSet
111 437 m 1
 136 594 l 1
 296 599 422 600 500 600 c 0
 638 600 702 597 911 594 c 1
 928 594 l 1
 897 437 l 1
 879 437 l 1
 667 440 603 444 466 444 c 0
 390 444 264 441 111 437 c 1
330 258 m 1
 580 258 l 1
 528 -12 l 1
 278 -12 l 1
 330 258 l 1
477 1026 m 1
 728 1026 l 1
 676 757 l 1
 425 757 l 1
 477 1026 l 1
EndSplineSet
Validated: 1
EndChar

StartChar: OE
Encoding: 338 338 149
Width: 1060
VWidth: 0
Flags: W
HStem: -8 152<227.648 415.388 571 944.764> 682 153<707 953> 1170 160<451.312 616 772 1114>
VStem: 24 146<200.432 641.79>
LayerCount: 2
Fore
SplineSet
416 146 m 1
 616 1170 l 1
 355 1170 274 951 201 578 c 0
 185 495 170 414 170 346 c 0
 170 229 214 147 371 144 c 0
 387 144 403 145 416 146 c 1
811 153 m 1
 870 155 899 163 947 179 c 1
 957 33 l 1
 845 4 703 -1 592 -1 c 0
 545 -1 495 0 440 0 c 1
 422 -7 326 -8 311 -8 c 0
 93 1 24 150 24 347 c 0
 24 425 35 510 52 597 c 0
 137 1033 293 1330 628 1330 c 0
 654 1330 681 1328 706 1323 c 1
 766 1326 829 1326 892 1326 c 0
 977 1326 1063 1325 1145 1325 c 1
 1114 1170 l 1
 1022 1170 965 1171 894 1171 c 0
 859 1171 819 1171 772 1170 c 1
 707 835 l 1
 982 835 l 1
 953 682 l 1
 678 682 l 1
 639 480 586 232 571 153 c 1
 811 153 l 1
EndSplineSet
Validated: 1
EndChar

StartChar: yen
Encoding: 165 165 150
Width: 1060
VWidth: 0
Flags: W
HStem: -6 21G<323 486.881> 374 157<106 401 594 919> 683 159<160.25 360 638.083 658.411 806 988>
VStem: 207 154<1219.61 1289.7>
LayerCount: 2
Fore
SplineSet
401 374 m 1
 364 374 327 374 289 374 c 0
 222 374 152 373 75 369 c 1
 106 531 l 1
 123 531 l 1
 247 535 340 538 436 538 c 1
 450 613 l 1
 442 628 434 648 424 672 c 1
 347 673 252 679 138 686 c 1
 151 750 l 2
 157 782 163 813 171 844 c 1
 239 840 307 837 360 835 c 1
 297 1006 227 1214 207 1283 c 1
 361 1355 l 1
 381 1285 481 997 544 833 c 1
 618 833 l 1
 755 999 971 1290 1019 1368 c 1
 1142 1288 l 1
 1076 1192 975 1046 837 875 c 0
 827 863 816 851 806 839 c 1
 864 841 926 842 1001 842 c 2
 1019 842 l 1
 988 683 l 1
 970 683 l 2
 851 683 765 678 669 675 c 1
 639 640 618 613 608 602 c 1
 604 580 599 559 594 537 c 1
 711 535 814 532 936 530 c 1
 953 530 l 1
 919 368 l 1
 901 368 l 1
 781 370 676 373 560 374 c 1
 537 264 516 163 509 128 c 2
 483 -6 l 1
 323 -6 l 1
 352 143 l 2
 362 192 381 282 401 374 c 1
EndSplineSet
Validated: 1
EndChar

StartChar: currency
Encoding: 164 164 153
Width: 1060
VWidth: 6
Flags: W
HStem: 98 157<404.303 609.546>
VStem: 218 167<286.09 578.677> 720 166<401.485 706.911>
LayerCount: 2
Fore
SplineSet
713 522 m 0
 718 548 720 572 720 594 c 0
 720 681 682 737 616 743 c 1
 601 741 l 1
 494 730 427 626 395 462 c 0
 389 430 385 402 385 377 c 0
 385 296 421 255 504 255 c 0
 612 255 683 368 713 522 c 0
230 461 m 2
 231 468 l 2
 248 556 283 636 320 697 c 1
 209 849 l 1
 349 955 l 1
 441 828 l 1
 499 878 555 898 626 901 c 1
 643 901 l 2
 726 901 774 880 816 833 c 1
 950 946 l 1
 1044 847 l 1
 878 697 l 1
 884 671 886 645 886 618 c 0
 886 586 882 554 876 520 c 1
 854 417 827 352 779 284 c 1
 894 129 l 1
 755 23 l 1
 657 159 l 1
 599 120 534 98 468 98 c 0
 384 99 336 127 296 167 c 1
 147 43 l 1
 60 142 l 1
 223 299 l 1
 219 319 218 337 218 356 c 0
 218 390 223 424 230 461 c 2
EndSplineSet
Validated: 1
EndChar

StartChar: sterling
Encoding: 163 163 154
Width: 1060
VWidth: 0
Flags: W
HStem: -13 152<102.5 266.245 543.136 798.64> 687 152<260 389 548 920> 1198 153<613.659 811.421>
VStem: 16 156<139.007 267.198> 389 158<335.676 682 839 1123.43> 806 151<147.781 229> 832 155<1118 1181.19>
LayerCount: 2
Fore
SplineSet
269 186 m 1xf8
 242 216 231 254 211 269 c 1
 200 262 181 231 175 201 c 0
 175 199 174 197 174 195 c 0
 173 187 172 179 172 173 c 0
 172 148 181 139 194 139 c 0
 216 139 249 166 269 186 c 1xf8
920 691 m 1
 844 682 762 682 664 682 c 2
 547 682 l 1
 547 589 546 495 526 385 c 0
 516 333 498 278 477 230 c 1
 559 169 606 137 695 137 c 0
 788 137 794 154 806 214 c 0
 807 219 808 224 809 229 c 1
 965 231 l 1
 957 190 l 1xfc
 927 54 832 -15 691 -16 c 0
 573 -16 480 25 385 95 c 1
 324 29 231 -13 144 -13 c 0
 61 -13 16 51 16 137 c 0
 16 154 18 173 22 192 c 0
 42 293 88 370 168 412 c 0
 187 421 206 424 221 424 c 0
 224 424 227 424 230 424 c 0
 289 424 331 369 357 334 c 1
 363 354 367 375 371 397 c 0
 388 485 389 560 389 638 c 0
 389 654 389 669 389 685 c 1
 337 687 293 687 248 687 c 2
 231 687 l 1
 260 839 l 1
 389 839 l 1
 390 910 392 977 405 1043 c 0
 445 1248 577 1351 766 1351 c 0
 913 1351 981 1245 987 1118 c 1
 832 1075 l 1xfa
 828 1137 817 1196 736 1198 c 0
 734 1198 732 1198 730 1198 c 0
 613 1198 577 1116 564 1051 c 0
 554 997 550 900 548 834 c 1
 696 837 l 1
 715 837 735 837 753 837 c 0
 827 837 893 838 950 844 c 1
 920 691 l 1
EndSplineSet
Validated: 1
EndChar

StartChar: cent
Encoding: 162 162 155
Width: 1060
VWidth: 6
Flags: W
HStem: -9 21G<345 508.889> 720 313<548 677.579>
VStem: 151 171<318.478 604.282>
LayerCount: 2
Fore
SplineSet
486 284 m 0
 487 284 487 284 488 284 c 0
 580 284 662 318 695 354 c 1
 709 370 l 1
 830 287 l 1
 815 271 l 1
 748 194 643 147 533 135 c 1
 505 -9 l 1
 345 -9 l 1
 374 139 l 1
 330 148 283 164 244 194 c 0
 178 245 151 308 151 390 c 0
 151 421 155 454 162 490 c 2
 164 501 l 2
 188 624 242 705 292 753 c 0
 360 817 439 851 515 865 c 1
 548 1033 l 1
 710 1033 l 1
 678 867 l 1
 792 850 846 786 861 695 c 1
 692 638 l 1
 692 661 l 1
 691 714 657 720 578 720 c 0
 517 720 450 702 404 657 c 0
 381 635 345 596 329 514 c 0
 324 490 322 467 322 445 c 0
 322 350 367 283 469 283 c 0
 475 283 480 284 486 284 c 0
EndSplineSet
Validated: 1
EndChar

StartChar: percent
Encoding: 37 37 156
Width: 1060
VWidth: 0
Flags: W
HStem: -4 150<610.958 783.923> 362 150<633.085 806.016> 773 150<318.958 491.923> 1139 150<341.085 514.016> 1304 20G<912 1090.47>
VStem: 153 153<934.881 1102.86> 445 153<158.162 327.116> 526 153<957.098 1128.9> 818 153<180.959 350.254>
LayerCount: 2
Fore
SplineSet
306 1011 m 0xfd80
 306 961 342 923 395 923 c 0
 459 923 526 978 526 1052 c 0
 526 1102 490 1139 437 1139 c 0
 374 1139 306 1084 306 1011 c 0xfd80
467 1289 m 0
 592 1289 679 1188 679 1070 c 0
 679 895 518 773 366 773 c 0
 241 773 153 877 153 996 c 0
 153 1169 317 1289 467 1289 c 0
598 234 m 0xfe80
 598 184 634 146 687 146 c 0
 751 146 818 201 818 275 c 0
 818 325 782 362 729 362 c 0
 666 362 598 307 598 234 c 0xfe80
759 512 m 0
 884 512 971 413 971 295 c 0
 971 120 810 -4 658 -4 c 0
 533 -4 445 95 445 214 c 0
 445 387 609 512 759 512 c 0
-22 63 m 1
 255 427 752 977 1072 1324 c 1
 1181 1206 l 1
 863 867 385 348 103 -43 c 1
 -22 63 l 1
EndSplineSet
Validated: 1
EndChar

StartChar: guillemotleft
Encoding: 171 171 157
Width: 1060
VWidth: 6
Flags: W
VStem: 323 158<97.7355 206.585> 646 159<105.72 241.074>
LayerCount: 2
Fore
SplineSet
458 576 m 1
 622 676 776 845 842 978 c 1
 974 904 l 1
 899 762 780 616 627 499 c 1
 728 393 790 280 805 127 c 1
 808 109 l 1
 646 63 l 1
 630 226 568 343 433 450 c 1
 458 576 l 1
108 574 m 1
 277 704 466 836 516 976 c 1
 655 922 l 1
 578 733 418 610 272 501 c 1
 377 383 469 274 481 102 c 1
 323 55 l 1
 314 204 216 318 85 459 c 1
 108 574 l 1
EndSplineSet
Validated: 1
EndChar

StartChar: section
Encoding: 167 167 159
Width: 1060
VWidth: 4
Flags: W
HStem: -322 155<295.721 541.466> 1213 155<526.101 766.962>
VStem: 111 160<-134.064 -31> 166 160<554.545 702.994> 285 158<901.458 1134.25> 623 165<-88.6952 139.763> 740 166<392 492.034> 794 154<1081 1185.29>
LayerCount: 2
Fore
SplineSet
666 319 m 1xd2
 718 339 729 358 736 392 c 2
 740 409 l 1
 740 411 740 412 740 414 c 0
 740 433 734 454 715 475 c 0
 632 567 509 640 409 722 c 1
 343 697 335 679 327 637 c 0
 326 634 326 632 326 629 c 0
 326 610 337 588 355 569 c 0
 438 476 566 399 666 319 c 1xd2
290 1040 m 0
 332 1258 532 1368 685 1368 c 0
 837 1368 948 1292 948 1142 c 0
 948 1123 946 1103 942 1081 c 1
 791 1080 l 1
 793 1095 794 1107 794 1117 c 0xc9
 794 1149 784 1162 763 1183 c 1
 741 1203 707 1213 655 1213 c 1
 566 1211 468 1152 449 1055 c 0
 445 1033 443 1014 443 998 c 0
 443 924 488 899 578 827 c 0
 658 763 766 698 846 594 c 1
 880 553 906 500 906 442 c 0xca
 906 430 904 418 902 405 c 0
 882 300 835 246 762 198 c 1
 779 164 788 123 788 76 c 0
 788 54 786 31 782 6 c 0
 781 3 781 0 780 -3 c 0
 737 -223 533 -322 378 -322 c 0
 223 -322 111 -246 111 -93 c 0
 111 -74 113 -53 117 -31 c 1
 272 -30 l 1
 272 -40 271 -49 271 -57 c 0xe4
 271 -97 278 -115 301 -135 c 0
 322 -154 358 -167 408 -167 c 1
 501 -164 598 -112 618 -9 c 0
 621 7 623 24 623 45 c 0
 623 48 623 52 623 55 c 0
 620 101 570 159 488 220 c 1
 404 281 296 348 215 450 c 1
 184 492 166 541 166 595 c 0xd4
 166 610 167 625 170 641 c 0
 190 745 242 794 314 841 c 1
 295 878 285 928 285 979 c 0xc8
 285 999 286 1020 290 1040 c 0
EndSplineSet
Validated: 1
EndChar

StartChar: braceleft
Encoding: 123 123 160
Width: 1060
VWidth: 66
Flags: W
HStem: -262 158<576.757 763> 1326 158<837.736 1077>
VStem: 381 172<-76.5579 115.898> 524 160<218.427 451.944> 614 168<943.845 962.922 966.949 1272.79> 637 157<814.594 1139.28 1142.94 1149.61>
LayerCount: 2
Fore
SplineSet
312 530 m 1xd0
 343 690 l 1
 471 724 607 765 633 899 c 0
 636 913 637 927 637 943 c 0xc4
 637 961 635 981 632 1003 c 1
 624 1050 614 1101 614 1152 c 0
 614 1172 615 1191 619 1211 c 0
 629 1261 654 1311 703 1358 c 0
 817 1466 968 1478 1102 1484 c 1
 1077 1326 l 1
 931 1319 810 1319 787 1202 c 0
 783 1182 782 1162 782 1142 c 0xc8
 782 1084 794 1027 794 964 c 0xc4
 794 941 793 918 788 893 c 0
 759 743 636 633 536 610 c 1
 615 590 684 507 684 389 c 0xd0
 684 369 682 348 678 327 c 0
 656 212 576 119 556 18 c 0
 554 8 553 -1 553 -9 c 0
 553 -99 667 -98 799 -104 c 1
 763 -262 l 1
 631 -256 484 -246 412 -138 c 0
 390 -105 381 -71 381 -36 c 0xe0
 381 -21 383 -6 386 9 c 0
 400 80 442 152 479 217 c 1
 501 257 514 291 520 321 c 0
 522 334 524 345 524 356 c 0
 524 462 415 499 312 530 c 1xd0
EndSplineSet
Validated: 1
EndChar

StartChar: bar
Encoding: 124 124 161
Width: 1060
VWidth: 66
Flags: W
VStem: 273 483
LayerCount: 2
Fore
SplineSet
345 152 m 0
 416 517 522 1111 578 1399 c 2
 596 1492 l 1
 756 1492 l 1
 728 1347 l 2
 674 1070 587 558 522 224 c 2
 492 74 l 2
 470 -41 459 -97 434 -198 c 1
 273 -197 l 1
 289 -135 298 -92 309 -37 c 0
 318 10 328 66 345 152 c 0
EndSplineSet
Validated: 1
EndChar

StartChar: braceright
Encoding: 125 125 162
Width: 1060
VWidth: 66
Flags: W
HStem: -262 158<51 289.264> 1326 158<364 550.243>
VStem: 333 157<70.3906 78.0625 81.6712 405.406> 346 167<-51.7364 251.098 255.08 276.155> 444 159<768.056 1001.57> 574 172<1104.1 1297.66>
LayerCount: 2
Fore
SplineSet
784 530 m 1xc8
 656 496 520 455 494 321 c 0
 491 307 490 293 490 277 c 0xe0
 490 259 492 239 495 217 c 1
 503 170 513 119 513 68 c 0
 513 48 512 29 508 9 c 0
 498 -41 473 -91 424 -138 c 0
 310 -246 159 -256 25 -262 c 1
 51 -104 l 1
 197 -97 317 -99 340 18 c 0
 344 39 346 59 346 79 c 0xd0
 346 136 333 192 333 254 c 0xe0
 333 277 335 302 340 327 c 0
 369 477 492 587 592 610 c 1
 513 630 444 713 444 831 c 0xc8
 444 851 446 872 450 893 c 0
 472 1008 551 1101 571 1202 c 0
 573 1212 574 1221 574 1229 c 0
 574 1319 461 1320 329 1326 c 1
 364 1484 l 1
 496 1478 643 1466 715 1358 c 0
 737 1325 746 1291 746 1256 c 0xc4
 746 1241 744 1226 741 1211 c 0
 727 1140 685 1068 648 1003 c 1
 626 963 613 929 607 899 c 0
 605 886 603 875 603 864 c 0
 603 758 712 721 815 690 c 1
 784 530 l 1xc8
EndSplineSet
Validated: 1
EndChar

StartChar: at
Encoding: 64 64 163
Width: 1060
VWidth: 6
Flags: W
HStem: -224 146<341.501 637.295> -45 20G<620 657.037> 184 152<485.438 666.867> 693 160<547.958 807.452> 1139 151<536.814 835.017>
VStem: 45 145<99.725 611.917> 315 157<348.441 607.64> 793 152<225.238 495.375> 883 160<790.564 1088.1>
LayerCount: 2
Back
SplineSet
462 285 m 4xdf80
 462 174 467 148 490 148 c 4
 568 148 652 389 697 591 c 5
 735 777 l 5
 734 813 730 881 667 881 c 4
 619 881 462 543 462 285 c 4xdf80
822 171 m 7xbf80
 848 171 855 218 871 300 c 6
 871 300 928 582 952 705 c 4
 964 767 972 835 972 900 c 4
 972 1077 915 1238 740 1238 c 4
 592 1238 367 1027 274 550 c 4
 248 416 234 295 234 190 c 4
 234 -59 322 -212 502 -212 c 4
 545 -212 582 -199 618 -178 c 5
 664 -313 l 5
 612 -342 550 -362 473 -362 c 4
 192 -362 79 -171 79 144 c 4
 79 263 95 399 124 550 c 4
 230 1095 510 1386 769 1386 c 4
 1053 1386 1123 1148 1123 933 c 4
 1123 855 1113 780 1102 721 c 4
 1071 564 1045 427 1014 270 c 4
 976 76 890 3 810 3 c 4xbf80
 719 3 686 84 686 183 c 5
 686 183 615 -7 495 -7 c 4xdf80
 382 -7 324 78 324 288 c 4
 324 559 528 1035 678 1035 c 4
 744 1035 762 998 778 958 c 5
 783 981 788 1008 790 1028 c 5
 913 1003 l 5
 781 357 l 5
 779 342 778 326 778 310 c 4
 778 241 796 171 822 171 c 7xbf80
EndSplineSet
Fore
SplineSet
478 501 m 0xfe
 474 481 472 462 472 445 c 0
 472 375 505 336 558 336 c 0
 656 336 777 476 813 535 c 1
 831 630 l 1
 791 671 718 693 654 693 c 0
 559 693 501 621 478 501 c 0xfe
794 309 m 1
 723 246 655 184 529 184 c 0
 410 184 315 292 315 431 c 0
 315 450 316 471 320 491 c 0
 362 707 515 853 676 853 c 0
 745 853 817 836 862 787 c 1
 872 841 883 899 883 952 c 0
 883 1054 845 1139 698 1139 c 0
 477 1139 288 923 206 501 c 0
 195 444 190 387 190 334 c 0
 190 101 295 -78 489 -78 c 0
 537 -78 588 -61 652 -25 c 1
 686 -160 l 1
 598 -202 518 -224 448 -224 c 0
 180 -224 45 29 45 315 c 0
 45 374 50 435 62 495 c 0
 160 1001 423 1290 726 1290 c 0
 966 1290 1043 1133 1043 964 c 0xfe80
 1043 922 1038 879 1030 838 c 2
 966 508 l 2
 964 498 962 489 960 479 c 0
 952 440 945 400 945 359 c 0
 945 319 952 278 971 238 c 1
 808 174 l 1
 797 202 793 235 793 273 c 0xff
 793 285 793 297 794 309 c 1
EndSplineSet
Validated: 1
EndChar

StartChar: brokenbar
Encoding: 166 166 164
Width: 1060
VWidth: 66
Flags: W
VStem: 276 161<-194 0.334991>
LayerCount: 2
Fore
SplineSet
581 528 m 1
 561 417 529 243 512 155 c 0
 473 -46 469 -65 437 -195 c 1
 276 -194 l 1
 294 -120 301 -90 313 -29 c 2
 342 118 l 2
 361 216 396 404 418 528 c 1
 581 528 l 1
464 775 m 1
 512 1042 547 1239 578 1399 c 2
 596 1492 l 1
 756 1492 l 1
 732 1366 l 2
 703 1217 671 1025 626 775 c 1
 464 775 l 1
EndSplineSet
Validated: 1
EndChar

StartChar: copyright
Encoding: 169 169 165
Width: 1060
VWidth: 6
Flags: W
HStem: 39 140<330.41 703.202> 298 137<472.653 672.655> 746 137<525.082 751.142> 1007 139<483.391 839.774>
VStem: 45 143<326.084 700.041> 318 146<441.286 684.722> 970 144<460.442 877.038>
LayerCount: 2
Fore
SplineSet
188 507 m 0
 188 319 298 179 503 179 c 0
 733 179 970 349 970 683 c 0
 970 891 866 1007 664 1007 c 0
 435 1007 188 790 188 507 c 0
687 1146 m 0
 954 1146 1114 975 1114 704 c 0
 1114 251 782 39 472 39 c 0
 219 39 45 228 45 480 c 0
 45 895 377 1146 687 1146 c 0
620 746 m 0
 537 746 464 657 464 547 c 0
 464 473 469 435 559 435 c 1
 614 435 653 446 692 504 c 1
 802 436 l 1
 709 313 594 298 531 298 c 0
 405 298 318 385 318 505 c 0
 318 751 477 883 650 883 c 0
 722 883 824 844 849 752 c 1
 723 683 l 1
 704 730 682 746 620 746 c 0
EndSplineSet
Validated: 1
EndChar

StartChar: registered
Encoding: 174 174 166
Width: 1060
VWidth: 6
Flags: W
HStem: 39 140<330.41 703.202> 773 125<511.645 719.087> 1007 139<483.391 839.774>
VStem: 45 143<326.084 700.041> 721 123<632.499 767.354> 970 144<460.442 877.038>
LayerCount: 2
Fore
SplineSet
654 519 m 1
 670 466 750 360 786 351 c 1
 712 266 l 1
 627 299 549 455 537 506 c 1
 507 510 468 524 468 524 c 1
 422 283 l 1
 307 283 l 1
 395 736 l 2
 405 790 411 827 418 876 c 1
 501 889 575 898 637 898 c 0
 766 898 844 844 844 732 c 0
 844 613 762 537 654 519 c 1
721 708 m 0
 721 763 692 773 614 773 c 0
 587 773 554 771 514 765 c 1
 491 645 l 1
 534 624 572 615 603 615 c 0
 685 615 721 659 721 708 c 0
188 507 m 0
 188 319 298 179 503 179 c 0
 733 179 970 349 970 683 c 0
 970 891 866 1007 664 1007 c 0
 435 1007 188 790 188 507 c 0
687 1146 m 0
 954 1146 1114 975 1114 704 c 0
 1114 251 782 39 472 39 c 0
 219 39 45 228 45 480 c 0
 45 895 377 1146 687 1146 c 0
EndSplineSet
Validated: 1
EndChar

StartChar: germandbls
Encoding: 223 223 167
Width: 1060
VWidth: 0
Flags: W
HStem: -2 153<439.456 698.329> 669 153<378 638.448> 1176 152<441.325 690.261>
VStem: 266 160<167.03 321> 725 159<903.758 1139.68> 800 155<270.519 589.717>
LayerCount: 2
Fore
SplineSet
211 1003 m 0xf8
 241 1159 353 1328 573 1328 c 0
 731 1328 884 1255 884 1086 c 0xf8
 884 867 822 840 746 779 c 1
 882 739 955 615 955 494 c 0
 955 174 795 -2 549 -2 c 0
 385 -2 266 72 266 228 c 0
 266 250 268 272 273 297 c 0
 275 305 276 313 278 321 c 1
 434 321 l 1
 429 292 426 268 426 247 c 0
 426 176 463 151 578 151 c 0
 725 151 800 304 800 468 c 0xf4
 800 659 606 669 348 669 c 1
 378 822 l 1
 547 822 725 830 725 1047 c 0
 725 1132 663 1176 544 1176 c 1
 448 1175 379 1083 362 993 c 0
 313 739 245 365 174 111 c 0
 151 30 104 -16 43 -44 c 1
 -43 78 l 1
 -21 88 9 113 17 140 c 0
 94 407 157 726 211 1003 c 0xf8
EndSplineSet
Validated: 1
EndChar

StartChar: ampersand
Encoding: 38 38 168
Width: 1060
VWidth: 0
Flags: W
HStem: -22 155<257.476 533.387> 1194 153<485.146 678.143>
VStem: 34 164<193.596 477.144> 254 161<883.726 1123.19> 690 161<998.595 1178.79> 811 149<470.938 647>
LayerCount: 2
Fore
SplineSet
628 245 m 1xf0
 549 387 477 521 402 648 c 1
 311 579 226 491 204 376 c 0
 200 356 198 337 198 319 c 0
 198 203 275 133 375 133 c 0
 475 133 564 185 628 245 c 1xf0
686 1069 m 0
 688 1081 690 1093 690 1103 c 0xf8
 690 1167 646 1194 582 1194 c 0
 514 1194 433 1121 418 1044 c 0
 416 1033 415 1022 415 1012 c 0
 415 954 445 904 475 859 c 1
 559 911 603 950 632 981 c 0
 665 1016 681 1041 686 1069 c 0
922 64 m 1
 782 -32 l 1
 771 -12 737 47 698 116 c 1
 588 18 470 -22 340 -22 c 0
 160 -22 34 91 34 277 c 0
 34 305 37 336 43 367 c 0
 78 546 197 681 328 771 c 1
 297 819 254 892 254 982 c 0
 254 1000 255 1018 259 1037 c 0
 292 1206 452 1347 613 1347 c 0
 742 1347 851 1276 851 1140 c 0xf8
 851 1123 850 1104 846 1085 c 0
 815 923 677 827 543 741 c 1
 608 628 672 517 737 398 c 1
 773 468 790 539 811 648 c 1
 960 647 l 1xf4
 928 480 879 336 812 255 c 1
 842 204 905 95 922 64 c 1
EndSplineSet
Validated: 1
EndChar

StartChar: uni00B5
Encoding: 181 181 169
Width: 1060
VWidth: 6
Flags: W
HStem: 0 155<256.339 450.212> 1001 20G<269.778 392 835.905 983.636>
VStem: 228 164<762.633 996.196> 700 145<86.8454 291.394>
LayerCount: 2
Fore
SplineSet
808 -10 m 1
 769 23 700 54 700 182 c 0
 700 214 705 252 715 298 c 1
 619 121 476 1 325 0 c 0
 278 0 233 12 194 33 c 1
 105 -400 l 1
 -52 -400 l 1
 73 214 l 1
 82 262 84 275 84 275 c 2
 130 527 228 869 228 977 c 0
 228 984 228 989 227 994 c 1
 392 1021 l 1
 392 1018 392 1014 392 1011 c 0
 392 912 319 666 251 306 c 0
 248 288 246 270 246 254 c 0
 246 199 267 155 334 155 c 0
 499 155 676 457 771 691 c 1
 840 1028 l 1
 998 1006 l 1
 847 239 l 2
 846 231 845 224 845 217 c 0
 845 160 883 136 913 107 c 1
 808 -10 l 1
EndSplineSet
Validated: 1
EndChar

StartChar: paragraph
Encoding: 182 182 170
Width: 1060
VWidth: 0
Flags: W
HStem: -10 21G<712.5 832> 1169 159<771.694 907>
LayerCount: 2
Fore
SplineSet
882 1041 m 2
 907 1169 l 1
 866 1170 827 1173 774 1174 c 1
 711 844 646 512 585 184 c 1
 558 45 501 -30 501 -30 c 1
 357 22 l 1
 357 22 411 85 439 229 c 1
 484 473 l 1
 318 485 210 526 153 641 c 0
 132 685 124 732 124 780 c 0
 124 828 132 877 141 924 c 0
 159 1016 195 1108 262 1174 c 0
 404 1315 578 1328 803 1328 c 0
 936 1328 973 1320 1091 1320 c 1
 832 -9 l 1
 680 -10 l 1
 745 325 796 597 882 1041 c 2
EndSplineSet
Validated: 1
EndChar

StartChar: dieresis
Encoding: 168 168 173
Width: 1060
VWidth: -28
Flags: W
HStem: 1090 225<320 510 725 916>
LayerCount: 2
Fore
SplineSet
320 1315 m 1
 554 1312 l 1
 510 1087 l 1
 276 1090 l 1
 320 1315 l 1
725 1312 m 1
 959 1309 l 1
 916 1084 l 1
 681 1087 l 1
 725 1312 l 1
EndSplineSet
Validated: 1
EndChar

StartChar: acute
Encoding: 180 180 174
Width: 1060
VWidth: -43
Flags: W
HStem: 1203 150<467.979 516.552>
VStem: 411 613
LayerCount: 2
Fore
SplineSet
411 1353 m 1
 556 1396 788 1560 907 1664 c 1
 1024 1514 l 1
 909 1406 619 1245 474 1203 c 1
 411 1353 l 1
EndSplineSet
Validated: 1
EndChar

StartChar: degree
Encoding: 176 176 175
Width: 1060
VWidth: -26
Flags: W
HStem: 838 150<495.463 666.274> 1204 150<519.726 690.537>
VStem: 330 153<998.397 1167.61> 703 153<1025.54 1193.31>
LayerCount: 2
Fore
SplineSet
335 1096 m 0
 363 1238 501 1354 643 1354 c 0
 768 1354 856 1264 856 1145 c 0
 856 1129 854 1113 851 1096 c 0
 823 954 685 838 543 838 c 0
 418 838 330 928 330 1047 c 0
 330 1063 332 1079 335 1096 c 0
485 1096 m 0
 484 1089 483 1082 483 1075 c 0
 483 1025 519 988 572 988 c 0
 632 988 689 1036 701 1096 c 0
 702 1103 703 1110 703 1117 c 0
 703 1167 667 1204 614 1204 c 0
 554 1204 497 1156 485 1096 c 0
EndSplineSet
Validated: 1
EndChar

StartChar: macron
Encoding: 175 175 176
Width: 1060
VWidth: -34
Flags: W
HStem: 1182 154<410.947 837>
VStem: 383 483
LayerCount: 2
Fore
SplineSet
413 1340 m 1
 448 1336 491 1335 537 1335 c 0
 583 1335 635 1336 686 1336 c 0
 746 1336 806 1336 866 1336 c 1
 837 1184 l 1
 820 1184 l 1
 762 1182 692 1182 618 1182 c 0
 591 1182 564 1182 537 1182 c 0
 484 1182 431 1182 383 1185 c 1
 413 1340 l 1
EndSplineSet
Validated: 1
EndChar

StartChar: dotlessi
Encoding: 305 305 177
Width: 1060
VWidth: 0
Flags: W
HStem: -18 142<526.508 832.381> 1000 20G<462 661>
VStem: 350 159<140.796 459.859>
LayerCount: 2
Back
SplineSet
473.438 1019.8 m 4
 665.938 1019.8 698.503 856.225 674.522 727 c 6
 592.217 283.5 l 6
 572.99 179.898 607.104 124 699.104 124 c 4
 792.104 124 890.331 148 969.438 200 c 5
 1045.13 83 l 5
 945.333 12 796.501 -18 672.501 -18 c 4
 438.631 -18 413.439 155 435.438 279.5 c 6
 522.036 741 l 6
 529.792 782.333 532.438 869 471.438 871 c 4
 422.438 871 356.438 872 234.438 760 c 5
 137.438 893 l 5
 272.438 982 338.438 1019.8 473.438 1019.8 c 4
EndSplineSet
Fore
SplineSet
661 1020 m 1
 514 284 l 2
 510 265 509 248 509 232 c 0
 509 161 546 124 621 124 c 0
 714 124 812 148 891 200 c 1
 967 83 l 1
 867 12 719 -18 595 -18 c 0
 404 -18 350 99 350 209 c 0
 350 234 352 257 357 280 c 2
 465 813 l 1
 430 787 320 725 246 701 c 1
 188 845 l 1
 420 943 453 991 471 1020 c 1
 661 1020 l 1
EndSplineSet
Validated: 1
EndChar

StartChar: asterisk
Encoding: 42 42 191
Width: 1060
VWidth: 0
Flags: W
LayerCount: 2
Fore
SplineSet
509 740 m 1
 588 1165 l 1
 757 1166 l 1
 670 737 l 1
 1013 883 l 1
 1074 747 l 1
 682 598 l 1
 896 261 l 1
 752 165 l 1
 565 529 l 1
 249 163 l 1
 133 273 l 1
 455 613 l 1
 132 749 l 1
 201 881 l 1
 509 740 l 1
EndSplineSet
Validated: 1
EndChar

StartChar: ordfeminine
Encoding: 170 170 193
Width: 1060
VWidth: 6
Flags: W
HStem: 534 141<198 927> 752 135<421.333 634.719> 1395 142<529.704 797.01>
VStem: 263 142<900.919 1206.13>
LayerCount: 2
Back
SplineSet
364 1449 m 5
 474 1511 592 1537 707 1537 c 5
 926 1537 1008 1394 967 1181 c 4
 948 1078 l 4
 941 1043 925 955 935 938 c 4
 945 920 972 887 999 869 c 5
 893 750 l 5
 851 780 822 819 802 892 c 5
 718 811 605 754 455 754 c 4
 313 754 231 842 257 976 c 4
 294 1164 468 1244 619 1244 c 4
 713 1244 796 1220 827 1193 c 5
 849 1308 827 1395 681 1395 c 4
 562 1395 494 1381 412 1329 c 5
 364 1449 l 5
EndSplineSet
Fore
SplineSet
502 887 m 0
 645 887 804 1057 834 1210 c 1
 848 1289 l 1
 824 1333 766 1395 676 1395 c 0
 537 1395 482 1348 422 1118 c 0
 413 1081 405 1040 405 1004 c 0
 405 939 428 887 502 887 c 0
1034 1513 m 1
 951 1088 l 2
 942 1042 940 1006 940 974 c 0
 940 922 958 902 993 869 c 1
 887 750 l 1
 846 787 821 826 804 895 c 1
 804 895 663 752 491 752 c 0
 313 752 263 847 263 976 c 0
 263 1030 271 1090 287 1150 c 0
 357 1406 451 1537 682 1537 c 0
 766 1537 840 1501 875 1462 c 1
 880 1485 884 1512 886 1532 c 1
 1034 1513 l 1
198 675 m 1
 954 675 l 1
 927 534 l 1
 171 534 l 1
 198 675 l 1
EndSplineSet
Validated: 1
EndChar

StartChar: logicalnot
Encoding: 172 172 194
Width: 1060
VWidth: 6
Flags: W
HStem: 448 152<187 765>
LayerCount: 2
Fore
SplineSet
187 592 m 1
 324 599 436 600 538 600 c 0
 579 600 618 600 657 600 c 0
 739 600 823 599 930 598 c 1
 949 598 l 1
 922 457 894 315 867 174 c 1
 713 174 l 1
 765 444 l 1
 631 447 631 448 506 448 c 0
 439 448 317 447 163 439 c 1
 180 523 l 1
 187 592 l 1
EndSplineSet
Validated: 1
EndChar

StartChar: uni00AD
Encoding: 173 173 195
Width: 1060
VWidth: 6
Flags: W
HStem: 448 152<187 918>
LayerCount: 2
Fore
SplineSet
187 592 m 1
 324 599 436 600 538 600 c 0
 579 600 618 600 657 600 c 0
 739 600 823 599 930 598 c 1
 948 598 l 1
 918 445 l 1
 900 445 l 1
 766 448 631 448 506 448 c 0
 439 448 317 447 163 439 c 1
 180 523 l 1
 187 592 l 1
EndSplineSet
Validated: 1
EndChar

StartChar: uni00B2
Encoding: 178 178 196
Width: 1060
VWidth: 65
Flags: W
HStem: 769 142<509 900> 1385 142<598.099 841.371>
VStem: 850 146<1223.93 1372.27>
LayerCount: 2
Fore
SplineSet
417 1314 m 1
 470 1463 592 1527 758 1527 c 0
 890 1527 996 1460 996 1316 c 0
 996 1198 939 1140 682 1018 c 0
 602 980 533 948 509 911 c 1
 929 916 l 1
 900 769 l 1
 302 769 l 1
 307 801 313 831 319 864 c 0
 328 909 339 940 375 984 c 0
 421 1040 544 1093 636 1135 c 0
 822 1219 850 1244 850 1308 c 0
 850 1356 811 1385 733 1385 c 0
 645 1385 584 1351 557 1279 c 1
 417 1314 l 1
EndSplineSet
Validated: 1
EndChar

StartChar: uni00B3
Encoding: 179 179 197
Width: 1060
VWidth: 65
Flags: W
HStem: 756 139<468.917 759.163> 1106 113<635.943 774.555> 1395 135<567.079 816.742>
VStem: 793 150<931.367 1081.2> 821 136<1246.32 1384.47>
LayerCount: 2
Fore
SplineSet
425 987 m 1xf0
 471 923 518 895 611 895 c 0
 744 895 793 957 793 1014 c 0xf0
 793 1076 729 1106 611 1106 c 1
 639 1221 l 1
 654 1220 669 1219 680 1219 c 0
 761 1219 821 1261 821 1332 c 0
 821 1368 784 1395 712 1395 c 0
 646 1395 597 1376 560 1345 c 1
 486 1460 l 1
 547 1502 619 1530 730 1530 c 2
 741 1530 l 2
 877 1530 957 1447 957 1347 c 0xe8
 957 1257 922 1221 862 1178 c 1
 917 1145 943 1108 943 1013 c 0
 943 874 808 756 584 756 c 0
 468 756 367 792 299 886 c 1
 425 987 l 1xf0
EndSplineSet
Validated: 1
EndChar

StartChar: cedilla
Encoding: 184 184 198
Width: 1060
VWidth: 12
Flags: W
HStem: -358 125<311.312 527.869> -119 171<415 535.907>
VStem: 535 138<-221.877 -124.195>
LayerCount: 2
Fore
SplineSet
562 56 m 1
 559 48 547 -16 546 -19 c 1
 627 -23 673 -68 673 -145 c 0
 673 -159 671 -174 668 -190 c 0
 648 -291 535 -358 451 -358 c 0
 385 -358 318 -333 269 -297 c 1
 328 -191 l 1
 358 -209 393 -233 444 -233 c 0
 480 -233 525 -213 535 -175 c 1
 535 -173 l 2
 535 -171 536 -168 536 -166 c 0
 536 -140 504 -119 460 -119 c 0
 412 -119 409 -126 379 -136 c 1
 415 52 l 1
 562 56 l 1
EndSplineSet
Validated: 1
EndChar

StartChar: uni00B9
Encoding: 185 185 199
Width: 1060
VWidth: 65
Flags: W
HStem: 1133 132<392.633 489.758>
VStem: 365 570
LayerCount: 2
Fore
SplineSet
768 1527 m 1
 935 1511 l 1
 790 769 l 1
 645 769 l 1
 755 1325 l 1
 668 1246 529 1175 396 1133 c 1
 365 1265 l 1
 515 1303 667 1393 768 1527 c 1
EndSplineSet
Validated: 1
EndChar

StartChar: ordmasculine
Encoding: 186 186 200
Width: 1060
VWidth: 6
Flags: W
HStem: 534 141<198 927> 758 142<476.284 758.37> 1384 142<564.076 853.935>
VStem: 297 146<930.929 1252.37> 884 147<1053.2 1352>
LayerCount: 2
Fore
SplineSet
876 1168 m 0
 881 1196 884 1221 884 1243 c 0
 884 1342 829 1384 713 1384 c 0
 590 1384 485 1316 453 1153 c 0
 447 1121 443 1091 443 1063 c 0
 443 948 487 900 603 900 c 1
 750 900 839 976 876 1168 c 0
573 758 m 1
 403 758 297 856 297 1024 c 0
 297 1062 301 1103 310 1148 c 0
 363 1418 521 1526 707 1526 c 0
 917 1526 1031 1435 1031 1275 c 0
 1031 1246 1027 1214 1021 1181 c 0
 964 886 843 758 573 758 c 1
198 675 m 1
 954 675 l 1
 927 534 l 1
 171 534 l 1
 198 675 l 1
EndSplineSet
Validated: 1
EndChar

StartChar: onequarter
Encoding: 188 188 201
Width: 1060
VWidth: 0
Flags: W
HStem: -159 135<393 580 750 849> 534 141<162 1028> 1133 132<392.633 489.758>
VStem: 227 651 365 570
LayerCount: 2
Fore
SplineSet
162 675 m 1xe0
 1055 675 l 1
 1028 534 l 1
 135 534 l 1
 162 675 l 1xe0
EndSplineSet
Refer: 971 8324 N 1 0 0 1 0 0 2
Refer: 199 185 N 1 0 0 1 0 0 2
Validated: 1
EndChar

StartChar: onehalf
Encoding: 189 189 202
Width: 1060
VWidth: 0
Flags: W
HStem: -311 142<399 790> 305 142<488.099 731.371> 534 141<162 1028> 1133 132<392.633 489.758>
VStem: 365 570 740 146<143.927 292.265>
LayerCount: 2
Fore
SplineSet
162 675 m 1xf0
 1055 675 l 1
 1028 534 l 1
 135 534 l 1
 162 675 l 1xf0
EndSplineSet
Refer: 969 8322 N 1 0 0 1 0 0 2
Refer: 199 185 N 1 0 0 1 0 0 2
Validated: 1
EndChar

StartChar: threequarters
Encoding: 190 190 203
Width: 1060
VWidth: 0
Flags: W
HStem: -159 135<393 580 750 849> 534 141<162 1028> 756 139<468.917 759.163> 1106 113<635.943 774.555> 1395 135<567.079 816.742>
VStem: 227 651 793 150<931.367 1081.2> 821 136<1246.32 1384.47>
LayerCount: 2
Fore
SplineSet
162 675 m 1xf8
 1055 675 l 1
 1028 534 l 1
 135 534 l 1
 162 675 l 1xf8
EndSplineSet
Refer: 971 8324 N 1 0 0 1 0 0 2
Refer: 197 179 N 1 0 0 1 0 0 2
Validated: 1
EndChar

StartChar: Thorn
Encoding: 222 222 204
Width: 1060
VWidth: 0
Flags: W
HStem: -10 21G<27 200> 460 152<307 756.921> 1008 152<414 798.283> 1277 20G<416.5 437.143>
VStem: 870 160<712.05 943.983>
LayerCount: 2
Fore
SplineSet
865 800 m 0
 868 816 870 831 870 845 c 0
 870 952 778 1008 536 1008 c 1
 475 1008 429 1005 384 1004 c 1
 360 878 l 2
 324 695 307 613 307 613 c 1
 343 612 377 612 410 612 c 0
 696 612 832 632 865 800 c 0
185 -10 m 1
 27 -9 l 1
 281 1294 l 1
 349 1294 392 1295 441 1297 c 1
 414 1157 l 1
 449 1159 489 1160 543 1160 c 0
 768 1160 905 1146 993 1008 c 0
 1019 967 1030 916 1030 861 c 0
 1030 830 1026 797 1020 764 c 0
 966 484 655 460 430 460 c 0
 382 460 332 461 278 463 c 1
 227 200 215 146 185 -10 c 1
EndSplineSet
Validated: 1
EndChar

StartChar: eth
Encoding: 240 240 205
Width: 1060
VWidth: 6
Flags: W
HStem: 1 155<313.993 591.962> 1408 20G<596 646>
VStem: 79 163<231.516 616.769> 783 160<375.741 791.447>
LayerCount: 2
Fore
SplineSet
694 864 m 1
 353 864 242 628 242 395 c 0
 242 255 305 156 439 156 c 1
 666 159 783 374 783 619 c 0
 783 710 750 789 694 864 c 1
755 1167 m 1
 861 957 943 790 943 653 c 0
 943 274 769 1 409 1 c 2
 407 1 l 1
 183 2 79 193 79 356 c 0
 79 610 208 991 620 1018 c 1
 613 1033 590 1075 565 1124 c 1
 351 1076 l 1
 346 1212 l 1
 505 1248 l 1
 483 1294 465 1330 462 1341 c 1
 636 1428 l 1
 656 1379 675 1334 695 1291 c 1
 923 1344 l 1
 929 1208 l 1
 755 1167 l 1
EndSplineSet
Validated: 1
EndChar

StartChar: thorn
Encoding: 254 254 206
Width: 1060
VWidth: -2
Flags: W
HStem: -7 155<304.972 591.033> 858 155<464.485 751.056> 1296 20G<277 444.5>
VStem: -22 161<-397 -118.344> 278 167<1034.8 1297.6> 798 161<401.089 811.703>
LayerCount: 2
Fore
SplineSet
798 668 m 0
 798 788 750 858 623 858 c 0
 523 858 429 812 336 698 c 1
 251 262 l 1
 293 211 309 148 429 148 c 0
 619 148 798 307 798 668 c 0
188 739 m 2
 190 747 259 1109 261 1117 c 0
 272 1174 278 1229 278 1270 c 0
 278 1279 278 1288 277 1296 c 1
 445 1316 l 1
 444 1308 445 1259 438 1225 c 0
 379 922 l 1
 453 978 529 1013 652 1013 c 0
 838 1013 959 886 959 699 c 0
 959 220 759 -7 385 -7 c 0
 285 -7 253 25 211 56 c 1
 171 -151 l 2
 153 -245 145 -329 139 -397 c 1
 -22 -406 l 1
 -17 -333 -3 -237 15 -146 c 2
 188 739 l 2
EndSplineSet
Validated: 1
EndChar

StartChar: Aogonek
Encoding: 260 260 209
Width: 1060
VWidth: 32
Flags: W
HStem: -462 144<612.311 832.1> 0 21G<-33 131.5> 332 160<359.395 739> 1281 20G<601.807 785.859>
VStem: -33 162<0 114.376> 445 159<-306.953 -181.552>
LayerCount: 2
Fore
SplineSet
739 495 m 1
 659 1082 l 1
 355 475 l 1
 418 488 474 488 558 492 c 1
 739 495 l 1
969 0 m 1
 847 -85 619 -160 605 -234 c 0
 604 -239 604 -244 604 -249 c 0
 604 -295 652 -318 710 -318 c 0
 768 -318 815 -285 849 -263 c 1
 907 -369 l 1
 854 -417 757 -462 678 -462 c 0
 516 -462 445 -393 445 -287 c 0
 445 -270 446 -253 450 -234 c 0
 484 -60 724 -17 794 41 c 1
 750 332 l 1
 608 329 386 327 270 300 c 1
 177 121 l 2
 161 92 134 28 129 0 c 1
 -33 0 l 1
 -27 28 9 116 30 159 c 2
 612 1301 l 1
 783 1301 l 1
 969 0 l 1
EndSplineSet
Validated: 1
EndChar

StartChar: aogonek
Encoding: 261 261 210
Width: 1060
VWidth: 6
Flags: W
HStem: -445 144<509.311 729.1> -8 152<263.542 494.273> 890 144<420.442 744.614>
VStem: 66 152<187.28 570.631> 342 159<-289.953 -169.473> 715 151<133.409 230>
LayerCount: 2
Fore
SplineSet
1006 1002 m 1
 886 356 l 2
 873 290 866 246 866 214 c 0
 866 160 866 140 882 140 c 0
 887 140 893 141 900 144 c 1
 963 43 l 1
 841 -42 516 -143 502 -217 c 0
 501 -222 501 -227 501 -232 c 0
 501 -278 549 -301 607 -301 c 0
 665 -301 712 -268 746 -246 c 1
 804 -352 l 1
 751 -400 654 -445 575 -445 c 0
 413 -445 342 -376 342 -270 c 0
 342 -253 343 -236 347 -217 c 0
 373 -85 602 -9 764 64 c 1
 733 87 715 124 715 173 c 0
 715 181 715 189 716 198 c 1
 658 114 533 -8 321 -8 c 0
 166 -8 66 140 66 343 c 0
 66 394 72 448 85 504 c 0
 169 862 303 1034 604 1034 c 0
 730 1034 793 994 841 961 c 1
 846 984 849 1006 851 1026 c 1
 1006 1002 l 1
243 514 m 0
 226 451 218 395 218 346 c 0
 218 218 272 144 350 144 c 0
 576 144 708 442 766 608 c 1
 811 804 l 1
 761 839 688 890 584 890 c 0
 393 890 314 774 243 514 c 0
EndSplineSet
Validated: 1
EndChar

StartChar: dcaron
Encoding: 271 271 211
Width: 1060
VWidth: 32
Flags: W
HStem: -8 152<226.542 446.932> 890 144<378.975 669.746> 1392 20G<826.5 955.333 1090.5 1240>
VStem: 29 152<187.28 570.631> 627 141<115.046 177> 1097 143<1212.55 1390>
LayerCount: 2
Fore
SplineSet
206 514 m 0
 189 451 181 395 181 346 c 0
 181 218 235 144 313 144 c 0
 539 144 609 442 667 608 c 1
 711 804 l 1
 672 855 617 890 513 890 c 0
 366 890 277 774 206 514 c 0
981 1388 m 1
 787 356 l 2
 774 290 768 246 768 214 c 0
 768 162 784 142 819 109 c 1
 713 -10 l 1
 672 27 627 49 627 152 c 0
 627 160 626 168 627 177 c 1
 569 93 496 -8 284 -8 c 0
 129 -8 29 140 29 343 c 0
 29 394 35 448 48 504 c 0
 132 862 270 1034 533 1034 c 0
 659 1034 705 1005 741 961 c 1
 746 984 826 1397 827 1412 c 1
 981 1388 l 1
1097 1397 m 1
 1240 1390 l 1
 1219 1173 1116 1050 1027 970 c 1
 944 1025 l 1
 990 1067 1084 1231 1097 1397 c 1
EndSplineSet
Validated: 1
EndChar

StartChar: Dcroat
Encoding: 272 272 212
Width: 1060
VWidth: 0
Flags: W
HStem: -10 151<183 598.492> 780 147<66 153 339 666> 1152 152<375.491 684.326>
VStem: 859 164<461.499 960.578>
LayerCount: 2
Fore
SplineSet
458 1152 m 2
 428 1152 l 2
 412 1152 401 1153 383 1150 c 1
 379 1125 373 1094 367 1064 c 0
 359 1020 349 974 339 927 c 1
 666 927 l 1
 666 780 l 1
 310 780 l 1
 257 506 201 231 183 144 c 1
 270 141 315 141 375 141 c 0
 489 141 675 167 775 346 c 0
 800 391 829 479 839 533 c 0
 852 600 859 669 859 733 c 0
 859 820 846 899 819 954 c 0
 755 1082 679 1152 458 1152 c 2
181 927 m 1
 187 957 l 2
 211 1083 231 1205 239 1291 c 1
 322 1299 367 1304 466 1304 c 0
 737 1304 878 1224 966 1045 c 0
 1004 966 1023 867 1023 760 c 0
 1023 698 1016 633 1004 568 c 0
 943 250 816 36 483 -3 c 0
 427 -9 376 -10 321 -10 c 0
 237 -10 105 -3 -9 -3 c 1
 -3 30 -3 29 19 125 c 1
 28 173 95 489 153 780 c 1
 66 780 l 1
 66 927 l 1
 181 927 l 1
EndSplineSet
Validated: 1
EndChar

StartChar: dcroat
Encoding: 273 273 213
Width: 1060
VWidth: -2
Flags: W
HStem: -8 152<226.542 457.273> 890 144<383.442 707.614> 1119 150<548 835 1021 1127> 1392 20G<888.5 1018.17>
VStem: 29 152<187.28 570.631> 678 152<79.1014 230> 889 155<1313.83 1390.22>
LayerCount: 2
Fore
SplineSet
206 514 m 0
 189 451 181 395 181 346 c 0
 181 218 235 144 313 144 c 0
 539 144 671 442 729 608 c 1
 774 804 l 1
 724 839 651 890 547 890 c 0
 356 890 277 774 206 514 c 0
993 1119 m 1
 849 356 l 2
 836 290 830 246 830 214 c 0
 830 162 847 142 882 109 c 1
 776 -10 l 1
 735 27 678 70 678 173 c 0
 678 181 678 189 679 198 c 1
 621 114 496 -8 284 -8 c 0
 129 -8 29 140 29 343 c 0
 29 394 35 448 48 504 c 0
 132 862 266 1034 567 1034 c 0
 693 1034 756 994 804 961 c 1
 806 970 820 1038 835 1119 c 1
 548 1119 l 1
 548 1269 l 1
 863 1269 l 1
 877 1344 888 1405 889 1412 c 1
 1044 1388 l 1
 1021 1269 l 1
 1127 1269 l 1
 1127 1119 l 1
 993 1119 l 1
EndSplineSet
Validated: 1
EndChar

StartChar: Eogonek
Encoding: 280 280 218
Width: 1060
VWidth: 32
Flags: W
HStem: -457 144<515.497 732.1> -3 151<211 581> 666 150<344 778> 1144 153<407 1062>
VStem: 350 159<-300.89 -173.326>
LayerCount: 2
Fore
SplineSet
278 1293 m 1
 335 1297 405 1297 483 1297 c 0
 514 1297 547 1297 581 1297 c 2
 691 1297 l 2
 840 1297 976 1294 1050 1294 c 2
 1066 1294 l 1
 1062 1140 l 1
 407 1144 l 1
 344 816 l 1
 782 816 l 1
 778 662 l 1
 314 666 l 1
 309 636 l 1
 270 433 226 225 211 148 c 1
 730 148 l 2
 786 148 807 167 807 167 c 1
 885 27 l 1
 758 -62 509 -154 509 -240 c 0
 509 -286 552 -313 610 -313 c 0
 668 -313 715 -280 749 -258 c 1
 807 -364 l 1
 754 -412 657 -457 578 -457 c 0
 416 -457 350 -353 350 -278 c 0
 350 -143 465 -67 581 -3 c 1
 26 -3 l 1
 278 1293 l 1
EndSplineSet
Validated: 1
EndChar

StartChar: eogonek
Encoding: 281 281 219
Width: 1060
VWidth: 32
Flags: W
HStem: -443 144<390.311 610.1> 869 152<447.657 761.392>
VStem: 86 160<213.344 344.433> 223 159<-287.953 -147.48> 811 146<635.961 821.03>
LayerCount: 2
Back
SplineSet
234 311 m 4
 234 206 290 146 383 146 c 4
 563 146 670 304 696 345 c 5
 696 440 l 5
 639 475 559 504 489 504 c 4
 353 504 234 429 234 311 c 4
760.513 79.4528 m 5
 747.805 99.1817 737.755 123.706 732 156 c 5
 654 81 565 -6 383 -6 c 4
 212 -6 78 135 78 301 c 4
 78 377 108 466 167 527 c 4
 262 624 363 648 481 648 c 4
 566 648 641 630 695 597 c 5
 695 792 628 877 476 877 c 4
 338 877 283 828 203 685 c 5
 73 767 l 5
 169 949 296 1025 474 1028 c 5
 699 1028 849 878 849 657 c 5
 853 318 l 6
 853 283 853 190 866 173 c 4
 879 155 916 132 945 109 c 5
 945 109 880 42.002 828 0 c 4
 723.34 -84.5332 574 -142.338 574 -216.338 c 4
 574 -272.338 630 -299.838 694 -299.838 c 4
 752 -299.838 793.5 -266.838 823.5 -244.838 c 5
 901.5 -351.338 l 5
 857.5 -399.337 769 -444.338 690 -444.338 c 4
 502 -444.338 419 -351.338 419 -216.338 c 4
 419 -36.3379 711.875 18.875 760.513 79.4528 c 5
EndSplineSet
Fore
SplineSet
262 492 m 1xc8
 377 500 586 513 700 581 c 0
 775 626 811 683 811 735 c 0
 811 808 740 869 604 869 c 0
 434 869 311 743 262 492 c 1xc8
632 1021 m 0
 847 1021 957 885 957 740 c 0
 957 639 903 534 794 467 c 0
 641 374 390 352 246 341 c 1
 246 338 246 334 246 330 c 0xe8
 246 258 285 143 479 143 c 0
 658 143 778 210 827 264 c 1
 929 155 l 1
 798 16 410 -77 383 -215 c 0
 382 -220 382 -225 382 -230 c 0
 382 -276 430 -299 488 -299 c 0
 546 -299 593 -266 627 -244 c 1
 685 -350 l 1
 632 -398 535 -443 456 -443 c 0
 294 -443 223 -374 223 -268 c 0xd8
 223 -251 224 -234 228 -215 c 0
 247 -130 315 -64 399 -8 c 1
 187 9 86 147 86 356 c 0xe8
 86 405 92 459 103 516 c 0
 159 802 349 1021 632 1021 c 0
EndSplineSet
Validated: 1
EndChar

StartChar: Iogonek
Encoding: 302 302 238
Width: 1060
VWidth: 32
Flags: W
HStem: -480 144<412.311 632.1> 4 147<108 376 537 577 701.737 774> 1144 154<329 571 731 997>
VStem: 245 159<-324.953 -198.488>
LayerCount: 2
Fore
SplineSet
329 1298 m 1
 486 1302 567 1302 663 1302 c 0
 768 1302 864 1301 1027 1299 c 1
 997 1147 l 1
 874 1147 827 1152 731 1152 c 1
 537 152 l 1
 583 152 609 153 660 153 c 0
 705 153 752 152 803 149 c 1
 774 -1 l 1
 771 -1 768 -1 766 -1 c 1
 642 -84 418 -180 405 -252 c 0
 404 -257 404 -262 404 -267 c 0
 404 -313 452 -336 510 -336 c 0
 568 -336 615 -303 649 -281 c 1
 707 -387 l 1
 654 -435 557 -480 478 -480 c 0
 316 -480 245 -411 245 -305 c 0
 245 -288 246 -271 250 -252 c 0
 279 -99 480 -45 577 5 c 1
 524 5 474 4 410 4 c 0
 336 4 234 -3 79 -3 c 1
 108 146 l 1
 194 150 244 151 301 151 c 2
 376 151 l 1
 571 1151 l 1
 505 1150 412 1150 305 1144 c 1
 329 1298 l 1
EndSplineSet
Validated: 1
EndChar

StartChar: iogonek
Encoding: 303 303 239
Width: 1060
VWidth: 32
Flags: W
HStem: -474 144<448.311 668.1> 1014 20G<470.243 629> 1181 225<511 703>
VStem: 281 159<-318.953 -198.357> 353 159<139.038 478.227>
LayerCount: 2
Fore
SplineSet
511 1406 m 1xe0
 746 1406 l 1
 703 1181 l 1
 468 1181 l 1
 511 1406 l 1xe0
654 1010 m 1
 517 284 l 2
 513 265 512 248 512 232 c 0xe8
 512 161 549 124 624 124 c 0
 717 124 815 148 894 200 c 1
 970 83 l 1
 962 77 954 72 945 67 c 0
 802 -22 454 -176 441 -246 c 0
 440 -251 440 -256 440 -261 c 0
 440 -307 488 -330 546 -330 c 0
 604 -330 651 -297 685 -275 c 1
 743 -381 l 1
 690 -429 593 -474 514 -474 c 0
 352 -474 281 -405 281 -299 c 0xf0
 281 -282 282 -265 286 -246 c 0
 301 -168 406 -85 525 -11 c 1
 393 15 353 115 353 209 c 0xe8
 353 234 356 257 360 280 c 2
 457 791 l 1
 422 765 317 725 243 701 c 1
 185 845 l 1
 459 938 504 1034 504 1034 c 1
 654 1010 l 1
EndSplineSet
Validated: 1
EndChar

StartChar: IJ
Encoding: 306 306 241
Width: 1060
VWidth: 0
Flags: W
HStem: 0 152<4 77 237 287 572.169 717.008> 1152 150<227 271 431 530 691 905>
VStem: 399 164<144.09 422.875>
LayerCount: 2
Fore
SplineSet
530 1151 m 1
 492 1152 466 1152 431 1152 c 1
 237 152 l 1
 316 150 l 1
 287 0 l 1
 257 1 220 1 182 1 c 0
 107 1 25 0 -24 0 c 1
 4 146 l 1
 27 150 45 152 60 152 c 2
 77 152 l 1
 271 1152 l 1
 205 1151 227 1150 199 1144 c 1
 227 1298 l 1
 268 1302 268 1302 364 1302 c 0
 410 1302 451 1302 494 1302 c 0
 516 1302 538 1302 561 1302 c 1
 530 1151 l 1
691 1296 m 1
 740 1296 782 1295 821 1295 c 0
 937 1295 938 1297 1102 1297 c 1
 1070 1142 1028 868 994 642 c 0
 917 138 853 -8 587 -8 c 0
 446 -8 399 107 399 254 c 0
 399 308 405 367 416 426 c 1
 576 425 l 1
 568 372 563 320 563 276 c 0
 563 197 578 142 615 142 c 0
 729 142 763 262 806 482 c 0
 816 536 826 594 839 659 c 0
 857 754 890 1007 905 1144 c 1
 783 1144 776 1144 660 1146 c 1
 691 1296 l 1
EndSplineSet
Validated: 1
EndChar

StartChar: ij
Encoding: 307 307 242
Width: 1060
VWidth: 0
Flags: W
HStem: -387 156<285.741 661.366> -6 137<376.676 556.731> 870 150<645.361 891.368> 1179 225<383 574 942 1132>
VStem: 208 165<134.249 403.39> 892 159<595.609 866.758>
LayerCount: 2
Fore
SplineSet
714 -114 m 1
 887 782 l 1
 890 795 892 806 892 816 c 0
 892 863 856 870 840 870 c 1
 767 870 735 856 641 835 c 1
 596 968 l 1
 712 1005 787 1020 842 1020 c 1
 851 1020 862 1020 875 1020 c 0
 942 1020 1051 1009 1051 857 c 0
 1051 833 1048 804 1042 772 c 1
 869 -118 l 0
 841 -263 756 -387 518 -387 c 3
 395 -387 274 -380 82 -269 c 1
 169 -120 l 1
 302 -225 464 -231 527 -231 c 0
 533 -231 539 -231 544 -231 c 3
 656 -231 705 -149 714 -114 c 1
410 1020 m 2
 530 1020 l 1
 477 747 375 217 375 217 c 1
 373 208 373 200 373 193 c 0
 373 147 404 131 448 131 c 0
 499 131 540 153 572 192 c 1
 635 90 l 1
 574 19 473 -6 405 -6 c 0
 258 -6 208 65 208 155 c 0
 208 174 210 193 214 213 c 2
 336 836 l 1
 288 807 275 804 168 746 c 1
 127 867 l 1
 226 912 313 980 363 1020 c 1
 378 1021 390 1020 410 1020 c 2
942 1404 m 1
 1175 1401 l 1
 1132 1176 l 1
 898 1179 l 1
 942 1404 l 1
383 1410 m 1
 617 1407 l 1
 574 1182 l 1
 339 1185 l 1
 383 1410 l 1
EndSplineSet
Validated: 1
EndChar

StartChar: Lcaron
Encoding: 317 317 252
Width: 1060
VWidth: 32
Flags: W
HStem: -3 154<256 877.834> 1278 20<314.111 479>
VStem: 558 152<899.793 1021.75>
LayerCount: 2
Fore
SplineSet
819 1241 m 1
 781 1129 755 1020 710 869 c 1
 558 903 l 1
 576 1045 604 1186 625 1289 c 1
 819 1241 l 1
EndSplineSet
Refer: 35 76 N 1 0 0 1 0 0 2
Validated: 1
EndChar

StartChar: lcaron
Encoding: 318 318 253
Width: 1060
VWidth: 32
Flags: W
HStem: -18 142<481.209 835.381> 1020 21G<752.588 864.5>
VStem: 280 161<166.217 556.789> 690 152<1050.79 1172.75>
LayerCount: 2
Fore
SplineSet
952 1392 m 1
 914 1280 887 1171 842 1020 c 1
 690 1054 l 1
 708 1196 737 1337 758 1440 c 1
 952 1392 l 1
EndSplineSet
Refer: 12 108 N 1 0 0 1 0 0 2
Validated: 1
EndChar

StartChar: Lslash
Encoding: 321 321 256
Width: 1060
VWidth: 0
Flags: W
HStem: -3 154<377 877.834> 1278 20G<435.096 600>
LayerCount: 2
Back
SplineSet
292 513 m 5
 243.333 489.667 194.667 466.333 146 443 c 5
 124.333 507.667 102.667 572.333 81 637 c 5
 167.333 678.667 253.667 720.333 340 762 c 5
 376.667 949.667 413.333 1137.33 450 1325 c 5
 534.667 1325 619.333 1325 704 1325 c 5
 676 1182 648 1039 620 896 c 5
 705.333 937 790.667 978 876 1019 c 5
 897.667 954 919.333 889 941 824 c 5
 818 765 695 706 572 647 c 5
 543.333 500.333 514.667 353.667 486 207 c 5
 592 207 698 207 804 207 c 5
 864 210 875 213 922 228 c 5
 933.333 162.333 944.667 96.6667 956 31 c 5
 906 15 840 -3 765 -3 c 5
 573.667 -3 382.333 -3 191 -3 c 5
 224.667 169 258.333 341 292 513 c 5
EndSplineSet
Fore
SplineSet
289 529 m 1
 170 470 l 1
 104 604 l 1
 325 714 l 1
 439 1298 l 1
 600 1298 l 1
 504 802 l 1
 876 987 l 1
 942 852 l 1
 468 617 l 1
 377 151 l 1
 777 151 l 2
 837 154 833 155 880 170 c 1
 934 28 l 1
 876 0 824 -3 749 -3 c 2
 186 -3 l 1
 289 529 l 1
EndSplineSet
Validated: 1
EndChar

StartChar: lslash
Encoding: 322 322 257
Width: 1060
VWidth: -2
Flags: W
HStem: -18 142<481.209 835.381> 1222 148<735.21 978.567> 1312 148<390.208 501.951> 1404 20G<942 970>
VStem: 187 147<1096 1250.75> 280 161<167.298 432.16>
LayerCount: 2
Fore
SplineSet
187 1096 m 1xa8
 187 1328 288 1460 493 1460 c 0xa8
 589 1460 668 1442 767 1402 c 0
 827 1380 860 1370 886 1370 c 0
 922 1370 936 1390 948 1424 c 1
 1058 1324 l 1
 1027 1266 971 1222 890 1222 c 0
 843 1222 784 1242 724 1266 c 0
 703 1275 683 1283 664 1289 c 1
 450 376 l 2
 444 344 441 316 441 291 c 0
 441 158 517 124 624 124 c 0
 717 124 815 148 894 200 c 1
 970 83 l 1
 870 12 722 -18 598 -18 c 0
 385 -18 280 106 280 281 c 0xd4
 280 310 283 340 289 372 c 2
 504 1312 l 1
 382 1307 334 1223 334 1090 c 1
 187 1096 l 1xa8
EndSplineSet
Validated: 1
EndChar

StartChar: Eng
Encoding: 330 330 264
Width: 1060
VWidth: 0
Flags: W
HStem: -359 155<277 521.271> -3 21G<-1 161.896> 1143 153<524.425 797.766> 1296 20G<313.754 376>
VStem: 216 171<1147 1268.25> 856 161<721.598 1086.54>
LayerCount: 2
Fore
SplineSet
717 1296 m 0xec
 942 1296 1017 1178 1017 1013 c 0
 1017 965 1010 914 1000 860 c 0
 955 629 915 400 869 165 c 2
 862 131 l 2
 812 -125 717 -359 281 -359 c 2
 247 -359 l 1
 277 -204 l 1
 624 -198 670 -58 702 106 c 2
 847 852 l 2
 853 883 856 912 856 939 c 0
 856 1069 788 1143 689 1143 c 0xec
 495 1143 386 984 337 916 c 1
 158 -3 l 1
 -1 -3 l 1
 206 1059 l 2
 213 1097 216 1132 216 1162 c 0
 216 1221 206 1259 206 1259 c 1
 372 1316 l 1xdc
 380 1287 387 1263 387 1221 c 0
 387 1206 386 1189 384 1168 c 1
 464 1270 581 1296 717 1296 c 0xec
EndSplineSet
Validated: 1
EndChar

StartChar: eng
Encoding: 331 331 265
Width: 1060
VWidth: 6
Flags: W
HStem: -368 156<313 502.068> -1 21G<41.881 196> 872 150<494.767 755.653> 1020 20G<277.73 370>
VStem: 205 172<808.484 1005.35> 773 167<724.927 849.182>
LayerCount: 2
Fore
SplineSet
376 927 m 1xdc
 515 993 581 1022 691 1022 c 0
 802 1022 940 957 940 832 c 0
 940 821 938 808 936 796 c 2
 822 211 l 2
 764 -88 707 -368 289 -368 c 2
 285 -368 l 1
 313 -212 l 2
 314 -212 315 -212 316 -212 c 0
 547 -212 600 -114 651 149 c 0
 691 354 731 560 771 765 c 0
 772 771 773 777 773 782 c 0
 773 844 701 872 639 872 c 0xec
 576 872 504 830 345 760 c 1
 196 0 l 1
 38 -1 l 1
 175 705 l 2
 198 823 205 875 205 923 c 0
 205 948 203 971 201 1003 c 1
 368 1040 l 1
 372 1020 377 990 377 953 c 0
 377 945 377 936 376 927 c 1xdc
EndSplineSet
Validated: 1
EndChar

StartChar: Scedilla
Encoding: 350 350 282
Width: 1060
VWidth: 32
Flags: W
HStem: -406 125<213.312 429.869> 1 141<277.065 316 452.577 641.016> 1051 21G<938.5 979.941> 1148 154<449.685 881.998>
VStem: 4 162<237.58 319> 182 171<864.58 1065.2> 437 138<-269.877 -172.195> 793 164<277.396 547.404>
LayerCount: 2
Fore
SplineSet
166 358 m 1
 166 238 272 142 461 142 c 0
 674 142 793 277 793 429 c 0
 793 508 750 561 690 589 c 0
 584 639 431 649 310 709 c 1
 240 745 182 815 182 923 c 0
 182 1187 425 1302 648 1302 c 0
 856 1302 997 1257 1066 1204 c 1
 967 1051 l 1
 910 1102 808 1148 623 1148 c 0
 479 1148 353 1072 353 959 c 0
 353 900 380 869 423 847 c 0
 529 791 686 792 806 732 c 1
 888 688 957 599 957 468 c 0
 957 137 705 -3 460 -9 c 1
 455 -31 448 -65 448 -67 c 1
 529 -71 575 -116 575 -193 c 0
 575 -207 573 -222 570 -238 c 0
 550 -339 437 -406 353 -406 c 0
 287 -406 220 -381 171 -345 c 1
 230 -239 l 1
 260 -257 295 -281 346 -281 c 0
 382 -281 427 -261 437 -223 c 1
 437 -221 l 2
 437 -219 438 -216 438 -214 c 0
 438 -188 406 -167 362 -167 c 0
 314 -167 311 -174 281 -184 c 1
 316 1 l 1
 101 39 4 170 4 319 c 1
 166 358 l 1
EndSplineSet
Validated: 1
EndChar

StartChar: scedilla
Encoding: 351 351 283
Width: 1060
VWidth: 32
Flags: W
HStem: -411 125<183.312 399.869> -20 143<423.718 622.89> 882 148<474.926 893.742>
VStem: 71 160<188.929 328.704> 267 168<694.631 841.832> 407 138<-274.877 -177.195> 715 172<199.846 372.533>
LayerCount: 2
Fore
SplineSet
367 574 m 0xf6
 301 622 267 685 267 756 c 0
 267 773 269 790 273 808 c 0
 305 955 432 1030 640 1030 c 0
 776 1030 885 1013 984 972 c 1
 926 823 l 1
 857 860 751 882 626 882 c 0
 496 882 435 821 435 766 c 0xfa
 435 744 444 724 463 708 c 0
 642 558 887 499 887 306 c 0
 887 290 885 273 882 256 c 0
 839 37 649 -19 429 -20 c 1
 424 -41 419 -70 418 -72 c 1
 499 -76 545 -121 545 -198 c 0
 545 -212 543 -227 540 -243 c 0
 520 -344 407 -411 323 -411 c 0
 257 -411 190 -386 141 -350 c 1
 200 -244 l 1
 230 -262 265 -286 316 -286 c 0
 352 -286 397 -266 407 -228 c 1
 407 -226 l 2
 407 -224 408 -221 408 -219 c 0
 408 -193 376 -172 332 -172 c 0
 284 -172 281 -179 251 -189 c 1
 287 -1 l 1
 289 -1 l 1
 161 37 71 132 71 267 c 0
 71 287 73 308 77 330 c 1
 234 329 l 1
 232 317 231 306 231 295 c 0
 231 183 345 123 448 123 c 0
 571 123 693 172 714 282 c 0
 715 286 715 291 715 295 c 0
 715 391 508 471 367 574 c 0xf6
EndSplineSet
Validated: 1
EndChar

StartChar: Tcommaaccent
Encoding: 354 354 286
Width: 1060
VWidth: 32
Flags: W
HStem: -385 125<232.312 448.869> 1144 155<216 550 710 1054.96>
VStem: 456 138<-248.877 -151.195>
LayerCount: 2
Fore
SplineSet
326 -9 m 1
 550 1144 l 1
 352 1144 262 1143 186 1143 c 1
 216 1298 l 1
 338 1298 793 1299 981 1299 c 0
 1054 1299 1101 1287 1118 1284 c 1
 1055 1132 l 1
 1055 1132 995 1144 945 1144 c 2
 710 1144 l 1
 486 -9 l 1
 475 -9 l 1
 471 -27 468 -44 467 -46 c 1
 548 -50 594 -95 594 -172 c 0
 594 -186 592 -201 589 -217 c 0
 569 -318 456 -385 372 -385 c 0
 306 -385 239 -360 190 -324 c 1
 249 -218 l 1
 279 -236 314 -260 365 -260 c 0
 401 -260 446 -240 456 -202 c 1
 456 -200 l 2
 456 -198 457 -195 457 -193 c 0
 457 -167 425 -146 381 -146 c 0
 333 -146 330 -153 300 -163 c 1
 330 -9 l 1
 326 -9 l 1
EndSplineSet
Validated: 1
EndChar

StartChar: tcommaaccent
Encoding: 355 355 287
Width: 1060
VWidth: 32
Flags: W
HStem: -382 125<300.312 516.869> -6 155<539.691 735.809> 865 147<141.015 142 143.267 305 587 903>
VStem: 198 162<206.508 583.06> 524 138<-245.877 -148.195>
LayerCount: 2
Fore
SplineSet
377 474 m 1
 370 434 l 1
 363 400 360 369 360 342 c 0
 360 202 444 149 568 149 c 0
 719 149 790 225 829 294 c 1
 950 201 l 1
 904 118 786 -5 543 -6 c 1
 539 -24 536 -41 535 -43 c 1
 616 -47 662 -92 662 -169 c 0
 662 -183 660 -198 657 -214 c 0
 637 -315 524 -382 440 -382 c 0
 374 -382 307 -357 258 -321 c 1
 317 -215 l 1
 347 -233 382 -257 433 -257 c 0
 469 -257 514 -237 524 -199 c 1
 524 -197 l 2
 524 -195 525 -192 525 -190 c 0
 525 -164 493 -143 449 -143 c 0
 401 -143 398 -150 368 -160 c 1
 402 15 l 1
 281 56 198 155 198 318 c 0
 198 353 202 390 210 431 c 2
 218 474 l 1
 242 578 261 672 305 865 c 1
 226 865 l 2
 198 865 169 861 142 854 c 1
 123 1000 l 1
 149 1009 222 1012 255 1012 c 2
 335 1012 l 1
 349 1082 367 1176 381 1246 c 1
 539 1245 l 1
 526 1179 507 1085 493 1017 c 1
 615 1017 l 1
 760 1018 914 1019 914 1019 c 1
 932 1019 l 1
 903 872 l 1
 587 872 l 2
 541 872 513 869 467 869 c 1
 418 665 400 574 377 474 c 1
EndSplineSet
Validated: 1
EndChar

StartChar: tcaron
Encoding: 357 357 289
Width: 1060
VWidth: 32
Flags: W
HStem: -6 155<419.13 735.479> 865 147<141.015 142 143.267 305 587 903>
VStem: 198 162<206.068 583.06> 669 152<1127.79 1249.75>
LayerCount: 2
Fore
SplineSet
931 1469 m 1
 893 1357 866 1248 821 1097 c 1
 669 1131 l 1
 687 1273 716 1414 737 1517 c 1
 931 1469 l 1
EndSplineSet
Refer: 19 116 N 1 0 0 1 0 0 2
Validated: 1
EndChar

StartChar: Tbar
Encoding: 358 358 290
Width: 1060
VWidth: 0
Flags: W
HStem: -9 21G<326 489.891> 577 159<232 440 631 857> 1144 155<216 550 710 1054.96>
LayerCount: 2
Fore
SplineSet
631 736 m 1
 886 736 l 1
 857 577 l 1
 600 577 l 1
 486 -9 l 1
 326 -9 l 1
 440 577 l 1
 203 577 l 1
 232 736 l 1
 471 736 l 1
 550 1144 l 1
 352 1144 262 1143 186 1143 c 1
 216 1298 l 1
 338 1298 793 1299 981 1299 c 0
 1054 1299 1101 1287 1118 1284 c 1
 1055 1132 l 1
 1055 1132 995 1144 945 1144 c 2
 710 1144 l 1
 631 736 l 1
EndSplineSet
Validated: 1
EndChar

StartChar: tbar
Encoding: 359 359 291
Width: 1060
VWidth: 0
Flags: W
HStem: -6 155<419.13 735.479> 504 159<94 225 419 662> 865 147<141.015 142 143.267 305 587 903>
VStem: 198 162<206.068 503.531>
LayerCount: 2
Fore
SplineSet
377 474 m 2
 370 434 l 1
 363 400 360 369 360 342 c 0
 360 202 444 149 568 149 c 0
 719 149 790 225 829 294 c 1
 950 201 l 1
 904 118 785 -6 540 -6 c 0
 347 -6 198 99 198 318 c 0
 198 353 202 390 210 431 c 2
 218 474 l 2
 220 484 223 494 225 504 c 1
 65 504 l 1
 94 663 l 1
 260 663 l 1
 272 718 286 783 305 865 c 1
 226 865 l 2
 198 865 169 861 142 854 c 1
 123 1000 l 1
 149 1009 222 1012 255 1012 c 2
 335 1012 l 1
 349 1082 367 1176 381 1246 c 1
 539 1245 l 1
 526 1179 507 1085 493 1017 c 1
 615 1017 l 1
 760 1018 914 1019 914 1019 c 1
 932 1019 l 1
 903 872 l 1
 587 872 l 2
 541 872 513 869 467 869 c 1
 447 784 431 718 419 663 c 1
 691 663 l 1
 662 504 l 1
 384 504 l 1
 382 494 379 484 377 474 c 2
EndSplineSet
Validated: 1
EndChar

StartChar: Uogonek
Encoding: 370 370 302
Width: 1060
VWidth: 32
Flags: W
HStem: -466 144<328.311 548.1> 1293 9G<229.5 406 946 1111>
VStem: 70 162<204.938 657.284> 161 159<-310.953 -180.641> 957 154<1148.03 1301.21>
LayerCount: 2
Fore
SplineSet
957 1313 m 1xe8
 1111 1300 l 1
 1090 1240 1082 1197 1072 1143 c 0
 1044 998 1022 871 1000 760 c 2
 988 702 l 1
 943 470 896 248 759 119 c 1
 663 20 335 -164 321 -238 c 0
 320 -243 320 -248 320 -253 c 0
 320 -299 368 -322 426 -322 c 0
 484 -322 531 -289 565 -267 c 1
 623 -373 l 1
 570 -421 473 -466 394 -466 c 0
 232 -466 161 -397 161 -291 c 0xd8
 161 -274 162 -257 166 -238 c 0
 182 -154 267 -79 364 -8 c 1
 147 7 70 120 70 312 c 0
 70 354 73 398 80 447 c 0
 90 522 111 644 137 779 c 0
 170 951 211 1144 248 1302 c 1
 406 1302 l 1
 370 1137 323 913 287 728 c 0
 263 605 244 499 237 439 c 0
 234 412 232 386 232 363 c 0
 232 208 299 141 431 141 c 1
 538 146 595 169 660 225 c 1
 741 299 792 505 830 702 c 0
 854 825 878 971 911 1141 c 0
 925 1212 935 1251 957 1313 c 1xe8
EndSplineSet
Validated: 1
EndChar

StartChar: uogonek
Encoding: 371 371 303
Width: 1060
VWidth: 32
Flags: W
HStem: -442 144<493.311 713.1> 0 155<257.953 450.212> 35 125<850.749 891> 1001 20G<269.778 392 835.905 983.636>
VStem: 79 167<164.519 462.848> 228 164<762.633 996.196> 326 159<-286.953 -163.715> 700 145<160.404 291.394>
LayerCount: 2
Fore
SplineSet
891 160 m 1xb9
 929 35 l 1xb9
 752 -43 500 -140 486 -214 c 0
 485 -219 485 -224 485 -229 c 0
 485 -275 533 -298 591 -298 c 0
 649 -298 696 -265 730 -243 c 1
 788 -349 l 1
 735 -397 638 -442 559 -442 c 0
 397 -442 326 -373 326 -267 c 0
 326 -250 328 -233 331 -214 c 0
 355 -78 575 18 734 84 c 1
 714 104 700 134 700 182 c 0
 700 214 705 252 715 298 c 1
 619 121 476 1 325 0 c 0
 195 0 79 88 79 225 c 0xdb
 79 241 81 258 84 275 c 0
 130 527 228 869 228 977 c 0
 228 984 228 989 227 994 c 1
 392 1021 l 1
 392 1018 392 1014 392 1011 c 0xd5
 392 912 319 666 251 306 c 0
 248 288 246 270 246 254 c 0
 246 199 267 155 334 155 c 0xd9
 499 155 676 457 771 691 c 1
 840 1028 l 1
 998 1006 l 1
 847 239 l 2
 846 231 845 224 845 217 c 0
 845 188 866 160 891 160 c 1xb9
EndSplineSet
Validated: 1
EndChar

StartChar: longs
Encoding: 383 383 315
Width: 1060
VWidth: -2
Flags: W
HStem: 0 21G<301 457.5> 859 153<270 464> 1266 152<731.44 1037.82>
LayerCount: 2
Fore
SplineSet
1036 1256 m 1
 996 1264 928 1266 857 1266 c 0
 709 1266 682 1168 661 1060 c 2
 652 1013 l 1
 622 859 458 4 457 0 c 1
 301 0 l 1
 306 25 437 712 464 859 c 1
 240 859 l 1
 270 1012 l 1
 496 1012 l 1
 499 1028 500 1045 504 1064 c 0
 532 1207 601 1418 879 1418 c 0
 955 1418 1036 1415 1094 1404 c 1
 1036 1256 l 1
EndSplineSet
Validated: 1
EndChar

StartChar: Euro
Encoding: 8364 8364 316
Width: 1060
VWidth: 0
Flags: W
HStem: -31 155<414.22 675.27> 431 152<102 178 351 657> 676 151<146 217 417 790> 1180 163<629.359 867.488>
VStem: 177 157<212.65 431> 199 152<584 674.923>
LayerCount: 2
Fore
SplineSet
870 833 m 1xf4
 790 682 l 1
 778 682 l 0
 721 680 688 676 612 676 c 0
 555 676 470 676 370 676 c 1
 365 653 359 631 355 609 c 0
 353 601 353 593 351 584 c 1xf4
 381 583 398 583 436 583 c 0
 522 583 623 584 712 585 c 0
 738 585 l 1
 657 435 l 1
 335 431 l 1
 335 422 334 414 334 405 c 0
 334 241 406 124 516 124 c 1
 535 124 l 2
 634 124 725 181 794 287 c 1
 908 200 l 1
 800 26 639 -31 500 -31 c 0
 421 -31 308 3 245 113 c 0
 200 190 177 289 177 399 c 0xf8
 177 410 178 421 178 432 c 1
 149 433 125 433 100 433 c 0
 81 433 62 433 37 432 c 1
 13 431 l 1
 24 456 l 0
 39 493 68 525 96 572 c 0
 102 583 l 1
 113 583 l 0
 155 584 180 584 199 584 c 1
 202 601 205 617 208 632 c 0
 211 647 213 662 217 676 c 1
 154 677 112 677 83 679 c 0
 58 681 l 1
 73 707 l 1
 99 753 127 790 146 821 c 0
 153 833 l 1
 165 832 l 0
 182 831 217 830 263 829 c 1
 304 942 349 1026 398 1102 c 0
 515 1281 685 1343 784 1343 c 0
 892 1343 986 1287 1058 1184 c 1
 957 999 l 1
 923 1102 850 1180 749 1180 c 0
 617 1180 492 1023 417 827 c 1
 460 827 485 827 526 827 c 0
 608 827 680 827 714 827 c 1
 766 829 802 831 844 832 c 0
 870 833 l 1xf4
EndSplineSet
Validated: 1
EndChar

StartChar: uniE000
Encoding: 57344 57344 317
Width: 1060
VWidth: 6
Flags: W
HStem: 390 154<418.981 573.371> 486 158<208.671 369.117>
VStem: 67 635
LayerCount: 2
Fore
SplineSet
76 491 m 2x60
 135 603 198 644 262 644 c 0x60
 366 644 461 544 519 544 c 0
 542 544 566 560 589 624 c 0
 598 650 l 1
 702 546 l 1
 695 532 l 0
 640 430 580 390 519 390 c 0xa0
 415 390 327 486 269 486 c 0
 242 486 219 475 194 409 c 0
 186 387 l 1
 67 475 l 1
 76 491 l 2x60
EndSplineSet
Validated: 1
EndChar

StartChar: uniE001
Encoding: 57345 57345 318
Width: 1060
VWidth: 6
Flags: W
HStem: -312 150<347.529 575.23> -26 21G<716 755.5> -11 152<370.059 490.911> 513 151<403.205 550.976> 894 150<395.333 532.135> 1191 152<345.927 566.731>
VStem: 23 123<166.673 870.319> 219 129<151.289 456.948> 565 117<224.252 496.71> 774 114<148.623 863.075>
LayerCount: 2
Fore
SplineSet
406 -11 m 1xbfc0
 275 -5 219 154 219 299 c 0
 219 300 219 302 219 303 c 1
 219 380 236 461 271 524 c 1
 329 628 403 661 472 664 c 0
 475 664 477 664 480 664 c 0
 516 664 545 652 564 641 c 1
 555 806 546 894 462 894 c 0
 403 894 396 860 340 727 c 0
 332 709 l 1
 228 770 l 1
 234 787 l 0
 289 963 364 1041 462 1044 c 1
 503 1044 561 1025 602 967 c 1
 644 907 682 805 682 663 c 0
 682 229 l 1
 685 155 690 157 709 133 c 1
 710 131 714 128 717 126 c 1
 727 132 733 149 739 169 c 0
 771 267 774 386 774 515 c 0
 774 900 635 1191 456 1191 c 0
 278 1191 146 901 146 515 c 0
 146 129 286 -162 456 -162 c 0
 516 -162 574 -129 624 -72 c 0
 636 -57 l 1
 713 -153 l 1
 702 -166 l 0
 639 -239 542 -312 456 -312 c 0
 209 -312 23 68 23 515 c 0
 23 962 209 1343 456 1343 c 0
 703 1343 888 962 888 515 c 0
 888 364 866 222 830 98 c 1
 821 71 789 -26 722 -26 c 0
 721 -26 720 -26 719 -26 c 0
 717 -26 l 1xdfc0
 716 -25 l 0
 697 -20 668 -9 648 16 c 0
 647 16 l 0
 635 34 609 59 596 110 c 1
 573 80 553 65 524 38 c 1
 492 11 451 -11 406 -11 c 1xbfc0
405 141 m 0xbfc0
 431 141 459 155 476 170 c 1
 541 229 554 299 565 334 c 1
 565 367 564 433 564 452 c 1
 533 495 503 513 472 513 c 0
 471 513 470 513 469 513 c 0
 414 511 348 415 348 310 c 0
 348 308 348 307 348 305 c 1
 351 201 382 141 405 141 c 0xbfc0
EndSplineSet
Validated: 1
EndChar

StartChar: uniE002
Encoding: 57346 57346 319
Width: 1060
VWidth: 6
Flags: W
HStem: -310 150<414.529 642.23> -9 153<491.048 609.012> 702 152<500.409 649.08> 1198 153<409.668 608.797>
VStem: 90 123<169.451 874.351> 315 129<193.676 639.402> 683 117<227.653 665.965>
LayerCount: 2
Fore
SplineSet
800 703 m 0
 800 703 800 678 800 666 c 0
 800 231 l 1
 803 159 822 126 854 98 c 0
 871 83 l 1
 776 4 l 1
 765 20 l 1
 752 39 727 63 714 113 c 1
 691 83 671 68 642 41 c 1
 610 14 570 -9 524 -9 c 1
 389 -2 315 233 315 378 c 0
 315 379 315 380 315 381 c 1
 315 393 315 407 315 422 c 0
 315 496 319 600 368 711 c 0
 418 823 503 851 571 854 c 0
 573 854 575 854 577 854 c 0
 620 854 658 835 680 821 c 1
 678 854 677 882 675 903 c 0
 666 1031 655 1198 509 1198 c 0
 352 1198 213 905 213 518 c 0
 213 132 353 -160 523 -160 c 0
 583 -160 641 -126 691 -69 c 0
 703 -54 l 1
 779 -150 l 1
 769 -163 l 0
 706 -236 609 -310 523 -310 c 0
 276 -310 90 71 90 518 c 0
 90 964 262 1351 509 1351 c 0
 774 1351 800 996 800 703 c 0
524 144 m 0
 550 144 577 158 594 173 c 1
 659 232 672 301 683 336 c 1
 683 621 l 1
 651 665 596 702 567 702 c 0
 467 702 444 498 444 375 c 0
 444 370 444 365 444 360 c 1
 447 256 503 144 524 144 c 0
EndSplineSet
Validated: 1
EndChar

StartChar: gravecomb
Encoding: 768 768 320
Width: 1060
VWidth: -43
Flags: W
HStem: 1280 530
VStem: 499 494
LayerCount: 2
Fore
SplineSet
993 1403 m 1
 886 1280 l 1
 762 1366 573 1566 499 1706 c 1
 659 1810 l 1
 739 1674 869 1489 993 1403 c 1
EndSplineSet
Validated: 1
EndChar

StartChar: acutecomb
Encoding: 769 769 321
Width: 1060
VWidth: -43
Flags: W
HStem: 1280 150<482.979 531.552>
VStem: 426 613
LayerCount: 2
Fore
SplineSet
426 1430 m 1
 571 1473 803 1637 922 1741 c 1
 1039 1591 l 1
 924 1483 634 1322 489 1280 c 1
 426 1430 l 1
EndSplineSet
Validated: 1
EndChar

StartChar: uni0302
Encoding: 770 770 322
Width: 1060
VWidth: -10
Flags: W
HStem: 1270 429
LayerCount: 2
Fore
SplineSet
793 1699 m 1
 1086 1372 l 1
 969 1270 l 1
 765 1501 l 1
 426 1265 l 1
 339 1387 l 1
 793 1699 l 1
EndSplineSet
Validated: 1
EndChar

StartChar: tildecomb
Encoding: 771 771 323
Width: 1060
VWidth: -12
Flags: W
HStem: 1412 153<773.861 986.291> 1541 153<474.568 681.314>
LayerCount: 2
Fore
SplineSet
599 1694 m 0x40
 735 1694 776 1565 866 1565 c 0
 951 1565 1007 1604 1038 1692 c 1
 1191 1634 l 1
 1135 1514 1025 1412 873 1412 c 0x80
 711 1412 681 1541 597 1541 c 0
 519 1541 463 1512 405 1406 c 1
 255 1481 l 1
 361 1645 465 1694 599 1694 c 0x40
EndSplineSet
Validated: 1
EndChar

StartChar: uni0304
Encoding: 772 772 324
Width: 1060
VWidth: -34
Flags: W
HStem: 1473 152<495.947 921>
VStem: 468 483
LayerCount: 2
Fore
SplineSet
951 1625 m 1
 921 1473 l 1
 904 1473 l 0
 846 1471 776 1471 702 1471 c 0
 628 1471 553 1471 485 1473 c 0
 468 1474 l 1
 498 1629 l 1
 516 1627 l 0
 581 1625 678 1625 770 1625 c 0
 831 1625 889 1625 934 1625 c 0
 951 1625 l 1
EndSplineSet
Validated: 1
EndChar

StartChar: uni0305
Encoding: 773 773 325
Width: 1060
VWidth: -34
Flags: W
HStem: 1473 155<328 1072>
LayerCount: 2
Fore
SplineSet
1102 1625 m 1
 1072 1473 l 1
 298 1473 l 1
 328 1628 l 1
 1102 1625 l 1
EndSplineSet
Validated: 1
EndChar

StartChar: uni0306
Encoding: 774 774 326
Width: 1060
VWidth: -12
Flags: W
HStem: 1357 153<597.679 870.382>
VStem: 394 164<1551.95 1646>
LayerCount: 2
Fore
SplineSet
729 1510 m 0
 837 1510 940 1584 961 1662 c 1
 1121 1632 l 1
 1063 1455 902 1357 699 1357 c 1
 573 1357 398 1421 394 1646 c 1
 558 1660 l 1
 562 1543 636 1510 729 1510 c 0
EndSplineSet
Validated: 1
EndChar

StartChar: uni0308
Encoding: 776 776 327
Width: 1060
VWidth: -28
Flags: W
HStem: 1413 225<421 612 826 1017>
LayerCount: 2
Fore
SplineSet
826 1638 m 1
 1061 1635 l 1
 1017 1410 l 1
 783 1413 l 1
 826 1638 l 1
421 1641 m 1
 655 1638 l 1
 612 1413 l 1
 377 1416 l 1
 421 1641 l 1
EndSplineSet
Validated: 1
EndChar

StartChar: uni0307
Encoding: 775 775 328
Width: 1060
VWidth: -28
Flags: W
HStem: 1426 225<580 772>
VStem: 536 279
LayerCount: 2
Fore
SplineSet
580 1651 m 1
 815 1648 l 1
 772 1423 l 1
 536 1426 l 1
 580 1651 l 1
EndSplineSet
Validated: 1
EndChar

StartChar: uni030A
Encoding: 778 778 329
Width: 1060
VWidth: -8
Flags: W
HStem: 1286 116<644.048 808.064> 1543 125<652.606 819.993>
VStem: 500 140<1407.93 1526.94> 823 141<1419.43 1535.86>
LayerCount: 2
Fore
SplineSet
745 1543 m 0
 690 1543 648 1508 641 1473 c 0
 640 1470 640 1466 640 1463 c 0
 640 1432 669 1402 718 1402 c 0
 772 1402 815 1438 822 1473 c 0
 823 1476 823 1480 823 1483 c 0
 823 1514 795 1543 745 1543 c 0
503 1473 m 0
 525 1584 647 1668 770 1668 c 0
 880 1668 964 1600 964 1506 c 0
 964 1495 963 1484 961 1473 c 0
 940 1363 829 1286 696 1286 c 0
 582 1286 500 1349 500 1441 c 0
 500 1451 501 1462 503 1473 c 0
EndSplineSet
Validated: 1
EndChar

StartChar: uni0237
Encoding: 567 567 330
Width: 1060
VWidth: 0
Flags: W
HStem: -387 156<210.666 477.366> 892 149<504.147 703.795>
VStem: 710 156<571.234 890.178>
LayerCount: 2
Fore
SplineSet
859 748 m 2
 685 -118 l 0
 657 -263 572 -387 334 -387 c 3
 211 -387 71 -365 -15 -160 c 1
 130 -62 l 1
 198 -224 280 -231 343 -231 c 0
 349 -231 355 -231 360 -231 c 3
 472 -231 521 -149 530 -114 c 1
 706 762 l 2
 708 774 710 790 710 807 c 0
 710 847 699 891 656 892 c 0
 653 892 l 0
 604 892 539 891 419 781 c 1
 322 914 l 1
 457 1003 523 1041 658 1041 c 0
 834 1041 866 943 866 835 c 0
 866 810 864 772 859 748 c 2
EndSplineSet
Validated: 1
EndChar

StartChar: uni030B
Encoding: 779 779 331
Width: 1060
VWidth: -43
Flags: W
HStem: 1158 555
LayerCount: 2
Fore
SplineSet
617 1273 m 1
 734 1368 899 1572 969 1713 c 1
 1122 1613 l 1
 1057 1469 850 1252 733 1158 c 1
 617 1273 l 1
282 1280 m 1
 398 1375 563 1579 632 1720 c 1
 787 1621 l 1
 722 1477 513 1259 395 1165 c 1
 282 1280 l 1
EndSplineSet
Validated: 1
EndChar

StartChar: uni030C
Encoding: 780 780 332
Width: 1060
VWidth: -10
Flags: W
HStem: 1220 440
LayerCount: 2
Fore
SplineSet
685 1220 m 1
 387 1543 l 1
 501 1646 l 1
 709 1419 l 1
 1045 1660 l 1
 1133 1539 l 1
 685 1220 l 1
EndSplineSet
Validated: 1
EndChar

StartChar: uni030F
Encoding: 783 783 333
Width: 1060
VWidth: -43
Flags: W
HStem: 1168 528
VStem: 384 176<1519.86 1644.07> 706 177<1525.62 1650.05>
LayerCount: 2
Fore
SplineSet
1062 1246 m 1
 919 1168 l 1
 833 1291 728 1490 706 1646 c 1
 883 1696 l 1
 909 1541 977 1370 1062 1246 c 1
738 1240 m 1
 596 1162 l 1
 510 1286 405 1484 384 1640 c 1
 560 1690 l 1
 587 1535 654 1365 738 1240 c 1
EndSplineSet
Validated: 1
EndChar

StartChar: hookabovecomb
Encoding: 777 777 334
Width: 1060
VWidth: 12
Flags: W
HStem: 953 175<629.2 742.591> 1242 125<611.689 798.034>
VStem: 591 145<957 1029.84> 799 142<1140.95 1235.88>
LayerCount: 2
Fore
SplineSet
736 953 m 1
 591 957 l 1
 628 1145 l 1
 654 1135 654 1128 702 1128 c 0
 750 1128 793 1153 799 1182 c 2
 799 1184 l 1
 799 1186 799 1188 799 1190 c 0
 799 1224 764 1242 730 1242 c 0
 679 1242 634 1218 598 1200 c 1
 581 1306 l 1
 644 1342 721 1367 787 1367 c 0
 863 1367 941 1313 941 1228 c 0
 941 1219 940 1209 938 1199 c 0
 918 1095 848 1033 750 1028 c 1
 749 1025 737 961 736 953 c 1
EndSplineSet
Validated: 1
EndChar

StartChar: uni030D
Encoding: 781 781 335
Width: 1060
VWidth: -34
Flags: W
HStem: 1280 348<664 756>
VStem: 597 227
LayerCount: 2
Fore
SplineSet
664 1628 m 1
 824 1628 l 1
 756 1280 l 1
 597 1280 l 1
 664 1628 l 1
EndSplineSet
Validated: 1
EndChar

StartChar: uni0191
Encoding: 401 401 337
Width: 1060
VWidth: 0
Flags: W
HStem: -245 165<-74 51.8438> 668 150<439 761.348> 1145 153<502 1044.92>
LayerCount: 2
Fore
SplineSet
-74 -80 m 1
 25 -80 125 -1 144 98 c 1
 377 1299 l 1
 978 1298 l 1
 1054 1295 1100 1280 1131 1263 c 1
 1046 1117 l 1
 1023 1131 1004 1144 906 1145 c 1
 836 1145 l 2
 732 1145 685 1145 502 1144 c 1
 439 816 l 1
 559 816 543 818 665 818 c 0
 753 818 809 804 810 804 c 2
 827 799 l 1
 763 654 l 1
 728 663 678 668 633 668 c 0
 591 668 564 668 540 668 c 0
 504 668 474 668 409 666 c 1
 385 545 321 184 303 91 c 0
 266 -101 121 -240 -98 -245 c 1
 -74 -80 l 1
EndSplineSet
Validated: 1
EndChar

StartChar: florin
Encoding: 402 402 338
Width: 1060
VWidth: -2
Flags: W
HStem: -313 154<-23 146.152> 867 153<295 421 607 882.055> 1266 152<685.901 1029.64>
LayerCount: 2
Fore
SplineSet
443 152 m 1
 393 -105 332 -313 -49 -313 c 0
 -23 -159 l 0
 150 -159 236 -93 285 152 c 1
 290 177 394 720 421 867 c 1
 289 867 l 1
 295 1020 l 1
 451 1020 l 1
 454 1036 455 1045 459 1064 c 0
 487 1207 556 1418 833 1418 c 0
 920 1418 1032 1410 1163 1333 c 1
 1077 1194 l 1
 969 1262 914 1266 811 1266 c 0
 664 1266 636 1168 615 1060 c 2
 607 1021 l 1
 675 1021 694 1020 767 1020 c 1
 870 1017 895 1009 923 1000 c 1
 883 853 l 1
 863 860 833 867 777 867 c 2
 577 867 l 1
 548 713 444 156 443 152 c 1
EndSplineSet
Validated: 1
EndChar

StartChar: alpha
Encoding: 945 945 339
Width: 1060
VWidth: 4
Flags: W
HStem: -7 157<301.414 488.19> 865 153<413.144 615.201> 1014 20G<939 1003.71>
VStem: 79 162<207.976 626.422>
LayerCount: 2
Fore
SplineSet
257 527 m 0xd0
 246 468 241 418 241 376 c 0
 241 155 376 150 391 150 c 2
 404 150 l 2
 489 150 595 316 697 512 c 1
 672 763 634 865 517 865 c 0
 439 865 303 766 257 527 c 0xd0
831 464 m 1
 840 387 849 300 862 203 c 0
 870 145 906 123 960 108 c 1
 865 -32 l 1
 743 0 722 120 716 180 c 0
 713 203 711 226 708 248 c 1
 614 100 509 -7 378 -7 c 0
 156 -7 79 151 79 346 c 0
 79 404 86 465 98 527 c 0
 169 894 383 1018 558 1018 c 0xd0
 723 1018 776 940 810 743 c 1
 860 842 912 941 966 1034 c 1xb0
 1098 964 l 1
 1009 838 916 632 831 464 c 1
EndSplineSet
Validated: 1
EndChar

StartChar: beta
Encoding: 946 946 340
Width: 1060
VWidth: 0
Flags: W
HStem: 0 153<353.315 680.413> 669 153<378 638.989> 1176 152<434.778 691.146>
VStem: -54 148<-284.647 -119.049> 725 159<908.003 1139.68> 800 155<292.56 590.413>
LayerCount: 2
Fore
SplineSet
554 153 m 0xf8
 676 153 766 261 792 395 c 0
 797 422 800 446 800 468 c 0xf4
 800 659 606 669 348 669 c 1
 378 822 l 1
 543 822 685 822 721 1005 c 0
 724 1020 725 1034 725 1047 c 0
 725 1132 663 1176 544 1176 c 1
 448 1175 368 1083 351 993 c 0
 332 893 279 609 233 367 c 1
 296 192 385 153 554 153 c 0xf8
185 112 m 1
 179 83 175 59 171 39 c 0
 147 -85 121 -203 94 -300 c 1
 -54 -283 l 1
 -25 -183 -1 -74 21 37 c 0
 57 224 166 829 200 1003 c 0
 230 1159 374 1328 573 1328 c 0
 752 1328 884 1255 884 1086 c 0xf8
 884 1063 881 1038 876 1011 c 0
 856 909 812 832 746 779 c 1
 882 739 955 645 955 494 c 0
 955 459 951 422 943 381 c 0
 902 171 776 2 524 0 c 0
 522 0 519 0 517 0 c 0
 363 0 261 39 185 112 c 1
EndSplineSet
Validated: 1
EndChar

StartChar: gamma
Encoding: 947 947 341
Width: 1060
VWidth: 14
Flags: W
HStem: 1021 20G<143.209 163.5 930.702 992.071>
LayerCount: 2
Fore
SplineSet
343 -376 m 1
 363 -272 408 -26 408 60 c 0
 408 63 408 66 408 68 c 0
 399 315 320 627 257 784 c 0
 233 843 203 873 192 880 c 0
 179 889 158 889 133 889 c 0
 128 889 123 888 118 888 c 1
 147 1041 l 1
 180 1041 219 1040 246 1036 c 0
 307 1026 348 976 390 883 c 0
 457 731 512 488 543 287 c 1
 659 504 941 1060 941 1060 c 1
 1084 1004 l 1
 1084 1004 739 388 571 16 c 1
 561 -66 542 -174 519 -290 c 0
 513 -319 508 -349 502 -378 c 1
 343 -376 l 1
EndSplineSet
Validated: 1
EndChar

StartChar: delta
Encoding: 948 948 342
Width: 1060
VWidth: 6
Flags: W
HStem: -7 155<306.887 578.042> 1227 152<469.609 903.514>
VStem: 73 162<214.997 548.428> 251 168<1047.08 1176> 772 161<367.27 672.6>
LayerCount: 2
Fore
SplineSet
409 -7 m 2
 407 -7 l 1
 198 -7 73 127 73 329 c 0
 73 598 196 775 413 879 c 1
 326 926 251 980 251 1093 c 0
 251 1281 422 1379 665 1379 c 0
 789 1379 923 1351 1038 1322 c 1
 969 1164 l 1
 843 1201 726 1227 630 1227 c 0
 541 1227 419 1181 419 1107 c 0
 419 1084 435 1067 455 1050 c 1
 648 908 933 843 933 564 c 0
 933 260 734 -7 409 -7 c 2
584 786 m 1
 421 750 235 600 235 368 c 0
 235 234 303 148 439 148 c 1
 639 151 772 377 772 544 c 0
 772 649 703 729 584 786 c 1
EndSplineSet
Validated: 1
EndChar

StartChar: epsilon
Encoding: 949 949 343
Width: 1060
VWidth: 0
Flags: W
HStem: -4 154<245.857 688.051> 510 151<350.514 660> 871 153<332.692 864.964>
VStem: 40 162<193.418 389.388> 138 158<710.781 834.819>
LayerCount: 2
Fore
SplineSet
879 131 m 1xf0
 798 78 639 -4 416 -4 c 0
 234 -4 160 31 96 90 c 0
 53 130 40 181 40 230 c 0xf0
 40 255 44 279 48 301 c 0
 73 431 161 548 320 584 c 1
 185 593 138 663 138 744 c 0
 138 759 139 774 142 789 c 0
 170 935 326 1024 636 1024 c 2
 650 1024 l 2
 882 1024 944 972 960 960 c 1
 866 830 l 1
 845 845 754 871 608 871 c 0
 404 871 309 846 297 783 c 0
 296 779 296 775 296 771 c 0xe8
 296 669 559 661 666 661 c 2
 671 661 l 1
 689 661 l 1
 660 509 l 1
 634 509 608 510 582 510 c 0
 519 510 456 506 377 478 c 0
 258 437 217 366 204 299 c 0
 202 290 202 282 202 274 c 0
 202 196 283 150 447 150 c 0
 615 150 757 206 817 252 c 1
 879 131 l 1xf0
EndSplineSet
Validated: 1
EndChar

StartChar: zeta
Encoding: 950 950 344
Width: 1060
VWidth: 0
Flags: W
HStem: -306 138<469 630.19> 0 150<306.559 660.251> 1191 161<370.611 837.503> 1408 20G<320 356>
VStem: 87 159<207.777 568.048> 667 161<-127.802 -7.7785>
LayerCount: 2
Fore
SplineSet
340 1428 m 1
 372 1386 411 1352 492 1352 c 0
 657 1352 928 1358 1062 1376 c 1
 1097 1218 l 1
 918 1020 335 871 259 480 c 0
 250 435 246 395 246 360 c 0
 246 218 315 150 435 150 c 0
 438 150 555 151 558 151 c 0
 715 151 828 103 828 -19 c 0
 828 -33 826 -49 823 -66 c 0
 783 -274 559 -296 467 -306 c 1
 469 -168 l 1
 556 -155 653 -139 665 -77 c 0
 667 -69 667 -62 667 -55 c 0
 667 -3 619 0 541 0 c 0
 534 0 528 0 521 0 c 0
 517 0 362 0 358 0 c 0
 195 0 87 117 87 336 c 0
 87 386 93 443 105 504 c 0
 174 861 565 1027 843 1200 c 1
 712 1193 608 1191 481 1191 c 0
 366 1191 273 1218 212 1300 c 1
 340 1428 l 1
EndSplineSet
Validated: 1
EndChar

StartChar: eta
Encoding: 951 951 345
Width: 1060
VWidth: 6
Flags: W
HStem: -1 21G<41.881 196> 872 150<524.666 792.759> 1020 20G<277.73 369.5>
VStem: 205 168<900 1005.35> 619 163<-332.253 16.7031> 810 167<723.908 849.182>
LayerCount: 2
Fore
SplineSet
371 900 m 1xbc
 494 979 618 1022 728 1022 c 0
 839 1022 977 957 977 832 c 0
 977 821 975 808 973 796 c 2
 803 -79 l 2
 793 -130 782 -225 782 -287 c 0
 782 -305 783 -319 785 -330 c 1
 621 -362 l 1
 620 -340 619 -319 619 -297 c 0
 619 -240 624 -179 642 -86 c 2
 808 765 l 2
 809 771 810 777 810 782 c 0
 810 844 739 872 677 872 c 0xdc
 614 872 487 820 339 733 c 1
 196 0 l 1
 38 -1 l 1
 175 705 l 2
 198 823 205 875 205 923 c 0
 205 948 203 971 201 1003 c 1
 368 1040 l 1
 371 1025 373 994 373 960 c 0
 373 940 372 918 371 900 c 1xbc
EndSplineSet
Validated: 1
EndChar

StartChar: theta
Encoding: 952 952 346
Width: 1060
VWidth: 0
Flags: W
HStem: -16 153<315.19 600.13> 595 158<281.473 849.367> 1170 153<537.035 795.798>
VStem: 64 164<229.11 575.016> 886 159<747.081 1067.33>
LayerCount: 2
Fore
SplineSet
261 247 m 0
 297 182 354 137 462 137 c 0
 578 137 666 224 727 307 c 1
 773 363 824 484 851 585 c 1
 808 592 753 595 687 595 c 0
 565 595 408 585 238 576 c 1
 232 535 228 488 228 440 c 0
 228 364 238 288 261 247 c 0
704 1323 m 0
 798 1323 1045 1258 1045 869 c 0
 1045 801 1037 722 1020 632 c 2
 1018 621 l 2
 986 457 914 324 848 231 c 0
 745 87 597 -16 432 -16 c 0
 310 -16 195 32 133 132 c 0
 87 205 64 305 64 416 c 0
 64 471 69 530 81 590 c 0
 135 867 261 1059 349 1154 c 0
 432 1244 562 1323 704 1323 c 0
880 745 m 1
 884 779 886 814 886 849 c 0
 886 909 880 966 865 1014 c 0
 829 1128 751 1170 679 1170 c 0
 601 1170 534 1138 461 1062 c 0
 393 992 323 879 275 732 c 1
 497 747 642 753 738 753 c 0
 806 753 851 750 880 745 c 1
EndSplineSet
Validated: 1
EndChar

StartChar: iota
Encoding: 953 953 347
Width: 1060
VWidth: 0
Flags: W
HStem: -18 142<513.671 765.362> 857 156<210.653 470>
VStem: 343 164<132.713 429.653>
LayerCount: 2
Fore
SplineSet
539 1013 m 2
 659 1013 l 1
 606 740 513 259 513 259 c 2
 509 238 507 219 507 204 c 0
 507 135 549 124 624 124 c 0
 717 124 821 185 893 299 c 1
 992 221 l 1
 893 71 782 -18 598 -18 c 0
 513 -18 439 -4 400 20 c 0
 355 48 343 105 343 159 c 0
 343 196 349 231 353 255 c 2
 470 857 l 1
 421 857 305 851 206 829 c 1
 205 971 l 1
 322 997 435 1013 539 1013 c 2
EndSplineSet
Validated: 1
EndChar

StartChar: kappa
Encoding: 954 954 348
Width: 1060
VWidth: 0
Flags: W
HStem: -5 5G<41 200.889 757.5 809.211> 1000 20G<235.118 395 1000.5 1025.16>
LayerCount: 2
Fore
SplineSet
601 605 m 1
 686 478 894 185 919 50 c 1
 770 -26 l 1
 745 83 560 364 468 501 c 1
 468 501 330 399 260 324 c 1
 197 0 l 1
 41 0 l 1
 239 1020 l 1
 395 1020 l 1
 304 550 l 1
 415 642 536 725 661 819 c 1
 903 997 987 1030 1014 1049 c 1
 1086 920 l 1
 870 804 680 673 601 605 c 1
EndSplineSet
Validated: 1
EndChar

StartChar: lambda
Encoding: 955 955 349
Width: 1060
VWidth: 14
Flags: W
HStem: -17 21G<77.9495 220> 0 156<766.5 920.609> 1266 155<478.15 616.684>
VStem: 291 156<1154 1237.66> 638 145<1020.73 1250.4>
LayerCount: 2
Fore
SplineSet
103 -17 m 1xb8
 -21 82 l 1
 96 186 465 768 633 1019 c 1
 636 1056 638 1091 638 1122 c 0
 638 1208 609 1266 557 1266 c 0
 505 1266 459 1218 447 1154 c 1
 291 1154 l 1
 316 1283 402 1421 562 1421 c 0
 711 1421 773 1343 783 1216 c 0
 793 1079 784 529 802 267 c 0
 807 199 814 156 840 156 c 0
 866 156 905 197 905 197 c 1
 985 87 l 1
 913 22 892 0 806 0 c 0x78
 727 0 673 60 663 160 c 0
 645 342 642 632 642 760 c 1
 453 476 337 273 103 -17 c 1xb8
EndSplineSet
Validated: 1
EndChar

StartChar: mu
Encoding: 956 956 350
Width: 1060
VWidth: 6
Flags: W
HStem: 2 154<279.589 549.988> 1001 20G<251.778 374>
VStem: 210 164<701.035 996.196>
LayerCount: 2
Fore
SplineSet
829 -10 m 1
 780 31 734 72 729 158 c 1
 628 72 518 5 367 2 c 1
 358 2 l 2
 310 2 248 2 198 22 c 1
 113 -400 l 1
 -44 -400 l 1
 81 214 l 1
 127 467 210 863 210 977 c 0
 210 984 210 989 209 994 c 1
 374 1021 l 1
 374 1018 374 1015 374 1012 c 0
 374 910 311 605 244 250 c 1
 244 249 244 248 244 247 c 0
 244 215 261 190 279 174 c 0
 291 164 340 156 381 156 c 1
 449 159 491 167 548 198 c 0
 600 226 676 256 731 344 c 1
 860 1001 l 1
 1018 1001 l 1
 868 239 l 1
 867 234 867 229 867 225 c 0
 867 178 903 136 934 107 c 1
 829 -10 l 1
EndSplineSet
Validated: 1
EndChar

StartChar: nu
Encoding: 957 957 351
Width: 1060
VWidth: 6
Flags: W
HStem: -3 21G<297.5 416.5> 1028 20G<256.167 314.5 959.277 1010.5>
VStem: 301 155<53.5 495.842> 866 167<583.615 984.051>
LayerCount: 2
Fore
SplineSet
287 1048 m 1
 342 973 357 935 368 860 c 0
 387 743 456 314 456 173 c 0
 456 163 454 172 453 165 c 1
 709 229 866 587 866 827 c 0
 866 887 858 918 831 966 c 1
 1000 1049 l 1
 1021 999 1033 950 1033 887 c 0
 1033 515 880 261 728 138 c 0
 650 75 537 0 296 -3 c 1
 299 15 301 39 301 68 c 0
 301 269 225 704 197 839 c 0
 193 860 160 927 139 952 c 1
 287 1048 l 1
EndSplineSet
Validated: 1
EndChar

StartChar: xi
Encoding: 958 958 352
Width: 1060
VWidth: 0
Flags: W
HStem: -320 153<470 631.979> 0 150<251.798 660.251> 1191 161<371.124 693.459> 1408 20G<322 358>
VStem: 57 162<182.455 404.338> 369 179<886.875 1030.91> 667 161<-127.722 -7.7785>
LayerCount: 2
Fore
SplineSet
342 1428 m 1
 374 1386 413 1352 494 1352 c 0
 659 1352 809 1358 944 1376 c 1
 980 1218 l 1
 885 1144 575 1096 549 964 c 0
 548 959 548 954 548 949 c 0
 548 868 690 849 832 849 c 1
 802 695 l 1
 526 629 271 547 223 301 c 0
 220 288 219 276 219 265 c 0
 219 175 301 150 435 150 c 0
 438 150 555 151 558 151 c 0
 715 151 828 103 828 -19 c 0
 828 -33 826 -49 823 -66 c 0
 783 -274 552 -310 460 -320 c 1
 470 -167 l 1
 557 -154 653 -139 665 -77 c 0
 667 -69 667 -62 667 -55 c 0
 667 -3 619 0 541 0 c 0
 534 0 528 0 521 0 c 0
 517 0 362 0 358 0 c 0
 185 0 57 43 57 224 c 0
 57 254 61 287 68 325 c 0
 117 577 365 721 488 757 c 1
 453 767 369 786 369 904 c 0
 369 922 371 944 376 967 c 0
 406 1122 553 1162 695 1212 c 1
 633 1203 579 1191 483 1191 c 0
 368 1191 275 1218 214 1300 c 1
 342 1428 l 1
EndSplineSet
Validated: 1
EndChar

StartChar: omicron
Encoding: 959 959 353
Width: 1060
VWidth: 6
Flags: W
HStem: 1 155<301.229 596.059> 878 154<440.388 728.186>
VStem: 73 162<223.806 585.515> 787 161<425.993 817.774>
LayerCount: 2
Fore
SplineSet
407 1 m 1
 182 2 73 127 73 329 c 0
 73 371 78 416 87 464 c 0
 144 756 300 1032 592 1032 c 0
 789 1032 886 963 930 831 c 0
 943 792 948 745 948 695 c 0
 948 644 943 592 933 543 c 0
 878 258 731 1 409 1 c 2
 407 1 l 1
621 215 m 1
 698 276 742 382 771 530 c 0
 772 536 774 542 775 548 c 0
 782 588 787 627 787 662 c 0
 787 789 734 878 596 878 c 0
 388 878 293 713 246 469 c 0
 239 433 235 399 235 368 c 0
 235 234 303 156 439 156 c 1
 515 157 563 173 621 215 c 1
EndSplineSet
Validated: 1
EndChar

StartChar: pi
Encoding: 960 960 354
Width: 1060
VWidth: 6
Flags: W
HStem: -8 149<771.008 949.457> 860 160<165.16 296 457 734 892 1059.23>
VStem: 609 159<143.629 443.164>
LayerCount: 2
Fore
SplineSet
889 1020 m 2
 995 1020 1042 1042 1082 1084 c 1
 1166 965 l 1
 1071 877 990 863 892 860 c 1
 773 245 l 2
 770 228 768 214 768 202 c 0
 768 144 803 141 835 141 c 0
 880 141 909 151 941 180 c 1
 998 66 l 1
 936 10 867 -8 798 -8 c 0
 688 -8 609 49 609 180 c 0
 609 205 612 232 618 262 c 2
 734 860 l 1
 457 860 l 1
 398 554 l 2
 342 268 243 49 218 -8 c 1
 60 12 l 1
 91 80 181 264 238 558 c 2
 296 853 l 1
 260 853 209 850 163 830 c 1
 158 998 l 1
 204 1014 262 1020 323 1020 c 2
 889 1020 l 2
EndSplineSet
Validated: 1
EndChar

StartChar: rho
Encoding: 961 961 355
Width: 1060
VWidth: -2
Flags: W
HStem: 0 156<426.074 671.792> 878 154<500.664 795.186>
VStem: 27 162<-396.65 42.3594> 854 161<423.014 817.774>
LayerCount: 2
Fore
SplineSet
173 562 m 2
 230 854 421 1032 659 1032 c 0
 856 1032 953 963 997 831 c 0
 1010 792 1015 745 1015 695 c 0
 1015 644 1010 592 1000 543 c 0
 945 258 821 0 499 0 c 2
 497 0 l 2
 360 0 282 87 250 175 c 1
 206 -75 l 2
 194 -139 189 -202 189 -257 c 0
 189 -315 194 -365 201 -396 c 1
 38 -438 l 1
 31 -411 27 -364 27 -308 c 0
 27 -236 34 -149 49 -70 c 2
 173 562 l 2
838 530 m 0
 839 536 841 542 842 548 c 0
 849 588 854 627 854 662 c 0
 854 789 801 878 663 878 c 0
 520 878 376 793 329 549 c 0
 323 516 320 484 320 454 c 0
 320 281 418 156 541 156 c 1
 718 158 799 329 838 530 c 0
EndSplineSet
Validated: 1
EndChar

StartChar: sigma1
Encoding: 962 962 356
Width: 1060
VWidth: 4
Flags: W
HStem: -351 152<466 625.422> 865 153<437.259 784.084>
VStem: 79 163<225.968 626.422> 667 161<-158.755 -44.2198>
LayerCount: 2
Fore
SplineSet
257 527 m 0
 247 473 242 426 242 387 c 0
 242 151 406 154 462 150 c 0
 694 131 828 89 828 -46 c 0
 828 -61 826 -77 823 -95 c 0
 804 -191 725 -343 459 -351 c 1
 466 -199 l 1
 583 -185 653 -168 666 -99 c 0
 667 -96 667 -94 667 -92 c 0
 667 -32 516 -16 436 -7 c 0
 192 18 79 129 79 350 c 0
 79 403 85 461 98 527 c 0
 169 894 372 1018 687 1018 c 0
 782 1018 851 994 902 948 c 0
 954 901 973 841 985 789 c 1
 820 729 l 1
 817 770 806 865 646 865 c 0
 425 865 303 766 257 527 c 0
EndSplineSet
Validated: 1
EndChar

StartChar: sigma
Encoding: 963 963 357
Width: 1060
VWidth: 6
Flags: W
HStem: 1 155<301.229 575.449> 874 148<464.639 737.927 891 1095.91>
VStem: 73 162<223.806 576.998> 760 161<381.718 870.376>
LayerCount: 2
Fore
SplineSet
891 872 m 1
 914 841 921 688 921 634 c 0
 921 266 730 1 409 1 c 2
 407 1 l 2
 182 2 73 127 73 329 c 0
 73 371 78 416 87 464 c 0
 144 756 303 1019 657 1022 c 0
 674 1022 733 1023 805 1023 c 0
 932 1023 1099 1021 1148 1012 c 1
 1098 859 l 1
 1054 866 973 870 891 872 c 1
720 874 m 1
 712 874 705 874 698 874 c 0
 676 874 661 874 657 874 c 0
 401 874 293 713 246 469 c 0
 239 433 235 399 235 368 c 0
 235 234 303 156 439 156 c 0
 638 156 760 370 760 625 c 0
 760 687 750 838 720 874 c 1
EndSplineSet
Validated: 1
EndChar

StartChar: tau
Encoding: 964 964 358
Width: 1060
VWidth: 0
Flags: W
HStem: -3 155<541.176 760.351> 875 145<213.625 495 647.1 1081>
VStem: 369 162<165.562 495.673>
LayerCount: 2
Fore
SplineSet
683 1020 m 1
 805 1020 l 2
 853 1020 902 1020 944 1020 c 0
 1091 1020 l 1
 1109 1020 l 1
 1081 873 l 1
 777 875 l 1
 656 875 l 1
 607 671 583 540 560 440 c 1
 552 400 l 2
 539 335 531 286 531 249 c 0
 531 176 564 152 660 152 c 0
 730 152 788 210 831 286 c 1
 951 228 l 1
 920 172 828 -3 631 -3 c 0
 437 -3 369 58 369 206 c 0
 369 258 377 321 392 397 c 2
 401 440 l 1
 425 544 451 683 495 876 c 1
 475 875 361 874 361 874 c 2
 291 873 226 839 170 807 c 1
 126 933 l 1
 185 977 288 1019 384 1019 c 2
 683 1020 l 1
EndSplineSet
Validated: 1
EndChar

StartChar: upsilon
Encoding: 965 965 359
Width: 1060
VWidth: 6
Flags: W
HStem: -4 156<295.38 568.285> 1012 20G<253.778 376 947.636 1027.5>
VStem: 101 161<187.16 549.123> 212 164<706.373 1004.67> 871 163<615.81 1008.8>
LayerCount: 2
Fore
SplineSet
110 366 m 0xe8
 122 426 134 489 146 549 c 0
 182 731 212 900 212 980 c 0
 212 990 212 998 211 1005 c 1
 376 1032 l 1
 376 1029 376 1025 376 1022 c 0xd8
 376 944 344 769 306 573 c 0
 295 517 284 459 273 402 c 0
 266 365 262 333 262 305 c 0
 262 197 316 152 422 152 c 0
 480 152 598 193 670 273 c 0
 781 398 812 500 858 738 c 0
 867 781 871 828 871 871 c 0
 871 920 865 965 856 1002 c 1
 1024 1046 l 1
 1031 1016 1034 978 1034 939 c 0
 1034 870 1025 796 1017 754 c 0
 1016 750 1016 746 1015 742 c 0
 1013 730 1010 717 1008 705 c 0
 971 514 925 303 717 123 c 0
 641 57 509 -4 346 -4 c 0
 184 -4 101 116 101 272 c 0
 101 302 104 334 110 366 c 0xe8
EndSplineSet
Validated: 1
EndChar

StartChar: phi
Encoding: 966 966 360
Width: 1060
VWidth: 0
Flags: W
HStem: 894 146<697.817 866.204>
VStem: 60 161<236.636 680.368> 882 157<529.487 878.744>
LayerCount: 2
Fore
SplineSet
531 145 m 1
 614 165 679 218 728 284 c 1
 780 348 840 517 862 624 c 1
 866 643 l 2
 876 695 882 739 882 775 c 0
 882 855 853 894 776 894 c 2
 775 894 l 2
 748 894 674 893 626 644 c 0
 598 502 564 318 531 145 c 1
502 -11 m 1
 464 -215 435 -377 432 -398 c 1
 270 -396 l 1
 272 -375 304 -211 343 -8 c 1
 254 9 175 52 129 127 c 0
 83 200 60 292 60 399 c 0
 60 452 65 509 77 569 c 0
 121 797 207 963 316 1044 c 1
 424 954 l 1
 327 870 271 765 234 573 c 0
 226 531 221 480 221 430 c 0
 221 357 231 285 256 242 c 0
 281 197 318 164 374 148 c 1
 469 640 l 2
 530 955 658 1040 802 1040 c 0
 916 1040 1039 1020 1039 804 c 0
 1039 757 1033 700 1020 632 c 2
 1018 621 l 2
 986 457 912 304 846 211 c 0
 758 88 638 9 502 -11 c 1
EndSplineSet
Validated: 1
EndChar

StartChar: chi
Encoding: 967 967 361
Width: 1060
VWidth: 14
Flags: W
HStem: -398 156<727.145 857.337> 888 153<147 263.768> 1040 20G<927.971 992.071>
LayerCount: 2
Fore
SplineSet
412 316 m 1xa0
 380 577 352 688 298 796 c 0
 256 880 196 888 118 888 c 1
 147 1041 l 1xc0
 294 1041 360 1032 433 913 c 0
 512 784 556 469 556 469 c 1
 688 670 941 1060 941 1060 c 1
 1084 1004 l 1
 1084 1004 836 601 610 268 c 1
 619 95 699 -242 774 -242 c 0
 805 -242 823 -214 833 -202 c 1
 942 -282 l 1
 917 -324 861 -398 759 -398 c 0
 541 -398 490 3 471 123 c 1
 131 -410 l 1
 -32 -338 l 1
 412 316 l 1xa0
EndSplineSet
Validated: 1
EndChar

StartChar: psi
Encoding: 968 968 362
Width: 1060
VWidth: 6
Flags: W
HStem: -4 158<272.049 351> 1012 8G<211.778 334 552.129 716 999.636 1079.5>
VStem: 60 163<201.212 550.447> 170 164<706.373 1004.67> 923 163<615.81 1008.8>
LayerCount: 2
Fore
SplineSet
68 366 m 0xe8
 80 426 92 489 104 549 c 0
 140 731 170 900 170 980 c 0
 170 990 170 998 169 1005 c 1
 334 1032 l 1
 334 1029 334 1025 334 1022 c 0xd8
 334 944 302 769 264 573 c 0
 253 517 242 459 231 402 c 0
 226 374 223 348 223 325 c 0
 223 216 282 164 383 154 c 1
 439 438 493 693 538 927 c 2
 556 1020 l 1
 716 1020 l 1
 688 875 l 2
 642 639 600 431 548 168 c 1
 618 187 676 222 722 273 c 0
 833 398 864 500 910 738 c 0
 919 781 923 828 923 871 c 0
 923 920 917 965 908 1002 c 1
 1076 1046 l 1
 1083 1016 1086 978 1086 939 c 0
 1086 870 1077 796 1069 754 c 0
 1068 750 1068 746 1067 742 c 0
 1065 730 1062 717 1060 705 c 0
 1023 514 977 303 769 123 c 0
 714 75 646 29 517 8 c 1
 491 -124 l 2
 469 -239 457 -295 432 -396 c 1
 271 -395 l 1
 287 -333 296 -290 307 -235 c 0
 316 -188 326 -132 343 -46 c 0
 346 -32 348 -18 351 -4 c 1
 349 -4 348 -4 346 -4 c 0
 158 -4 60 121 60 282 c 0
 60 309 62 337 68 366 c 0xe8
EndSplineSet
Validated: 1
EndChar

StartChar: omega
Encoding: 969 969 363
Width: 1060
VWidth: 6
Flags: W
HStem: -10 155<209.557 359.389 602.137 758.217> 1013 28G<205 320.424 957 1022>
VStem: 26 167<152.396 558.672> 883 164<407.815 982.41>
LayerCount: 2
Fore
SplineSet
492 684 m 1
 655 703 l 1
 636 618 619 524 600 431 c 0
 599 423 598 414 596 405 c 0
 588 359 583 318 583 285 c 0
 583 188 618 144 678 144 c 0
 767 144 820 270 849 420 c 0
 870 529 883 634 883 729 c 0
 883 820 871 902 842 967 c 1
 1007 1033 l 1
 1037 959 1047 869 1047 780 c 0
 1047 652 1026 524 1010 441 c 0
 967 218 869 -12 624 -12 c 0
 549 -12 490 33 457 104 c 1
 393 34 316 -10 240 -10 c 0
 78 -10 26 109 26 259 c 0
 26 318 34 381 46 444 c 0
 79 612 132 858 278 1041 c 1
 418 975 l 1
 312 848 253 675 213 468 c 0
 201 404 193 343 193 291 c 0
 193 205 213 145 263 145 c 0
 333 145 388 196 425 321 c 1
 427 337 430 352 433 368 c 0
 453 474 475 584 492 684 c 1
EndSplineSet
Validated: 1
EndChar

StartChar: Alpha
Encoding: 913 913 366
Width: 1060
VWidth: 0
Flags: W
HStem: -19 21G<-25.8333 115.28 752.145 867.333> 326 163<362.944 697> 1278 20G<627.368 752.704>
LayerCount: 2
Fore
SplineSet
638 1298 m 1
 750 1298 l 1
 924 11 l 1
 754 -19 l 1
 722 326 l 1
 580 323 386 324 270 297 c 1
 105 -24 l 1
 -52 0 l 1
 638 1298 l 1
697 490 m 1
 633 982 l 1
 360 470 l 1
 423 483 473 485 557 489 c 1
 697 490 l 1
EndSplineSet
Validated: 1
EndChar

StartChar: Beta
Encoding: 914 914 367
Width: 1060
VWidth: 0
Flags: W
HStem: 3 150<206 647.812> 647 156<338 620.131> 1150 149<397.876 671.75>
VStem: 712 162<984 1107.36> 794 157<308.503 573.422>
LayerCount: 2
Fore
SplineSet
745 578 m 0xe8
 684 639 625 649 530 649 c 0
 481 649 423 647 350 647 c 2
 306 647 l 1
 258 410 222 229 206 153 c 1
 314 153 352 146 427 146 c 0
 467 146 503 148 539 153 c 0
 648 166 760 265 788 409 c 0
 792 429 794 447 794 464 c 0
 794 512 778 546 745 578 c 0xe8
709 992 m 2
 711 1004 712 1015 712 1025 c 0xf0
 712 1114 629 1150 506 1150 c 2
 489 1150 l 2
 450 1150 434 1148 403 1145 c 1
 399 1108 391 1064 382 1017 c 0
 369 950 352 877 338 803 c 1
 485 806 533 799 634 854 c 0
 664 870 696 925 707 984 c 2
 709 992 l 2
182 823 m 0
 216 996 244 1158 260 1285 c 1
 342 1291 392 1299 505 1299 c 0
 511 1299 517 1299 523 1299 c 0
 709 1299 874 1233 874 1062 c 0xf0
 874 1043 872 1023 868 1002 c 0
 849 906 808 823 736 767 c 1
 860 722 951 619 951 471 c 0xe8
 951 446 948 420 943 393 c 0
 899 168 723 23 552 3 c 0
 512 -2 470 -5 431 -5 c 0
 346 -5 258 3 150 3 c 2
 14 3 l 1
 52 197 101 407 182 823 c 0
EndSplineSet
Validated: 1
EndChar

StartChar: Gamma
Encoding: 915 915 368
Width: 1060
VWidth: 0
Flags: W
HStem: 0 21G<36 200.888> 1147 154<420 1056.09>
LayerCount: 2
Fore
SplineSet
289 1301 m 1
 973 1301 l 2
 1048 1301 1083 1287 1127 1271 c 1
 1058 1125 l 1
 1017 1140 999 1144 941 1147 c 1
 420 1147 l 1
 197 0 l 1
 36 0 l 1
 289 1301 l 1
EndSplineSet
Validated: 1
EndChar

StartChar: Epsilon
Encoding: 917 917 369
Width: 1060
VWidth: 0
Flags: W
HStem: -3 150<211 857.952> 666 150<344 752> 1144 153<407 1036>
LayerCount: 2
Fore
SplineSet
278 1293 m 1
 335 1297 405 1297 483 1297 c 0
 514 1297 547 1297 581 1297 c 2
 691 1297 l 2
 840 1297 976 1294 1050 1294 c 2
 1066 1294 l 1
 1036 1144 l 1
 407 1144 l 1
 344 816 l 1
 782 816 l 1
 752 666 l 1
 314 666 l 1
 309 636 l 2
 270 433 226 224 211 147 c 1
 736 149 l 2
 792 149 858 175 858 175 c 1
 873 27 l 1
 822 14 784 -3 708 -3 c 2
 26 -3 l 1
 278 1293 l 1
EndSplineSet
Validated: 1
EndChar

StartChar: Zeta
Encoding: 918 918 370
Width: 1060
VWidth: 0
Flags: W
HStem: -3 154<217 882.795> 1150 152<265 904>
LayerCount: 2
Fore
SplineSet
47 -5 m 1
 -31 83 l 1
 904 1150 l 1
 690 1150 351 1145 237 1145 c 1
 265 1298 l 1
 385 1298 808 1302 996 1302 c 0
 1071 1302 1115 1289 1133 1286 c 1
 1124 1253 1096 1172 1088 1149 c 1
 217 151 l 1
 704 150 l 2
 789 150 817 154 886 175 c 1
 897 27 l 1
 849 11 808 -3 733 -3 c 2
 490 -3 l 2
 278 -3 102 -5 54 -5 c 2
 47 -5 l 1
EndSplineSet
Validated: 1
EndChar

StartChar: Eta
Encoding: 919 919 371
Width: 1060
VWidth: 0
Flags: W
HStem: 0 21G<-15 163.5 679 840.888> 625 152<295.082 800> 1276 20G<237 393.088>
LayerCount: 2
Fore
SplineSet
397 1296 m 1
 290 749 l 1
 386 770 482 777 602 777 c 2
 830 777 l 1
 883 1051 898 1129 929 1291 c 1
 1088 1291 l 1
 837 0 l 1
 679 0 l 1
 800 625 l 1
 757 625 714 625 671 625 c 0
 525 625 383 622 260 597 c 1
 193 254 181 181 146 0 c 1
 -15 0 l 1
 237 1294 l 1
 397 1296 l 1
EndSplineSet
Validated: 1
EndChar

StartChar: Theta
Encoding: 920 920 372
Width: 1060
VWidth: 0
Flags: W
HStem: -16 153<308.984 614.428> 572 153<362 746> 1170 153<521.179 800.813>
VStem: 60 162<224.749 688.372> 885 160<549.799 1067.95>
LayerCount: 2
Fore
SplineSet
256 242 m 0
 292 177 354 137 462 137 c 0
 578 137 663 204 724 287 c 1
 776 351 838 517 860 624 c 1
 864 643 l 2
 876 707 885 783 885 855 c 0
 885 913 880 968 865 1014 c 0
 829 1128 767 1170 679 1170 c 0
 584 1170 523 1142 450 1066 c 0
 364 977 287 835 236 573 c 0
 227 529 222 475 222 423 c 0
 222 352 232 284 256 242 c 0
704 1323 m 1
 809 1323 1045 1270 1045 879 c 0
 1045 808 1038 726 1020 632 c 1
 1018 621 l 2
 986 457 912 304 846 211 c 0
 743 67 597 -16 432 -16 c 0
 310 -16 191 27 129 127 c 0
 83 200 60 292 60 399 c 0
 60 452 65 509 77 569 c 0
 144 914 250 1063 338 1158 c 0
 421 1248 547 1320 704 1323 c 1
362 725 m 1
 776 725 l 1
 746 572 l 1
 332 572 l 1
 362 725 l 1
EndSplineSet
Validated: 1
EndChar

StartChar: Iota
Encoding: 921 921 373
Width: 1060
VWidth: 0
Flags: W
HStem: 4 147<87 376 537 774> 1144 154<309 571 731 1001>
LayerCount: 2
Fore
SplineSet
309 1298 m 1
 466 1302 567 1302 663 1302 c 0
 768 1302 868 1301 1031 1299 c 1
 1001 1147 l 1
 878 1147 827 1152 731 1152 c 1
 537 152 l 1
 583 152 609 153 660 153 c 0
 705 153 752 152 803 149 c 1
 774 -1 l 1
 690 4 628 5 565 5 c 0
 518 5 469 4 410 4 c 0
 336 4 213 -3 58 -3 c 1
 87 146 l 1
 173 150 244 151 301 151 c 2
 376 151 l 1
 571 1151 l 1
 505 1150 392 1150 285 1144 c 1
 309 1298 l 1
EndSplineSet
Validated: 1
EndChar

StartChar: Mu
Encoding: 924 924 375
Width: 1060
VWidth: 31
Flags: W
HStem: -5 21G<-14 147.889 655 815.87> 1293 20G<237 364 898 1067>
VStem: 951 116<1258.23 1313>
LayerCount: 2
Fore
SplineSet
237 1304 m 1
 340 1313 l 1
 388 1216 432 1060 477 938 c 0
 510 848 526 797 538 759 c 1
 651 914 845 1183 951 1313 c 1
 1067 1313 l 1
 812 -5 l 1
 655 -5 l 1
 833 920 l 1
 732 779 575 575 557 539 c 1
 435 542 l 1
 430 558 394 668 339 837 c 1
 327 881 330 872 320 900 c 1
 144 -5 l 1
 -14 -5 l 1
 237 1304 l 1
EndSplineSet
Validated: 1
EndChar

StartChar: Nu
Encoding: 925 925 376
Width: 1060
VWidth: 0
Flags: W
HStem: -3 18G<-1 173 629 835> 1278 19G<248.111 411 918 1093>
VStem: 676 159<-5 157.392>
LayerCount: 2
Fore
SplineSet
676 -6 m 1
 582 351 486 648 353 1001 c 1
 313 797 l 2
 256 504 188 149 158 -3 c 1
 -1 -3 l 1
 252 1298 l 1
 411 1294 l 1
 501 1110 678 605 747 357 c 1
 770 487 796 623 822 757 c 0
 858 943 897 1126 939 1297 c 1
 1093 1297 l 1
 1065 1184 1035 1035 1003 872 c 0
 959 646 913 392 868 162 c 0
 857 105 845 48 835 -5 c 1
 676 -6 l 1
EndSplineSet
Validated: 1
EndChar

StartChar: Omicron
Encoding: 927 927 377
Width: 1060
VWidth: 0
Flags: W
HStem: -16 153<308.984 614.428> 1170 153<521.179 800.813>
VStem: 60 162<224.749 688.372> 885 160<549.799 1067.95>
LayerCount: 2
Fore
SplineSet
256 242 m 0
 292 177 354 137 462 137 c 0
 578 137 663 204 724 287 c 1
 776 351 838 517 860 624 c 1
 864 643 l 2
 876 707 885 783 885 855 c 0
 885 913 880 968 865 1014 c 0
 829 1128 767 1170 679 1170 c 0
 584 1170 523 1142 450 1066 c 0
 364 977 287 835 236 573 c 0
 227 529 222 475 222 423 c 0
 222 352 232 284 256 242 c 0
704 1323 m 1
 809 1323 1045 1270 1045 879 c 0
 1045 808 1038 726 1020 632 c 1
 1018 621 l 2
 986 457 912 304 846 211 c 0
 743 67 597 -16 432 -16 c 0
 310 -16 191 27 129 127 c 0
 83 200 60 292 60 399 c 0
 60 452 65 509 77 569 c 0
 144 914 250 1063 338 1158 c 0
 421 1248 547 1320 704 1323 c 1
EndSplineSet
Validated: 1
EndChar

StartChar: Rho
Encoding: 929 929 378
Width: 1060
VWidth: 0
Flags: W
HStem: -10 21G<27 200> 460 152<307 719.91> 1151 151<412 832.063>
VStem: 922 166<796.778 1077.34>
LayerCount: 2
Fore
SplineSet
185 -10 m 1
 27 -9 l 1
 281 1294 l 1
 399 1294 438 1302 571 1302 c 0
 796 1302 965 1289 1053 1151 c 0
 1078 1111 1088 1061 1088 1008 c 0
 1088 975 1085 940 1078 906 c 0
 1060 815 1034 715 957 628 c 0
 832 488 669 460 430 460 c 0
 382 460 332 461 278 463 c 1
 227 200 215 146 185 -10 c 1
915 900 m 0
 919 923 922 944 922 963 c 0
 922 1116 782 1146 564 1151 c 1
 503 1151 457 1147 412 1146 c 1
 387 1020 l 2
 351 837 307 613 307 613 c 1
 343 612 377 612 410 612 c 0
 696 612 871 672 915 900 c 0
EndSplineSet
Validated: 1
EndChar

StartChar: Tau
Encoding: 932 932 379
Width: 1060
VWidth: 0
Flags: W
HStem: -9 21G<326 489.886> 1144 155<216 550 710 1054.96>
LayerCount: 2
Fore
SplineSet
326 -9 m 1
 550 1144 l 1
 352 1144 262 1143 186 1143 c 1
 216 1298 l 1
 338 1298 793 1299 981 1299 c 0
 1054 1299 1101 1287 1118 1284 c 1
 1055 1132 l 1
 1055 1132 995 1144 945 1144 c 2
 710 1144 l 1
 486 -9 l 1
 326 -9 l 1
EndSplineSet
Validated: 1
EndChar

StartChar: Upsilon
Encoding: 933 933 380
Width: 1060
VWidth: 0
Flags: W
HStem: -6 21G<323 486.817>
LayerCount: 2
Fore
SplineSet
323 -6 m 1
 350 135 l 2
 367 225 425 482 448 601 c 1
 391 712 232 1151 202 1257 c 1
 356 1328 l 1
 381 1251 505 896 565 759 c 1
 690 898 959 1254 1014 1341 c 1
 1137 1262 l 1
 1072 1168 972 1026 834 858 c 1
 722 727 630 616 606 590 c 1
 597 543 585 495 575 441 c 1
 546 309 516 167 508 125 c 2
 483 -6 l 1
 323 -6 l 1
EndSplineSet
Validated: 1
EndChar

StartChar: Chi
Encoding: 935 935 381
Width: 1060
VWidth: 0
Flags: W
LayerCount: 2
Fore
SplineSet
979 1340 m 1
 1097 1255 l 1
 621 657 l 1
 740 390 803 214 918 77 c 1
 792 -36 l 1
 669 111 607 266 502 508 c 1
 79 -31 l 1
 -37 54 l 1
 432 654 l 1
 352 858 299 1082 189 1238 c 1
 332 1331 l 1
 434 1185 485 971 555 799 c 1
 979 1340 l 1
EndSplineSet
Validated: 1
EndChar

StartChar: Delta
Encoding: 916 916 382
Width: 1060
VWidth: 0
Flags: W
HStem: 0 151<190 745> 1278 20G<627.289 752.823>
LayerCount: 2
Fore
SplineSet
759 0 m 1
 110 -5 l 1
 -47 19 l 1
 638 1298 l 1
 750 1298 l 1
 929 30 l 1
 759 0 l 1
633 982 m 1
 484 698 336 438 190 151 c 1
 745 151 l 1
 721 444 669 699 633 982 c 1
EndSplineSet
Validated: 1
EndChar

StartChar: Lambda
Encoding: 923 923 383
Width: 1060
VWidth: 0
Flags: W
HStem: -19 21G<-25.8333 199 732 867.333> 1278 20G<627.368 752.704>
LayerCount: 2
Fore
SplineSet
754 -19 m 1
 710 318 677 651 633 982 c 1
 454 650 293 306 105 -24 c 1
 -52 0 l 1
 638 1298 l 1
 750 1298 l 1
 924 11 l 1
 754 -19 l 1
EndSplineSet
Validated: 1
EndChar

StartChar: Xi
Encoding: 926 926 384
Width: 1060
VWidth: 0
Flags: W
HStem: -3 150<54 857.952> 666 150<344 752> 1144 153<278 1036>
LayerCount: 2
Fore
SplineSet
344 816 m 1
 782 816 l 1
 752 666 l 1
 314 666 l 1
 344 816 l 1
278 1293 m 1
 335 1297 405 1297 483 1297 c 0
 514 1297 547 1297 581 1297 c 2
 691 1297 l 2
 840 1297 976 1294 1050 1294 c 2
 1066 1294 l 1
 1036 1144 l 1
 251 1144 l 1
 278 1293 l 1
54 147 m 1
 736 149 l 2
 792 149 858 175 858 175 c 1
 873 27 l 1
 822 14 784 -3 708 -3 c 2
 26 -3 l 1
 54 147 l 1
EndSplineSet
Validated: 1
EndChar

StartChar: Pi
Encoding: 928 928 385
Width: 1060
VWidth: 0
Flags: W
HStem: 0 21G<64 228.867 708.5 863> 1144 152<446 900 1059 1147>
VStem: 706 157<9 365.803>
LayerCount: 2
Fore
SplineSet
225 0 m 1
 64 0 l 1
 284 1131 l 1
 254 1127 225 1122 194 1116 c 1
 204 1268 l 1
 300 1289 397 1296 517 1296 c 2
 1177 1296 l 1
 1147 1144 l 1
 1059 1144 l 1
 910 378 l 2
 885 251 872 126 863 9 c 1
 706 -4 l 1
 711 117 728 255 753 384 c 2
 900 1144 l 1
 568 1144 l 2
 524 1144 484 1144 446 1143 c 1
 225 0 l 1
EndSplineSet
Validated: 1
EndChar

StartChar: Sigma
Encoding: 931 931 386
Width: 1060
VWidth: 0
Flags: W
HStem: -3 150<219 857.952> 1144 153<468 1036>
LayerCount: 2
Fore
SplineSet
468 1144 m 1
 816 752 l 1
 784 620 l 1
 219 147 l 1
 736 149 l 2
 792 149 858 175 858 175 c 1
 873 27 l 1
 822 14 784 -3 708 -3 c 2
 26 -3 l 1
 35 172 l 1
 653 687 l 1
 224 1170 l 1
 278 1293 l 1
 335 1297 405 1297 483 1297 c 0
 514 1297 547 1297 581 1297 c 2
 691 1297 l 2
 840 1297 976 1294 1050 1294 c 2
 1066 1294 l 1
 1036 1144 l 1
 468 1144 l 1
EndSplineSet
Validated: 1
EndChar

StartChar: Phi
Encoding: 934 934 387
Width: 1060
VWidth: 0
Flags: W
HStem: 0 21G<339 506.5> 170 165<302.752 374> 984 154<722 796.188> 1287 20G<591.129 755>
VStem: 72 166<397.27 727.725> 874 161<638 902.25>
LayerCount: 2
Fore
SplineSet
374 170 m 1
 286 182 206 214 156 268 c 0
 100 328 72 407 72 498 c 0
 72 528 75 559 81 591 c 0
 130 843 228 952 311 1021 c 0
 371 1071 456 1113 561 1131 c 1
 566 1158 572 1186 577 1214 c 2
 595 1307 l 1
 755 1307 l 1
 727 1162 l 1
 722 1138 l 1
 844 1124 1035 1054 1035 777 c 0
 1035 735 1031 689 1021 637 c 1
 1019 629 l 2
 996 509 930 397 869 329 c 0
 788 239 672 182 536 168 c 1
 531 142 528 122 524 102 c 0
 519 74 512 46 501 0 c 1
 339 1 l 1
 347 32 350 49 353 64 c 0
 356 79 360 93 365 121 c 0
 368 136 371 152 374 170 c 1
568 332 m 1
 648 345 707 380 750 422 c 1
 798 463 849 570 863 638 c 1
 865 650 l 2
 870 679 874 712 874 745 c 0
 874 796 865 848 841 888 c 0
 805 947 755 975 692 984 c 1
 657 798 627 639 577 382 c 2
 568 332 l 1
405 335 m 1
 454 585 493 781 531 975 c 1
 493 965 458 947 422 921 c 0
 342 864 276 773 243 605 c 0
 240 587 238 567 238 546 c 0
 238 489 252 428 286 394 c 0
 314 366 351 345 405 335 c 1
EndSplineSet
Validated: 1
EndChar

StartChar: Psi
Encoding: 936 936 388
Width: 1060
VWidth: 6
Flags: W
HStem: 0 21G<378 553> 403 159<351.32 461 657 815.628> 1302 8G<269.778 392 619.5 801 1033 1189>
VStem: 142 162<608.425 963.37> 229 164<999.555 1303> 1033 159<1013.95 1298>
LayerCount: 2
Fore
SplineSet
149 770 m 0xf4
 161 830 171 886 181 937 c 0
 209 1082 229 1190 229 1259 c 0
 229 1273 229 1284 227 1295 c 1
 392 1322 l 1
 392 1316 393 1310 393 1303 c 0xec
 393 1231 373 1123 342 963 c 0
 333 915 323 863 312 806 c 0
 306 777 304 753 304 730 c 0
 304 599 392 562 494 562 c 1
 504 614 515 665 525 716 c 0
 565 921 601 1121 638 1310 c 1
 801 1310 l 1
 764 1119 731 940 693 743 c 0
 682 684 670 624 657 561 c 1
 876 561 927 680 995 1028 c 1
 1011 1120 1026 1220 1033 1298 c 1
 1192 1315 l 1
 1186 1233 1171 1132 1158 1066 c 0
 1155 1053 1154 1042 1152 1032 c 0
 1077 644 991 439 625 404 c 1
 596 264 567 127 539 0 c 1
 378 1 l 1
 394 63 425 220 436 275 c 0
 444 316 452 359 461 403 c 1
 244 423 142 546 142 698 c 0
 142 722 144 745 149 770 c 0xf4
EndSplineSet
Validated: 1
EndChar

StartChar: Omega
Encoding: 937 937 389
Width: 1060
VWidth: 0
Flags: W
HStem: 1 150<-12 155 749 950.952> 1170 153<498.9 839.123>
VStem: 54 161<313.125 763.799> 938 153<636.1 1068.86>
LayerCount: 2
Fore
SplineSet
319 1 m 1
 -39 1 l 1
 -12 151 l 1
 155 151 l 1
 99 243 54 372 54 509 c 0
 54 546 57 583 64 620 c 0
 131 965 222 1062 310 1157 c 0
 393 1247 532 1323 704 1323 c 0
 899 1323 1091 1261 1091 929 c 0
 1091 859 1083 778 1064 683 c 2
 1062 672 l 2
 1014 423 858 250 749 151 c 1
 829 152 l 2
 885 152 951 178 951 178 c 1
 966 30 l 1
 916 17 879 0 807 0 c 0
 805 0 803 0 801 0 c 2
 533 0 l 1
 533 148 l 1
 618 209 847 383 904 675 c 2
 908 694 l 2
 910 706 913 717 915 729 c 0
 927 790 938 849 938 907 c 0
 938 945 933 983 921 1020 c 0
 885 1134 767 1170 679 1170 c 0
 584 1170 495 1141 422 1065 c 0
 336 976 274 886 223 624 c 0
 217 594 215 564 215 534 c 0
 215 352 312 180 376 152 c 1
 319 1 l 1
EndSplineSet
Validated: 1
EndChar

StartChar: tonos
Encoding: 900 900 390
Width: 1060
VWidth: -43
Flags: W
HStem: 1222 491
VStem: 548 418
LayerCount: 2
Fore
SplineSet
548 1316 m 1
 666 1433 731 1560 800 1713 c 1
 966 1650 l 1
 904 1496 779 1338 662 1222 c 1
 548 1316 l 1
EndSplineSet
Validated: 1
EndChar

StartChar: uni03D0
Encoding: 976 976 411
Width: 1060
VWidth: 0
Flags: W
HStem: 0 153<345.856 650.36> 668 131<311.598 582.756> 1176 152<471.625 692.005>
VStem: 95 161<244.454 641.657> 725 159<913.979 1141.41> 799 156<302.496 585.986>
LayerCount: 2
Fore
SplineSet
277 644 m 1xf4
 265 570 256 498 256 434 c 0
 256 271 311 153 498 153 c 0
 638 153 766 261 792 395 c 0
 797 419 799 441 799 461 c 0
 799 608 682 668 504 668 c 0
 436 668 360 660 277 644 c 1xf4
308 799 m 1
 491 811 685 822 721 1005 c 0
 724 1020 725 1034 725 1047 c 0xf8
 725 1132 664 1176 568 1176 c 0
 503 1176 382 1110 308 799 c 1
137 736 m 0
 219 1156 411 1328 597 1328 c 0
 757 1328 884 1255 884 1088 c 0xf8
 884 1064 881 1039 876 1011 c 0
 856 909 812 832 746 779 c 1
 882 739 955 645 955 494 c 0xf4
 955 459 951 422 943 381 c 0
 902 171 736 0 468 0 c 0
 181 0 95 157 95 386 c 0
 95 490 112 610 137 736 c 0
EndSplineSet
Validated: 1
EndChar

StartChar: theta1
Encoding: 977 977 412
Width: 1060
VWidth: 0
Flags: W
HStem: -16 153<315.19 600.13> 590 158<395.631 849.022> 1170 153<521.644 795.798>
VStem: 64 164<229.11 589.579> 200 163<781.119 1019.78> 885 160<743.772 1069.42>
LayerCount: 2
Fore
SplineSet
243 603 m 1xf4
 234 557 228 497 228 437 c 0xf4
 228 362 238 288 261 247 c 0
 297 182 354 137 462 137 c 0
 578 137 666 224 727 307 c 1
 773 363 824 483 851 584 c 1
 809 590 754 591 690 591 c 0
 639 591 582 590 520 590 c 0
 376 590 200 656 200 847 c 0xec
 200 869 202 893 207 918 c 0
 221 990 249 1069 334 1160 c 0
 417 1250 562 1323 704 1323 c 0
 798 1323 1045 1258 1045 869 c 0
 1045 801 1037 722 1020 632 c 2
 1018 621 l 2
 986 457 914 324 848 231 c 0
 745 87 597 -16 432 -16 c 0
 310 -16 195 32 133 132 c 0
 87 205 64 305 64 416 c 0
 64 471 69 530 81 590 c 1
 243 603 l 1xf4
879 742 m 1
 883 779 885 818 885 855 c 0
 885 913 880 968 865 1014 c 0
 829 1128 751 1170 679 1170 c 0
 601 1170 522 1143 447 1068 c 0
 387 1008 373 957 367 927 c 0
 364 910 363 895 363 881 c 0xec
 363 765 458 748 558 748 c 0
 738 748 829 747 879 742 c 1
EndSplineSet
Validated: 1
EndChar

StartChar: Upsilon1
Encoding: 978 978 413
Width: 1060
VWidth: 4
Flags: W
HStem: 0 21G<357 516.889> 1070 298<1008.33 1150>
VStem: 1004 170<1071.31 1282.5> 1004 147<1070 1210.91>
LayerCount: 2
Fore
SplineSet
611 976 m 1xe0
 702 1121 901 1368 1034 1368 c 0
 1141 1368 1174 1323 1174 1242 c 0xe0
 1174 1197 1164 1141 1151 1076 c 0xd0
 1151 1074 1150 1072 1150 1070 c 1
 993 1070 l 1
 1001 1124 1004 1164 1004 1188 c 0
 1004 1200 1003 1208 1002 1212 c 1
 981 1199 697 945 646 684 c 2
 513 0 l 1
 357 1 l 1
 490 683 l 2
 495 710 498 738 498 766 c 0
 498 969 368 1185 189 1215 c 1
 282 1376 l 1
 447 1328 590 1129 611 976 c 1xe0
EndSplineSet
Validated: 1
EndChar

StartChar: uni03D3
Encoding: 979 979 414
Width: 1060
VWidth: 0
Flags: W
HStem: 0 21G<427 586.889> 1070 298<1009.19 1150>
VStem: 1004 170<1071.31 1282.5> 1004 147<1070 1210.91>
LayerCount: 2
Fore
SplineSet
687 999 m 1xe0
 778 1144 901 1368 1034 1368 c 0
 1141 1368 1174 1323 1174 1242 c 0xe0
 1174 1197 1164 1141 1151 1076 c 0xd0
 1151 1074 1150 1072 1150 1070 c 1
 993 1070 l 1
 1001 1124 1004 1164 1004 1188 c 0
 1004 1200 1003 1208 1002 1212 c 1
 981 1199 767 945 716 684 c 2
 583 0 l 1
 427 1 l 1
 560 683 l 2
 568 724 572 768 572 811 c 0
 572 1000 500 1187 390 1215 c 1
 483 1376 l 1
 648 1328 667 1152 687 999 c 1xe0
182 1224 m 1
 275 1354 320 1494 377 1662 c 1
 546 1635 l 1
 483 1481 398 1290 298 1164 c 1
 182 1224 l 1
EndSplineSet
Validated: 1
EndChar

StartChar: phi1
Encoding: 981 981 416
Width: 1060
VWidth: 6
Flags: W
HStem: -2 153<279.187 350 536 629.48> 874 155<430.735 520 707 763.447> 1393 20G<621.094 783>
VStem: 76 160<191.897 593.804> 813 159<416.27 827.973>
LayerCount: 2
Fore
SplineSet
509 -1 m 1
 475 -187 439 -381 437 -398 c 1
 275 -396 l 1
 276 -380 314 -186 350 -2 c 1
 170 7 76 115 76 309 c 0
 76 656 249 995 550 1029 c 1
 625 1413 l 1
 783 1413 l 1
 773 1362 743 1211 707 1026 c 1
 890 1004 972 866 972 683 c 0
 972 292 779 19 509 -1 c 1
379 151 m 1
 520 874 l 1
 344 845 236 560 236 325 c 0
 236 188 304 159 379 151 c 1
813 673 m 0
 813 789 774 862 678 876 c 1
 624 598 559 264 536 146 c 1
 695 160 813 441 813 673 c 0
EndSplineSet
Validated: 1
EndChar

StartChar: omega1
Encoding: 982 982 417
Width: 1060
VWidth: 6
Flags: W
HStem: -10 155<209.557 359.389 602.137 758.217> 868 154<161 221 371.293 837.106 1003 1077>
VStem: 26 167<152.396 539.847> 869 159<334.64 860.815>
LayerCount: 2
Fore
SplineSet
492 684 m 1
 655 703 l 1
 636 618 619 524 600 431 c 0
 599 423 598 414 596 405 c 0
 588 359 583 318 583 285 c 0
 583 188 618 144 678 144 c 0
 767 144 820 270 849 420 c 0
 863 490 869 553 869 611 c 0
 869 709 851 792 822 868 c 1
 403 868 l 1
 316 759 248 649 213 468 c 0
 201 404 193 343 193 291 c 0
 193 205 213 145 263 145 c 0
 333 145 388 196 425 321 c 1
 427 337 430 352 433 368 c 0
 453 474 475 584 492 684 c 1
161 1018 m 1
 218 1022 288 1022 366 1022 c 0
 397 1022 430 1022 464 1022 c 2
 574 1022 l 2
 723 1022 1016 1018 1090 1018 c 2
 1106 1018 l 1
 1077 868 l 1
 1003 868 l 1
 1021 791 1028 712 1028 638 c 0
 1028 565 1021 497 1010 441 c 0
 967 218 869 -12 624 -12 c 0
 549 -12 490 33 457 104 c 1
 393 34 316 -10 240 -10 c 0
 78 -10 26 109 26 259 c 0
 26 318 34 381 46 444 c 0
 72 577 128 722 221 868 c 1
 134 868 l 1
 161 1018 l 1
EndSplineSet
Validated: 1
EndChar

StartChar: uni03D7
Encoding: 983 983 418
Width: 1060
VWidth: 0
Flags: W
HStem: -345 150<520 717.459> 0 156<612 793.573> 863 157<272.01 416.99>
VStem: 422 161<634.234 858.07> 502 162<158.097 381.183>
LayerCount: 2
Fore
SplineSet
104 828 m 1xf0
 104 828 245 1020 392 1020 c 0
 495 1020 583 946 583 810 c 0xf0
 583 788 581 765 576 740 c 0
 571 715 537 616 506 570 c 1
 560 604 633 658 706 709 c 1
 726 724 l 1
 818 878 892 1018 1039 1018 c 0
 1089 1018 1108 988 1108 943 c 0
 1108 930 1107 917 1104 902 c 0
 1083 792 928 668 810 588 c 1
 766 511 687 377 670 287 c 0
 666 266 664 248 664 233 c 0
 664 179 688 156 728 156 c 0
 780 156 815 180 851 240 c 1
 982 191 l 1
 978 169 l 2
 921 -122 873 -345 491 -345 c 1
 520 -195 l 1
 723 -195 791 -127 826 55 c 0
 827 58 827 62 828 65 c 1
 773 30 709 0 652 0 c 0
 572 0 502 70 502 198 c 0xe8
 502 223 504 250 510 279 c 0
 515 304 549 404 580 450 c 1
 526 416 451 360 378 309 c 1
 361 296 l 1
 269 142 194 1 47 1 c 0
 -3 1 -22 31 -22 76 c 0
 -22 89 -20 103 -17 118 c 0
 8 249 162 354 280 434 c 1
 324 511 399 642 416 732 c 0
 420 753 422 771 422 786 c 0
 422 840 398 863 358 863 c 0
 306 863 241 789 174 734 c 1
 104 828 l 1xf0
EndSplineSet
Validated: 1
EndChar

StartChar: uni03CF
Encoding: 975 975 419
Width: 1060
VWidth: 0
Flags: W
HStem: -345 134<517 680.637> -5 21G<40 201.899> 1288 20G<291.116 453 1029.5 1058.98>
LayerCount: 2
Fore
SplineSet
790 -17 m 1
 765 92 536 474 430 600 c 1
 430 600 327 502 283 431 c 1
 198 -5 l 1
 40 -5 l 1
 295 1308 l 1
 453 1308 l 1
 336 703 l 1
 438 814 524 893 643 996 c 1
 872 1191 1017 1289 1042 1310 c 1
 1132 1204 l 1
 924 1072 624 798 550 725 c 1
 647 608 913 194 938 59 c 1
 890 -166 815 -345 491 -345 c 1
 517 -211 l 1
 679 -211 754 -133 790 -17 c 1
EndSplineSet
Validated: 1
EndChar

StartChar: uni03D8
Encoding: 984 984 420
Width: 1060
VWidth: 0
Flags: W
HStem: -9 146<308.523 349 520 613.547> 1170 153<521.179 800.813>
VStem: 60 162<224.749 688.372> 885 160<549.799 1067.95>
LayerCount: 2
Fore
SplineSet
256 242 m 0
 292 177 354 137 462 137 c 0
 578 137 663 204 724 287 c 1
 776 351 838 517 860 624 c 1
 864 643 l 2
 876 707 885 783 885 855 c 0
 885 913 880 968 865 1014 c 0
 829 1128 767 1170 679 1170 c 0
 584 1170 523 1142 450 1066 c 0
 364 977 287 835 236 573 c 0
 227 529 222 475 222 423 c 0
 222 352 232 284 256 242 c 0
704 1323 m 1
 809 1323 1045 1270 1045 879 c 0
 1045 808 1038 726 1020 632 c 1
 1018 621 l 2
 986 457 912 304 846 211 c 0
 762 93 649 16 520 -8 c 1
 461 -315 l 1
 290 -315 l 1
 349 -9 l 1
 258 7 176 50 129 127 c 0
 83 200 60 292 60 399 c 0
 60 452 65 509 77 569 c 0
 144 914 250 1063 338 1158 c 0
 421 1248 547 1320 704 1323 c 1
EndSplineSet
Validated: 1
EndChar

StartChar: uni03D9
Encoding: 985 985 421
Width: 1060
VWidth: 6
Flags: W
HStem: 8 148<303 321 491 594.729> 878 154<440.388 728.186>
VStem: 73 162<221.026 586.445> 787 161<425.23 817.774>
LayerCount: 2
Fore
SplineSet
621 215 m 1
 698 276 742 382 771 530 c 0
 772 536 774 542 775 548 c 0
 782 588 787 627 787 662 c 0
 787 789 734 878 596 878 c 0
 388 878 293 713 246 469 c 0
 239 433 235 399 235 368 c 0
 235 234 303 156 439 156 c 1
 515 157 563 173 621 215 c 1
321 8 m 1
 154 38 73 155 73 329 c 0
 73 371 78 416 87 464 c 0
 144 756 300 1032 592 1032 c 0
 789 1032 886 963 930 831 c 0
 943 792 948 745 948 695 c 0
 948 644 943 592 933 543 c 0
 882 283 756 47 491 7 c 1
 429 -315 l 1
 258 -315 l 1
 321 8 l 1
EndSplineSet
Validated: 1
EndChar

StartChar: uni03DB
Encoding: 987 987 422
Width: 1060
VWidth: 4
Flags: W
HStem: -351 152<402 561.422> 865 153<437.928 1088>
VStem: 70 167<193.267 596.723> 603 161<-158.755 -44.2198>
LayerCount: 2
Fore
SplineSet
257 527 m 0
 243 456 237 398 237 351 c 0
 237 151 345 154 398 150 c 0
 630 131 764 89 764 -46 c 0
 764 -61 762 -77 759 -95 c 0
 740 -191 661 -343 395 -351 c 1
 402 -199 l 1
 519 -185 589 -168 602 -99 c 0
 603 -96 603 -94 603 -92 c 0
 603 -32 452 -16 372 -7 c 0
 150 16 70 110 70 294 c 0
 70 360 81 437 98 527 c 0
 169 894 372 1018 687 1018 c 0
 793 1018 874 1017 950 1017 c 0
 1007 1017 1059 1017 1117 1020 c 1
 1088 855 l 1
 1047 859 806 865 646 865 c 0
 425 865 303 766 257 527 c 0
EndSplineSet
Validated: 1
EndChar

StartChar: uni03DA
Encoding: 986 986 423
Width: 1060
VWidth: 4
Flags: W
HStem: -351 152<402 561.422> 1168 153<522.501 1138>
VStem: 86 168<212.32 694.105> 603 161<-158.755 -45.1503>
LayerCount: 2
Fore
SplineSet
291 700 m 0
 267 574 254 473 254 395 c 0
 254 240 302 171 398 150 c 0
 621 102 764 83 764 -49 c 0
 764 -63 762 -78 759 -95 c 0
 740 -191 661 -343 395 -351 c 1
 402 -199 l 1
 519 -185 589 -168 602 -99 c 0
 602 -96 603 -94 603 -92 c 0
 603 -32 450 -20 372 -7 c 0
 149 28 86 166 86 347 c 0
 86 453 108 574 132 700 c 0
 203 1067 368 1321 736 1321 c 0
 842 1321 924 1320 1000 1320 c 0
 1057 1320 1109 1320 1167 1323 c 1
 1138 1157 l 1
 1097 1161 855 1168 695 1168 c 0
 434 1168 337 939 291 700 c 0
EndSplineSet
Validated: 1
EndChar

StartChar: uni03DC
Encoding: 988 988 424
Width: 1060
VWidth: 0
Flags: W
HStem: -1 21G<42 211> 668 150<355 761.348> 1145 153<419 1044.92>
LayerCount: 2
Fore
SplineSet
202 -1 m 1
 42 3 l 1
 293 1298 l 1
 978 1298 l 1
 1054 1295 1100 1280 1131 1263 c 1
 1046 1117 l 1
 1023 1131 1004 1144 906 1145 c 1
 836 1145 l 2
 732 1145 602 1144 419 1143 c 1
 355 815 l 1
 475 815 543 818 665 818 c 0
 753 818 809 804 810 804 c 2
 827 799 l 1
 763 654 l 1
 728 663 678 668 633 668 c 0
 527 668 435 668 326 665 c 1
 302 544 220 92 202 -1 c 1
EndSplineSet
Validated: 1
EndChar

StartChar: uni03DD
Encoding: 989 989 425
Width: 1060
VWidth: -2
Flags: W
HStem: -308 146<-57.3057 184.154> 859 154<660 957.063> 1266 152<742.443 1049.93>
LayerCount: 2
Fore
SplineSet
339 152 m 0
 363 275 472 857 512 1064 c 0
 540 1207 610 1418 887 1418 c 0
 904 1418 919 1418 933 1418 c 0
 1051 1418 1067 1413 1189 1321 c 1
 1093 1191 l 1
 1013 1251 997 1266 865 1266 c 0
 718 1266 690 1168 669 1060 c 2
 660 1013 l 1
 728 1013 786 1012 859 1012 c 1
 962 1009 988 1001 1016 992 c 1
 958 846 l 1
 938 853 919 859 863 859 c 2
 630 859 l 1
 601 705 497 156 496 152 c 0
 450 -84 340 -308 1 -308 c 0
 -29 -308 -61 -307 -94 -303 c 1
 -55 -156 l 1
 -28 -160 -2 -162 22 -162 c 0
 230 -162 308 -6 339 152 c 0
EndSplineSet
Validated: 1
EndChar

StartChar: uni0190
Encoding: 400 400 426
Width: 1060
VWidth: 0
Flags: W
HStem: 0 154<279.817 677.11> 656 151<434.915 657> 1055 21G<952 997.857> 1144 153<483.305 901.693>
VStem: 41 159<226.568 491.714> 219 155<862.595 1054.39>
LayerCount: 2
Fore
SplineSet
896 161 m 1
 817 108 675 0 426 0 c 0
 251 0 167 34 103 106 c 0
 57 158 41 218 41 280 c 0
 41 316 47 353 54 390 c 0
 89 568 175 694 329 730 c 1
 250 758 219 832 219 914 c 0
 219 937 221 961 226 985 c 0
 264 1180 433 1297 712 1297 c 2
 724 1297 l 2
 949 1297 1023 1236 1087 1195 c 1
 983 1055 l 1
 921 1097 823 1144 684 1144 c 0
 524 1144 396 1082 377 985 c 0
 375 974 374 963 374 953 c 0
 374 818 565 807 665 807 c 2
 669 807 l 1
 687 807 l 1
 657 655 l 1
 632 655 607 656 582 656 c 0
 521 656 461 652 384 624 c 0
 269 583 218 455 205 388 c 0
 202 372 200 357 200 342 c 0
 200 223 302 154 457 154 c 0
 641 154 763 238 822 284 c 1
 896 161 l 1
EndSplineSet
Validated: 1
EndChar

StartChar: uni0228
Encoding: 552 552 482
Width: 1060
VWidth: 0
Flags: W
HStem: -403 125<190.312 406.869> -3 151<211 292 428.653 834.964> 666 150<344 782> 1144 153<407 1066>
VStem: 292 133<-64 -3> 414 138<-266.877 -169.195>
LayerCount: 2
Fore
SplineSet
278 1293 m 1xf8
 335 1297 405 1297 483 1297 c 0
 514 1297 547 1297 581 1297 c 2
 691 1297 l 2
 840 1297 976 1294 1050 1294 c 2
 1066 1294 l 1
 1066 1144 l 1
 407 1144 l 1
 344 816 l 1
 782 816 l 1
 782 666 l 1
 314 666 l 1
 309 636 l 1
 270 433 226 225 211 148 c 1
 730 148 l 2
 786 148 835 168 835 168 c 1
 885 27 l 1
 840 9 796 -3 720 -3 c 2
 438 -3 l 1
 433 -24 426 -62 425 -64 c 1xf8
 506 -68 552 -113 552 -190 c 0
 552 -204 550 -219 547 -235 c 0
 527 -336 414 -403 330 -403 c 0
 264 -403 197 -378 148 -342 c 1
 207 -236 l 1
 237 -254 272 -278 323 -278 c 0
 359 -278 404 -258 414 -220 c 1
 414 -218 l 2xf4
 414 -216 415 -213 415 -211 c 0
 415 -185 383 -164 339 -164 c 0
 291 -164 288 -171 258 -181 c 1
 292 -3 l 1
 26 -3 l 1
 278 1293 l 1xf8
EndSplineSet
Validated: 1
EndChar

StartChar: uni0229
Encoding: 553 553 483
Width: 1060
VWidth: 0
Flags: W
HStem: -395 125<241.312 457.869> -9 152<476.645 682.814> 869 152<447.657 761.392>
VStem: 86 160<210.682 344.433> 465 138<-258.877 -161.195> 811 146<635.961 821.03>
LayerCount: 2
Fore
SplineSet
262 492 m 1
 377 500 586 513 700 581 c 0
 775 626 811 683 811 735 c 0
 811 808 740 869 604 869 c 0
 434 869 311 743 262 492 c 1
632 1021 m 0
 847 1021 957 885 957 740 c 0
 957 639 903 534 794 467 c 0
 641 374 390 352 246 341 c 1
 246 338 246 334 246 330 c 0
 246 258 285 143 479 143 c 0
 658 143 757 224 806 278 c 1
 908 169 l 1
 860 126 750 3 486 -9 c 1
 482 -30 477 -54 476 -56 c 1
 557 -60 603 -105 603 -182 c 0
 603 -196 601 -211 598 -227 c 0
 578 -328 465 -395 381 -395 c 0
 315 -395 248 -370 199 -334 c 1
 258 -228 l 1
 288 -246 323 -270 374 -270 c 0
 410 -270 455 -250 465 -212 c 1
 465 -210 l 2
 465 -208 466 -205 466 -203 c 0
 466 -177 434 -156 390 -156 c 0
 342 -156 339 -163 309 -173 c 1
 342 0 l 1
 168 36 86 166 86 356 c 0
 86 405 92 459 103 516 c 0
 159 802 349 1021 632 1021 c 0
EndSplineSet
Validated: 1
EndChar

StartChar: uni0311
Encoding: 785 785 492
Width: 1060
VWidth: -12
Flags: W
HStem: 1510 153<581.763 873.224>
VStem: 898 171<1399 1481.33>
LayerCount: 2
Fore
SplineSet
729 1510 m 0
 636 1510 549 1477 499 1360 c 1
 331 1394 l 1
 423 1619 619 1663 781 1663 c 1
 941 1663 1054 1565 1069 1415 c 0
 1069 1410 1069 1404 1069 1399 c 1
 897 1369 l 1
 898 1374 898 1379 898 1383 c 0
 898 1455 874 1510 729 1510 c 0
EndSplineSet
Validated: 1
EndChar

StartChar: uni0312
Encoding: 786 786 494
Width: 1060
VWidth: -43
Flags: W
HStem: 1235 420
VStem: 451 327
LayerCount: 2
Fore
SplineSet
451 1283 m 1
 511 1395 559 1504 633 1655 c 1
 778 1621 l 1
 732 1479 677 1338 636 1235 c 1
 451 1283 l 1
EndSplineSet
Validated: 1
EndChar

StartChar: uni0313
Encoding: 787 787 495
Width: 1060
VWidth: 26
Flags: W
HStem: 1099 498
VStem: 562 321
LayerCount: 2
Fore
SplineSet
663 1597 m 1
 883 1597 l 1
 842 1382 l 1
 813 1231 731 1155 591 1099 c 1
 562 1226 l 1
 627 1254 658 1277 677 1376 c 1
 620 1376 l 1
 663 1597 l 1
EndSplineSet
Validated: 1
EndChar

StartChar: uni0314
Encoding: 788 788 496
Width: 1060
VWidth: 26
Flags: W
HStem: 1099 498<674.991 754.692>
VStem: 597 162<1206.1 1375.29>
LayerCount: 2
Fore
SplineSet
866 1597 m 1
 823 1376 l 1
 766 1376 l 1
 761 1352 759 1332 759 1316 c 0
 759 1265 781 1247 823 1226 c 1
 746 1099 l 1
 649 1145 597 1204 597 1307 c 0
 597 1330 600 1355 605 1382 c 1
 646 1597 l 1
 866 1597 l 1
EndSplineSet
Validated: 1
EndChar

StartChar: uni0328
Encoding: 808 808 510
Width: 1060
VWidth: 12
Flags: W
HStem: -444 144<355.311 575.1>
VStem: 188 159<-288.953 -161.071>
LayerCount: 2
Fore
SplineSet
717 41 m 0
 595 -44 362 -142 348 -216 c 0
 347 -221 347 -226 347 -231 c 0
 347 -277 395 -300 453 -300 c 0
 511 -300 558 -267 592 -245 c 1
 650 -351 l 1
 597 -399 500 -444 421 -444 c 0
 259 -444 188 -375 188 -269 c 0
 188 -252 189 -235 193 -216 c 0
 228 -36 500 7 561 68 c 1
 717 41 l 0
EndSplineSet
Validated: 1
EndChar

StartChar: ogonek
Encoding: 731 731 511
Width: 1060
VWidth: 12
Flags: W
HStem: -444 144<355.311 575.1>
VStem: 188 159<-288.953 -161.071>
LayerCount: 2
Fore
SplineSet
717 41 m 0
 595 -44 362 -142 348 -216 c 0
 347 -221 347 -226 347 -231 c 0
 347 -277 395 -300 453 -300 c 0
 511 -300 558 -267 592 -245 c 1
 650 -351 l 1
 597 -399 500 -444 421 -444 c 0
 259 -444 188 -375 188 -269 c 0
 188 -252 189 -235 193 -216 c 0
 228 -36 500 7 561 68 c 1
 717 41 l 0
EndSplineSet
Validated: 1
EndChar

StartChar: uni01EA
Encoding: 490 490 514
Width: 1060
VWidth: 0
Flags: W
HStem: -476 144<366.784 587.718> 1170 153<520.82 805.967>
VStem: 60 162<224.749 688.866> 200 159<-321.365 -162.189> 897 147<566.193 1066.82>
LayerCount: 2
Fore
SplineSet
704 1323 m 1xe8
 790 1323 1044 1256 1044 861 c 0
 1044 794 1036 718 1020 632 c 1
 1018 621 l 2
 986 457 909 286 843 193 c 1
 692 -32 399 -60 361 -248 c 0
 360 -253 359 -258 359 -263 c 0
 359 -309 406 -332 464 -332 c 0
 522 -332 571 -299 605 -277 c 1
 663 -383 l 1
 610 -431 511 -476 432 -476 c 0
 270 -476 200 -407 200 -302 c 0xd8
 200 -285 201 -267 205 -248 c 0
 224 -149 279 -88 373 -12 c 1
 273 0 181 43 129 127 c 0
 83 200 60 292 60 399 c 0
 60 452 65 509 77 569 c 0
 144 914 263 1086 351 1181 c 0
 434 1271 547 1320 704 1323 c 1xe8
256 242 m 0
 292 177 354 137 462 137 c 0
 578 137 663 204 724 287 c 1
 776 351 846 518 867 625 c 0
 882 700 897 791 897 875 c 0
 897 923 892 969 879 1009 c 0
 843 1123 767 1170 679 1170 c 0
 584 1170 523 1142 450 1066 c 0
 364 977 287 835 236 573 c 0
 227 529 222 475 222 423 c 0xe8
 222 352 232 284 256 242 c 0
EndSplineSet
Validated: 1
EndChar

StartChar: uni01EB
Encoding: 491 491 515
Width: 1060
VWidth: 0
Flags: W
HStem: -473 144<320.311 540.567> 878 154<440.665 725.988>
VStem: 78 157<219.207 597.238> 153 159<-317.953 -177.472> 787 159<414.992 817.867>
LayerCount: 2
Fore
SplineSet
621 215 m 1xe8
 698 276 742 382 771 530 c 0
 772 536 774 542 775 548 c 0
 782 588 787 627 787 662 c 0
 787 789 734 878 596 878 c 0
 388 878 293 713 246 469 c 0
 239 433 235 399 235 368 c 0
 235 234 303 156 439 156 c 1
 515 157 563 173 621 215 c 1xe8
756 149 m 1
 604 -26 334 -135 313 -245 c 0
 312 -250 312 -255 312 -260 c 0
 312 -306 360 -329 418 -329 c 0
 476 -329 524 -296 558 -274 c 1
 615 -380 l 1
 562 -428 465 -473 386 -473 c 0
 224 -473 153 -404 153 -298 c 0xd8
 153 -281 154 -264 158 -245 c 0
 178 -142 275 -71 380 2 c 1
 175 13 78 150 78 348 c 0
 78 393 83 440 93 490 c 0
 150 782 300 1032 592 1032 c 0
 836 1032 946 888 946 669 c 0
 946 619 940 565 929 508 c 0
 900 357 849 250 756 149 c 1
EndSplineSet
Validated: 1
EndChar

StartChar: uni0326
Encoding: 806 806 518
Width: 1060
VWidth: 26
Flags: W
HStem: -494 498
VStem: 274 322
LayerCount: 2
Fore
SplineSet
376 4 m 1
 596 4 l 1
 554 -211 l 2
 525 -362 443 -438 303 -494 c 1
 274 -367 l 1
 339 -339 370 -316 389 -217 c 1
 333 -217 l 1
 376 4 l 1
EndSplineSet
Validated: 1
EndChar

StartChar: uni2016
Encoding: 8214 8214 527
Width: 1060
VWidth: 66
Flags: W
LayerCount: 2
Fore
SplineSet
197 152 m 0
 268 517 374 1111 430 1399 c 2
 448 1492 l 1
 608 1492 l 1
 580 1347 l 2
 526 1070 439 558 374 224 c 2
 344 74 l 2
 322 -41 311 -97 286 -198 c 1
 125 -197 l 1
 141 -135 150 -92 161 -37 c 0
 170 10 180 66 197 152 c 0
638 152 m 0
 709 517 815 1111 871 1399 c 2
 889 1492 l 1
 1049 1492 l 1
 1021 1347 l 2
 967 1070 880 558 815 224 c 2
 785 74 l 2
 763 -41 752 -97 727 -198 c 1
 566 -197 l 1
 582 -135 591 -92 602 -37 c 0
 611 10 621 66 638 152 c 0
EndSplineSet
Validated: 1
EndChar

StartChar: underscoredbl
Encoding: 8215 8215 528
Width: 1060
VWidth: 41
Flags: W
HStem: -509 152<-13 903> -236 152<40 956>
LayerCount: 2
Fore
SplineSet
40 -84 m 1
 986 -84 l 1
 956 -236 l 1
 6 -236 l 1
 40 -84 l 1
-13 -357 m 1
 933 -357 l 1
 903 -509 l 1
 -47 -509 l 1
 -13 -357 l 1
EndSplineSet
Validated: 1
EndChar

StartChar: quoteleft
Encoding: 8216 8216 529
Width: 1060
VWidth: -25
Flags: HW
VStem: 516 185<1002.12 1254.07>
LayerCount: 2
Fore
SplineSet
816 792 m 1
 564 737 l 1
 524 939 l 2
 519 964 516 1009 516 1036 c 0
 516 1267 641 1413 809 1516 c 1
 883 1406 l 1
 757 1329 701 1242 701 1125 c 0
 701 1046 734 994 775 989 c 1
 816 792 l 1
EndSplineSet
Validated: 1
EndChar

StartChar: quotereversed
Encoding: 8219 8219 532
Width: 1060
VWidth: -25
Flags: HW
VStem: 504 168<875.229 1147.28>
LayerCount: 2
Fore
SplineSet
917 1381 m 1
 800 1182 l 1
 799 1182 l 0
 722 1182 672 1119 672 1015 c 0
 672 927 697 882 767 826 c 1
 649 716 l 1
 561 787 504 892 504 1020 c 0
 504 1110 524 1178 589 1291 c 2
 707 1495 l 1
 917 1381 l 1
EndSplineSet
Validated: 1
EndChar

StartChar: quotedblleft
Encoding: 8220 8220 533
Width: 1060
VWidth: -25
Flags: W
VStem: 308 188<1024.21 1245.95> 707 187<1061.61 1269.78>
LayerCount: 2
Fore
SplineSet
1009 825 m 1
 760 766 l 1
 714 990 l 2
 709 1018 707 1046 707 1073 c 0
 707 1297 842 1419 1035 1511 c 1
 1077 1403 l 1
 970 1354 894 1256 894 1153 c 0
 894 1108 918 1059 959 1055 c 1
 1009 825 l 1
610 789 m 1
 361 730 l 1
 315 954 l 2
 310 982 308 1010 308 1037 c 0
 308 1260 431 1418 651 1529 c 1
 696 1418 l 1
 556 1330 496 1245 496 1125 c 0
 496 1074 515 1023 559 1019 c 1
 610 789 l 1
EndSplineSet
Validated: 1
EndChar

StartChar: uni201F
Encoding: 8223 8223 536
Width: 1060
VWidth: -25
Flags: W
VStem: 310 168<880.864 1129.83> 697 171<878.205 1097.97>
LayerCount: 2
Fore
SplineSet
1112 1348 m 1
 972 1118 l 1
 969 1118 966 1119 963 1119 c 0
 921 1119 868 1072 868 997 c 0
 868 930 899 874 971 833 c 1
 887 725 l 1
 769 794 697 886 697 1008 c 0
 697 1103 727 1169 769 1246 c 1
 902 1470 l 1
 1112 1348 l 1
726 1384 m 1
 587 1154 l 1
 520 1154 478 1096 478 1007 c 0
 478 942 505 884 584 818 c 1
 496 707 l 1
 366 789 310 901 310 1024 c 0
 310 1130 339 1200 384 1282 c 1
 516 1506 l 1
 726 1384 l 1
EndSplineSet
Validated: 1
EndChar

StartChar: daggerdbl
Encoding: 8225 8225 537
Width: 1060
VWidth: 6
Flags: W
HStem: 194 155<53 363 556 867> 1008 162<219.261 515 705 1028>
LayerCount: 2
Fore
SplineSet
525 192 m 1
 502 74 l 2
 480 -41 469 -97 444 -198 c 1
 283 -197 l 1
 299 -135 308 -92 319 -37 c 0
 328 10 338 66 355 152 c 0
 358 165 360 179 363 193 c 1
 314 193 266 194 215 194 c 0
 155 194 92 193 22 189 c 1
 53 349 l 1
 183 356 288 357 393 357 c 1
 432 562 476 799 515 1008 c 1
 422 1008 317 1014 179 1023 c 1
 189 1076 200 1130 213 1181 c 1
 347 1172 453 1170 544 1170 c 1
 560 1257 576 1336 588 1399 c 2
 606 1492 l 1
 766 1492 l 1
 738 1347 l 2
 728 1296 717 1237 705 1172 c 1
 820 1175 917 1179 1059 1179 c 1
 1028 1020 l 1
 889 1020 792 1013 675 1010 c 1
 637 799 594 559 556 356 c 1
 673 354 777 349 900 349 c 1
 867 188 l 1
 746 188 640 191 525 192 c 1
EndSplineSet
Validated: 1
EndChar

StartChar: bullet
Encoding: 8226 8226 538
Width: 1060
VWidth: 0
Flags: W
HStem: 237 552<428.773 632.27>
VStem: 250 562<413.955 612.045>
LayerCount: 2
Fore
SplineSet
255 513 m 0
 285 665 432 789 584 789 c 0
 718 789 812 693 812 566 c 0
 812 549 811 531 807 513 c 0
 777 361 629 237 477 237 c 0
 343 237 250 333 250 460 c 0
 250 477 251 495 255 513 c 0
EndSplineSet
Validated: 1
EndChar

StartChar: uni2023
Encoding: 8227 8227 539
Width: 1060
VWidth: 0
Flags: W
HStem: 190 667
VStem: 177 659
LayerCount: 2
Fore
SplineSet
318 857 m 1
 836 542 l 1
 824 476 l 1
 192 190 l 1
 177 278 l 1
 275 781 l 1
 318 857 l 1
EndSplineSet
Validated: 1
EndChar

StartChar: dagger
Encoding: 8224 8224 544
Width: 1060
VWidth: 6
Flags: W
HStem: 1008 162<219.261 515 705 1028>
LayerCount: 2
Fore
SplineSet
705 1172 m 1
 820 1175 917 1179 1059 1179 c 1
 1028 1020 l 1
 889 1020 792 1013 675 1010 c 1
 629 751 576 448 532 224 c 2
 502 74 l 2
 480 -41 469 -97 444 -198 c 1
 283 -197 l 1
 299 -135 308 -92 319 -37 c 0
 328 10 338 66 355 152 c 0
 401 389 463 724 515 1008 c 1
 422 1008 317 1014 179 1023 c 1
 189 1076 200 1130 213 1181 c 1
 347 1172 453 1170 544 1170 c 1
 560 1257 576 1336 588 1399 c 2
 606 1492 l 1
 766 1492 l 1
 738 1347 l 2
 728 1296 717 1237 705 1172 c 1
EndSplineSet
Validated: 1
EndChar

StartChar: guilsinglleft
Encoding: 8249 8249 545
Width: 1060
VWidth: 6
Flags: W
VStem: 521 162<104.221 207.688>
LayerCount: 2
Fore
SplineSet
306 574 m 1
 475 704 664 836 714 976 c 1
 863 939 l 1
 786 750 626 627 480 518 c 1
 585 400 671 281 683 109 c 1
 521 55 l 1
 512 204 414 318 283 459 c 1
 306 574 l 1
EndSplineSet
Validated: 1
EndChar

StartChar: guilsinglright
Encoding: 8250 8250 546
Width: 1060
VWidth: 6
Flags: W
VStem: 437 162<831.312 934.779>
LayerCount: 2
Fore
SplineSet
814 465 m 1
 645 335 456 203 406 63 c 1
 257 100 l 1
 334 289 494 412 640 521 c 1
 535 639 449 758 437 930 c 1
 599 984 l 1
 608 835 706 721 837 580 c 1
 814 465 l 1
EndSplineSet
Validated: 1
EndChar

StartChar: uni203D
Encoding: 8253 8253 548
Width: 1060
VWidth: 0
Flags: W
HStem: 0 270<309 507> 1020 21G<214.302 286.5> 1149 152<362.789 512 737 780.87> 1322 20G<544.25 746>
VStem: 810 166<913.686 1115.83>
LayerCount: 2
Fore
SplineSet
309 270 m 1
 559 270 l 1
 507 0 l 1
 257 0 l 1
 309 270 l 1
542 1310 m 1
 548 1342 l 1
 746 1342 l 1
 737 1301 l 1
 875 1270 976 1186 976 1088 c 0
 976 858 819 752 706 670 c 0
 650 630 588 571 565 498 c 1
 551 431 l 1
 376 431 l 1
 384 475 l 2
 385 480 386 485 387 489 c 2
 512 1154 l 1
 436 1144 346 1110 227 1020 c 1
 147 1146 l 1
 258 1244 411 1295 542 1310 c 1
612 771 m 1
 717 849 810 928 810 1043 c 0
 810 1086 767 1133 692 1149 c 1
 612 771 l 1
EndSplineSet
Validated: 1
EndChar

StartChar: uni2047
Encoding: 8263 8263 549
Width: 1060
VWidth: 0
Flags: W
HStem: 0 270<99 297 552 750> 1182 155<279.78 565.365 759.225 1017.21>
VStem: 165 175<431 557.719> 599 165<903.828 1147.52> 618 175<431 557.719> 1052 166<903.828 1143.49>
LayerCount: 2
Fore
SplineSet
99 270 m 1xe4
 349 270 l 1
 297 0 l 1
 47 0 l 1
 99 270 l 1xe4
127 1197 m 1
 216 1292 347 1337 479 1337 c 0
 570 1337 638 1316 686 1278 c 1
 760 1318 846 1337 932 1337 c 0
 1126 1337 1218 1244 1218 1088 c 0
 1218 1058 1215 1027 1208 993 c 0
 1177 834 1039 736 948 670 c 0
 887 626 818 559 802 477 c 2
 793 431 l 1
 618 431 l 1xec
 626 475 l 2
 649 595 717 673 815 747 c 0
 932 836 1026 883 1047 989 c 0
 1051 1007 1052 1024 1052 1041 c 0
 1052 1125 1004 1182 894 1182 c 0
 846 1182 799 1172 758 1153 c 1
 762 1132 764 1109 764 1084 c 0
 764 1056 761 1025 755 993 c 0
 724 834 586 736 495 670 c 0
 434 626 365 559 349 477 c 2
 340 431 l 1
 165 431 l 1
 173 475 l 2
 196 595 264 673 362 747 c 0
 479 836 573 883 594 989 c 0
 598 1007 599 1024 599 1041 c 0xf4
 599 1125 551 1182 441 1182 c 0
 348 1182 261 1147 213 1074 c 1
 127 1197 l 1
552 270 m 1
 802 270 l 1
 750 0 l 1
 500 0 l 1
 552 270 l 1
EndSplineSet
Validated: 1
EndChar

StartChar: uni2048
Encoding: 8264 8264 550
Width: 1060
VWidth: 0
Flags: W
HStem: 0 270<168 366 689 887> 1182 155<348.78 633.211> 1299 20G<916.441 1118>
VStem: 234 175<431 557.719> 637 481 668 166<903.828 1143.49>
LayerCount: 2
Fore
SplineSet
168 270 m 1x90
 418 270 l 1
 366 0 l 1
 116 0 l 1
 168 270 l 1x90
196 1197 m 1
 285 1292 416 1337 548 1337 c 0
 742 1337 834 1244 834 1088 c 0
 834 1058 831 1027 824 993 c 0
 793 834 655 736 564 670 c 0
 503 626 434 559 418 477 c 2
 409 431 l 1
 234 431 l 1
 242 475 l 2
 265 595 333 673 431 747 c 0
 548 836 642 883 663 989 c 0
 667 1007 668 1024 668 1041 c 0
 668 1125 620 1182 510 1182 c 0xd4
 417 1182 330 1147 282 1074 c 1
 196 1197 l 1
EndSplineSet
Refer: 68 33 N 1 0 0 1 324 0 2
Validated: 1
EndChar

StartChar: uni2049
Encoding: 8265 8265 551
Width: 1060
VWidth: 0
Flags: W
HStem: 0 270<68 266 541 739> 1182 155<721.78 1006.21> 1299 20G<295.441 497>
VStem: 16 481 607 175<431 557.719> 1041 166<903.828 1143.49>
LayerCount: 2
Fore
SplineSet
541 270 m 1x9c
 791 270 l 1
 739 0 l 1
 489 0 l 1
 541 270 l 1x9c
569 1197 m 1
 658 1292 789 1337 921 1337 c 0
 1115 1337 1207 1244 1207 1088 c 0
 1207 1059 1204 1027 1197 993 c 0
 1166 834 1028 736 937 670 c 0
 877 626 807 559 791 477 c 2
 782 431 l 1
 607 431 l 1
 615 475 l 2
 639 595 706 673 804 747 c 0
 922 836 1016 883 1036 989 c 0
 1040 1007 1041 1025 1041 1041 c 0
 1041 1125 993 1182 883 1182 c 0xdc
 790 1182 703 1147 655 1074 c 1
 569 1197 l 1
EndSplineSet
Refer: 68 33 N 1 0 0 1 -297 0 2
Validated: 1
EndChar

StartChar: arrowleft
Encoding: 8592 8592 552
Width: 1060
VWidth: 6
Flags: W
HStem: 448 152<320 1069>
VStem: 256 162<98.2213 205.129>
LayerCount: 2
Fore
SplineSet
40 568 m 1
 209 698 399 830 449 970 c 1
 597 933 l 1
 539 789 431 684 320 594 c 1
 441 599 570 600 657 600 c 0
 698 600 737 600 776 600 c 0
 858 600 974 599 1081 598 c 1
 1099 598 l 1
 1069 445 l 1
 1051 445 l 1
 917 448 750 448 625 448 c 0
 564 448 418 446 276 440 c 1
 352 344 409 240 418 103 c 1
 256 49 l 1
 247 198 149 312 18 453 c 1
 40 568 l 1
EndSplineSet
Validated: 1
EndChar

StartChar: arrowup
Encoding: 8593 8593 553
Width: 1060
VWidth: 66
Flags: W
HStem: 928 152<191.736 282.639> 1376 20G<549 801>
LayerCount: 2
Fore
SplineSet
750 1396 m 1
 852 1252 952 1089 1088 1066 c 1
 1021 910 l 1
 883 941 794 1027 721 1122 c 1
 670 861 625 612 564 296 c 2
 534 146 l 2
 512 31 501 -25 476 -126 c 1
 315 -126 l 1
 331 -64 340 -21 351 34 c 0
 360 81 370 138 387 224 c 2
 562 1128 l 1
 450 1037 334 963 194 928 c 1
 170 1080 l 1
 326 1118 463 1238 635 1396 c 1
 750 1396 l 1
EndSplineSet
Validated: 1
EndChar

StartChar: arrowright
Encoding: 8594 8594 554
Width: 1060
VWidth: 6
Flags: W
HStem: 444 153<56 818>
VStem: 688 163<823.28 932>
LayerCount: 2
Fore
SplineSet
1103 567 m 1
 1081 452 l 1
 896 311 753 197 686 48 c 1
 545 102 l 1
 608 239 704 343 818 439 c 1
 678 445 533 447 472 447 c 0
 347 447 180 447 44 444 c 1
 26 444 l 1
 56 597 l 1
 74 597 l 1
 181 598 298 599 380 599 c 0
 419 599 458 599 499 599 c 0
 586 599 714 598 833 593 c 1
 756 683 690 788 688 932 c 1
 851 969 l 1
 851 967 851 965 851 963 c 0
 851 825 986 695 1103 567 c 1
EndSplineSet
Validated: 1
EndChar

StartChar: arrowdown
Encoding: 8595 8595 555
Width: 1060
VWidth: 66
Flags: W
HStem: 238 156<813.203 921>
LayerCount: 2
Fore
SplineSet
461 -92 m 1
 346 -92 l 1
 236 66 146 186 4 224 c 1
 87 376 l 1
 213 341 301 266 377 175 c 1
 553 1080 l 2
 570 1166 581 1221 590 1268 c 0
 601 1323 609 1366 617 1428 c 1
 778 1430 l 1
 763 1329 753 1273 731 1158 c 2
 702 1008 l 2
 641 692 589 442 538 181 c 1
 647 276 771 363 921 394 c 1
 927 238 l 1
 783 215 619 52 461 -92 c 1
EndSplineSet
Validated: 1
EndChar

StartChar: arrowboth
Encoding: 8596 8596 556
Width: 1060
VWidth: 6
Flags: W
HStem: 447 152<299 818>
VStem: 233 163<103.251 210.129> 688 163<823.28 932>
LayerCount: 2
Fore
SplineSet
1103 567 m 1
 1081 452 l 1
 896 311 753 197 686 48 c 1
 545 102 l 1
 608 239 704 343 818 439 c 1
 678 445 533 447 472 447 c 0
 407 447 330 447 253 447 c 1
 330 350 387 246 396 108 c 1
 233 54 l 1
 224 203 127 317 -4 458 c 1
 18 573 l 1
 187 703 377 835 427 975 c 1
 575 938 l 1
 517 794 410 689 299 599 c 1
 328 599 356 599 380 599 c 0
 419 599 458 599 499 599 c 0
 586 599 714 598 833 593 c 1
 756 683 690 788 688 932 c 1
 851 969 l 1
 851 967 851 965 851 963 c 0
 851 825 986 695 1103 567 c 1
EndSplineSet
Validated: 1
EndChar

